<?xml version="1.0" encoding="utf-8"?>
<!-- Generator: Adobe Illustrator 24.0.0, SVG Export Plug-In . SVG Version: 6.00 Build 0)  -->
<svg version="1.1" id="Layer_1" xmlns="http://www.w3.org/2000/svg" xmlns:xlink="http://www.w3.org/1999/xlink" x="0px" y="0px"
	 viewBox="0 0 1920 600" style="enable-background:new 0 0 1920 600;" xml:space="preserve">
<style type="text/css">
	.st0{fill:#237C22;}
	.st1{opacity:0.1;fill:#DFFFE2;enable-background:new    ;}
	.st2{opacity:0.1;fill:#A3C5A1;enable-background:new    ;}
	.st3{fill:#BE6F72;}
	.st4{opacity:0.1;enable-background:new    ;}
	.st5{fill:#3F3D56;}
	.st6{fill:#FBBEBE;}
	.st7{fill:#E3E8F4;}
	.st8{fill:#F86D70;}
	.st9{fill:#A3C5A1;}
	.st10{fill:#003300;}
	.st11{fill:#18312C;}
	.st12{opacity:0.2;}
	.st13{fill:#FFFFFF;}
</style>
<g id="Layer_1_1_">
	<g>
		<rect x="0.5" y="0.8" class="st0" width="1919" height="598.5"/>
		<path class="st0" d="M1919,1.5v597H1V1.5H1919 M1920,0H0v600h1920V0L1920,0z"/>
	</g>
</g>
<g id="Layer_2_1_">
	<path class="st1" d="M1139.6,377.5c-7.9,18.9-24.3,36-42,52.2c-15.5,14.2-32.2,28-49.9,41.3c-4.9,3.7-9.9,7.3-15,10.9l-3.5,2.5
		c-3.1,2.2-6.3,4.4-9.5,6.6l-0.4,0.3c-3.1,2.1-6.3,4.2-9.5,6.3c-10.4,6.8-21.4,13.6-33.6,19.3c-4.1,1.9-8.4,3.7-12.9,5.3
		c-2.4,0.9-4.8,1.7-7.3,2.4c-4.1,1.2-8.3,2.3-12.7,3.2c-0.7,0.2-1.5,0.3-2.2,0.4c-4.5,0.8-9,1.5-13.6,1.9
		c-16.8,1.5-34.2,0.4-51.1-2.2c-8.4-1.3-16.7-3-24.8-5c-1-0.2-2-0.5-3-0.7c-27.4-6.8-53-16.1-80.6-22.7c-9.5-2.3-19.2-4.2-29-5.7
		c-4.8-0.8-9.7-1.5-14.5-2.1c-11.5-1.4-23-2.4-34.7-2.9c-15.7-0.7-31.9-0.4-46.9,2.3c-2,0.4-4,0.8-5.9,1.2c-2.5,0.6-4.9,1.2-7.2,2
		c-6.4,2.1-12.6,4.6-18.6,7.6c-1.2,0.6-2.3,1.2-3.5,1.8l0,0c-3.7,1.9-7.3,3.8-11,5.6c-6.6,3.5-13.5,6.4-20.5,8.7
		c-3.9,1.2-7.8,2.2-11.8,3c-10.6,2.1-21.8,2.9-33.1,3c-5.4,0-10.9-0.1-16.3-0.4H515c-1.8-0.1-3.7-0.2-5.5-0.3
		c-8.4-0.6-16.8-1.5-25-2.7c-28.3-4.1-55.1-12-76.6-23.9c-29.3-16.2-47.9-40.4-45.1-64.6c2-17.4,14.5-33.6,26.3-49.4
		c22-29.5,42.5-59.6,53.4-91.4c8.8-25.8,11.4-53.1,31.6-76.3c6.5-7.4,14.8-14.2,24.4-20.1c7.2-4.4,14.8-8.2,22.6-11.4
		c8.9-3.6,17.9-6.6,27.2-8.9c8-2,16.2-3.5,24.4-4.6c4.5-0.6,9-1,13.5-1.3c3.5-0.2,7-0.4,10.6-0.5h0.5c2.2,0,4.3,0,6.5,0
		c15.8,0.2,31.5,1.7,47,4.4c9.7,1.6,19.3,3.6,28.8,5.8c5.6,1.3,11.2,2.7,16.7,4.1c1.7,0.4,3.4,0.9,5,1.3
		c39.3,10.5,73.9,25.1,111.8,37c0.2,0.1,0.4,0.1,0.6,0.2l0,0c7.8,2.4,15.7,4.4,23.7,5.9c5.9,1.2,11.9,2.2,18,3.1
		c9.3,1.4,18.9,2.5,28.5,3.4l2.1,0.2c14.1,1.4,28.3,2.4,42.1,3.6c4.9,0.4,9.8,0.9,14.6,1.4c3,0.3,6,0.6,9,1c2.1,0.2,4.3,0.5,6.4,0.8
		c2.1,0.3,4.4,0.5,6.6,0.8c1.4,0.2,2.9,0.4,4.3,0.6c8.7,1.2,17.4,2.4,26,3.9c5.2,0.9,10.4,1.9,15.6,2.9c3.7,0.8,7.4,1.6,11.1,2.4
		c2.7,0.6,5.4,1.3,8.1,1.9c21.6,5.4,41.9,12.6,59.3,22.2C1134.4,300.3,1154.6,341.3,1139.6,377.5z"/>
	<circle class="st2" cx="532.1" cy="85.6" r="14.9"/>
	<circle class="st2" cx="837.6" cy="53.1" r="14.9"/>
	<circle class="st2" cx="1018.8" cy="86.5" r="14.9"/>
	<circle class="st2" cx="385.1" cy="121.8" r="25"/>
	<circle class="st2" cx="409.1" cy="245.5" r="25"/>
	<circle class="st2" cx="1081.5" cy="200" r="25"/>
	<path class="st3" d="M604.9,203.5c0.1,2.1,0,4.2-0.4,6.3c-1.4,6.4-7.2,10.8-12.9,14.2c-5.7,3.3-11.9,6.5-15.2,12.2
		c-4.1,6.8-2.8,16,2,22.4c4.8,6.4,12.3,10.2,20.1,11.8c14.2,2.9,29.7-1.2,40.3-11c10.6-9.8,16-25.1,13.3-39.4
		c-5.8,0.8-10.9-4.3-12.8-9.8c-1.9-5.5-1.5-11.5-2.2-17.3c-0.1-1-0.3-1.9-0.9-2.8c-0.8-1.1-2.2-1.6-3.6-1.9
		c-6.7-1.8-17.9-5.8-24.8-4.3C601.7,185.2,604.8,198.3,604.9,203.5z"/>
	<path class="st4" d="M604.9,203.5c0.1,2.1,0,4.2-0.4,6.3c-1.4,6.4-7.2,10.8-12.9,14.2c-5.7,3.3-11.9,6.5-15.2,12.2
		c-4.1,6.8-2.8,16,2,22.4c4.8,6.4,12.3,10.2,20.1,11.8c14.2,2.9,29.7-1.2,40.3-11c10.6-9.8,16-25.1,13.3-39.4
		c-5.8,0.8-10.9-4.3-12.8-9.8c-1.9-5.5-1.5-11.5-2.2-17.3c-0.1-1-0.3-1.9-0.9-2.8c-0.8-1.1-2.2-1.6-3.6-1.9
		c-6.7-1.8-17.9-5.8-24.8-4.3C601.7,185.2,604.8,198.3,604.9,203.5z"/>
	<path class="st3" d="M596.9,509.5c-6.6,3.5-13.5,6.4-20.5,8.7c-3.9,1.2-7.8,2.2-11.8,3c-0.3-5.3,0-10.6,0.9-15.9
		c0.5-3,1.3-6,1.5-9.1c0.3-4.4-0.7-8.8-2.7-12.7c7.7-1,15-2.8,22.7-2.3l0.5,0c0.9,0,1.8,0.2,2.7,0.5c1.2,0.6,2.2,1.5,2.9,2.6
		c0.4,0.5,0.8,1.1,1.1,1.7c2.2,3.8,3,8.1,3.2,12.6C597.4,502.3,597.3,505.9,596.9,509.5z"/>
	<path class="st3" d="M637.2,492.4c-2.5,0.6-4.9,1.2-7.2,2c-6.4,2.1-12.6,4.6-18.6,7.6c-0.4-1.9-0.6-3.8-0.6-5.7
		c7.1-4.9,15.9-6.7,24.4-5c0.6,0.1,1.1,0.3,1.5,0.6C636.9,492.1,637.1,492.3,637.2,492.4z"/>
	<path class="st5" d="M649,457.6c-0.5,4.5-1.2,9.1-2.8,13.3c-1.7,4.6-4.6,9-4.2,13.9c0.2,2.1,0.9,4.4,1,6.5c-2,0.4-4,0.8-5.9,1.2
		c-2.5,0.6-4.9,1.2-7.2,2c-6.4,2.1-12.6,4.6-18.6,7.6c-1.2,0.6-2.3,1.2-3.5,1.8l0,0c-0.5-0.1-1-0.1-1.4-0.2
		c-3.5-0.6-7.1-2.2-9.1-4.9c-0.4-0.6-0.8-1.3-1-2.1c-1.1-3.4,0-7.6-2.3-10.2l-0.1,0.1l-0.1,0.1c-1.3,1.2-2.7,2.2-4.2,3l0,0
		c-6.9,3.9-15.2,4.7-22.8,2.2c-1.5-0.5-2.9-1.1-4.3-1.9c-3.2-1.8-6.2-4.8-6-8.5c0.1-2,1.3-3.9,1-5.9c-0.2-1.4-1.2-2.6-1.9-3.9
		c-4.6-8.3,0.9-19-2-28c-0.1-0.2-0.1-0.4-0.2-0.6c-0.2-0.6-0.5-1.2-0.7-1.7c-0.6-1.3-1.3-2.6-1.8-4c-0.4-1.1-0.8-2.3-1-3.5
		c-0.7-3.5-0.9-7-0.7-10.5c0-9.3,1.7-18.8,4-27.7c0.4-1.6,0.9-3.8,1.5-6.3l0,0c0.6-2.6,1.4-5.1,2.4-7.5c1.4-3.2,3.3-5.7,5.8-6.3
		c3.9-0.9,9.8,1,13.7,1.5l15.5,1.9l31,3.7c5.4,0.6,11,1.4,15.4,4.4c0.3,0.2,0.6,0.4,0.9,0.6c1.2,0.9,2.2,2,3.1,3.2
		c0.3,0.4,0.6,0.8,0.9,1.3c1,1.5,1.9,3.2,2.6,4.9c3.8,9.3,3.9,19.6,4,29.6C650.1,436.8,650.1,447.2,649,457.6z"/>
	<path class="st4" d="M589.6,489.6c-0.9-3.6-2.9-8.8-3.2-10.2c-1-4.7-1.7-9.6-2.1-14.4c-0.8-8.6-2.1-20.7,0.9-28.9
		c2.9,1.5,5.4,5.8,6.7,8.8c4.8,10.7-0.6,23.7,3.9,34.5c0.3,0.6,0.5,1.3,0.6,2.1c-0.1,0.9-0.4,1.8-1,2.5l-1.5,2.5L589.6,489.6z"/>
	<path class="st3" d="M689.1,160.8c5.1-8.3,12.1-16.4,11.6-26.1c-0.2-3.5-1.3-6.8-2.2-10.2c-2.5-9.8-2.6-20-0.5-29.9
		c8.5-1.4,17.3,0.6,24.4,5.5c2.3,1.6,4.4,3.5,5.4,6.1c0.9,2.4,0.8,5,0.6,7.5c-0.4,5.8-0.9,12-4.5,16.6c-1.1,1.4-2.5,2.6-3.6,4.1
		c-1.6,2.1-2.5,4.6-3.4,7.1l-11.8,32c-5.9,16.1-12.4,33-25.4,44.1c-0.3,0.3-9.7-13-10.5-14.4c-3.1-5.5-1.8-7.8,2-12.4
		C678.9,181.7,683,170.8,689.1,160.8z"/>
	<path class="st6" d="M554.5,433.3c0,2.4-0.2,4.8-0.6,7.1c-0.1,0.9-0.3,1.7-0.4,2.6c-2.4,12.3-8.2,24-12.3,36
		c-5.4,15.8-7.8,29.5-9.7,45.3c-5.4,0-10.9-0.1-16.3-0.4H515c-1.8-0.1-3.7-0.2-5.5-0.3c1.7-14.7-1.4-30,1.6-44.7
		c1.2-5.9,3.3-11.6,4.5-17.5c0.4-1.7,0.7-3.5,0.9-5.2c0.2-1.7,0.3-3.4,1-4.9c0.1-0.1,0.1-0.3,0.2-0.4c0.7-1,1.5-2,2.4-2.8
		c8.4-7.4,18.7-12.3,29.8-14.2C551.4,433.5,552.9,433.4,554.5,433.3z"/>
	<path class="st4" d="M554.5,433.3c0,2.4-0.2,4.8-0.6,7.1c-0.1,0.9-0.3,1.7-0.4,2.6c-2.4,12.3-8.2,24-12.3,36
		c-5.4,15.8-7.8,29.5-9.7,45.3c-5.4,0-10.9-0.1-16.3-0.4H515c-1.8-0.1-3.7-0.2-5.5-0.3c1.7-14.7-1.4-30,1.6-44.7
		c1.2-5.9,3.3-11.6,4.5-17.5c0.4-1.7,0.7-3.5,0.9-5.2c0.2-1.7,0.3-3.4,1-4.9c0.1-0.1,0.1-0.3,0.2-0.4c0.7-1,1.5-2,2.4-2.8
		c8.4-7.4,18.7-12.3,29.8-14.2C551.4,433.5,552.9,433.4,554.5,433.3z"/>
	<path class="st6" d="M519.4,464.7c-0.1,3.8-0.4,7.7-0.9,11.5c-1.8,15.6-2.2,31.8-3.5,47.6c-1.8-0.1-3.7-0.2-5.5-0.3
		c-8.4-0.6-16.8-1.5-25-2.7c0.6-3.6,1.3-7.1,1.9-10.7c0.8-4.4,1.6-8.8,1.3-13.2c-0.2-4.2-1.3-8.2-2.2-12.4c-1.9-8.8-3-18.2-6.1-26.5
		c-1.6-4.6-4.2-8.9-7.6-12.4c13-5.1,25.4-5.4,39.3-4.8c1-0.1,2,0.2,2.8,0.7c0.7,0.6,1.1,1.3,1.4,2.1c2.1,5,3.4,10.4,3.9,15.8
		C519.4,461.2,519.4,463,519.4,464.7z"/>
	<circle class="st3" cx="623.7" cy="173" r="27"/>
	<path class="st7" d="M629.4,236c3.5-5.9,6.5-13.3,13.1-14.9c3.7-0.9,7.7,0.3,11.3,1.6c1.1,0.3,2,0.8,2.8,1.6
		c0.5,0.9,0.8,1.8,0.8,2.9c1.2,12.2,1.1,24.4-0.1,36.6c-0.9,8.6-2.4,17.2-2.6,25.9c-0.4,12,1.6,24,1,36c-0.5,9.1-2.5,18-4.5,26.9
		l-8.3,37.2c-0.1,1.1-0.6,2.2-1.3,3.1c-0.7,0.6-1.5,1.1-2.4,1.4c-24.3,8.6-51,6.5-73.7-5.8c-3-1.6-6-3.5-7.9-6.3
		c-2.8-4-3-9.3-2.1-14c0.9-4.8,2.8-9.3,4.1-13.9c2-7.3,2.5-14.8,2.9-22.3c0.6-9.9,1.2-19.9,0.2-29.7c-0.7-6.8-2.2-13.5-3.4-20.2
		c-1.7-10.2-2.7-20.4-2.9-30.7c-0.2-6.1,0.1-13,4.4-17.4c2.1-2.2,4.8-3.5,7.6-4.5c4.7-1.7,10-2.8,14.8-1.2c4.8,1.6,8.6,6.6,7.5,11.5
		c-0.5,2.3-2,4.3-2.3,6.6c-0.5,3.1,1.1,6.1,3.5,8.2C604.1,265.6,623.1,246.7,629.4,236z"/>
	<path class="st5" d="M630.3,208.5c3.8-1.4,7.9-1.6,11.8-0.7c2.5,0.6,5.2,1.6,7.5,0.5c0.8-0.4,1.5-1.1,2.4-1.4
		c2.3-1,5.2,0.2,7.3-1.2c1.3-0.9,1.7-2.6,2.1-4.1c2.1-7.3,6.3-13.7,12.2-18.5c-0.7,5.3-1.2,11.3,2.3,15.4c1.6,1.8,3.8,3,6.1,3.9
		c3.3,1.3,6.8,2.1,10.3,1.4c3.4-0.7,6.6-3.3,7.2-6.8c-0.1,5.2-5.1,8.8-6.5,13.9c-0.5,1.9-0.5,3.9-0.8,5.8c-0.9,4.9-4.4,8.9-7.5,12.8
		c-9.8,12.7-16,27.8-18.1,43.7c-0.1,1.9-0.5,3.7-1.2,5.5c-0.7,1.4-1.4,2.7-2.3,3.9c-5.1,8.5-3.5,19.3-1.8,29.1
		c2.7,15.3,5.4,30.3,9.7,45.2c0.7,2.5,1.6,5.2,3.5,7.1c-0.6,6-6.7,8.8-12.2,11.4c-5.4,2.6-10.4,5.9-14.8,10
		c-1.6,1.5-3.1,3.1-3.7,5.1c-0.5,1.9-0.2,4.1-0.8,6c-0.7,1.9-3.5,3.2-4.7,1.7c-1.5-5.7,1.1-11.6,1-17.5c-0.1-4-1.4-7.8-1.6-11.8
		c-0.2-4.5,1.1-8.9,2.6-13.2c3.9-11.9,8.7-23.7,10-36.1c1.4-12.4-1.2-26-10-34.9c-10.5-10.6-16.3-24.9-27.5-34.7
		c-1.8-1.5-3.8-3.5-3.5-5.8c0.2-1,0.7-2,1.3-2.8c3.9-5.4,9-9.9,13.1-15.1C627.8,221.1,631.1,215.1,630.3,208.5z"/>
	<path class="st5" d="M593.4,219.6c-0.7,0.7-1.2,1.6-2,2.2c-0.9,0.6-2,0.9-3.1,1c-4.1,0.6-8.2,1-12.3,1.1c-3.5,0-7-0.3-10.4,0.6
		c-4.6,1.3-8.3,5-10.7,9.2s-3.4,9-4.3,13.7c-2,10.5-3,21.1-3.1,31.7c5.7-4.5,10.8-9.8,15.1-15.7c3.3-4.5,6.3-9.5,11.1-12.5
		c2.2-1.4,4.6-2.3,6.8-3.6c4.6-2.8,7.7-7.4,10.8-11.8c2.2-3.3,8.7-9.6,9.2-13.5C601,218.4,595.9,216.6,593.4,219.6z"/>
	<path class="st5" d="M617.5,154.6c0.9,0.5,1.7,1.1,2.4,1.7c4.7,3.3,11,2.7,16.6,1.9c1.7-0.2,3.5-0.5,5-1.4c2.4-1.5,3.5-4.5,3.3-7.3
		c-0.2-2.8-1.7-5.4-3.4-7.6c-4.6-5.9-11.5-9.6-18.9-10.3c-1.9-0.2-3.8,0-5.7,0.6c-2.2,0.9-3.9,2.8-6,4.1c-6.1,3.7-15.4,2.1-19.3,8
		c-2.9,4.4-0.8,10.4-2.2,15.4c-1,3.8-3.9,7.2-3.4,11.1c0.3,2.1,1.6,3.9,2.6,5.7c2.4,4.3,3.5,9.1,3.2,14c2.7,1.9,6.4-1,7.1-4.2
		c0.7-3.2-0.1-6.5,0.5-9.7c1.1-5.6,6.1-9.7,8.3-14.9C609.5,158,612.1,151.8,617.5,154.6z"/>
	<path class="st6" d="M552.2,215.9c-0.2,1.3-0.3,2.6,0.4,3.7c1.4,2.1,4.5,1.3,7,1.6c3.9,0.5,6.7,4.1,7.5,8c0.8,3.9-0.1,7.8-1.1,11.6
		c-2.2,8.6-4.9,17-7.9,25.4c-8.2-1-16.9-4.1-21.3-11.2c-4-6.4-3.6-14.6-6.1-21.7c-1.8-5-5-9.4-8.1-13.6c5.1,0.6,8.7-5.2,9-10.3
		c0.3-5.1-1.3-10.3-0.2-15.3c0.3-1.2,20.2,2.5,22.2,3.9C559,202,553.1,210.5,552.2,215.9z"/>
	<path class="st4" d="M552.2,215.9c-0.2,1.3-0.3,2.6,0.4,3.7c1.4,2.1,4.5,1.3,7,1.6c3.9,0.5,6.7,4.1,7.5,8c0.8,3.9-0.1,7.8-1.1,11.6
		c-2.2,8.6-4.9,17-7.9,25.4c-8.2-1-16.9-4.1-21.3-11.2c-4-6.4-3.6-14.6-6.1-21.7c-1.8-5-5-9.4-8.1-13.6c5.1,0.6,8.7-5.2,9-10.3
		c0.3-5.1-1.3-10.3-0.2-15.3c0.3-1.2,20.2,2.5,22.2,3.9C559,202,553.1,210.5,552.2,215.9z"/>
	<circle class="st6" cx="547.7" cy="180.6" r="27"/>
	<path class="st5" d="M539.4,212c1-1.5-0.7-3.7,0.1-5.3c0.5-1,1.6-1.4,2.5-2.1c1.1-0.9,2-2.1,2.6-3.4c4.2-8.1,5.5-17.3,3.6-26.2
		c-0.6-3-1.2-6.9,1.5-8.3c0.8-0.3,1.6-0.5,2.4-0.4c4.9,0.2,9.7,3.5,14.5,2.3c3.3-0.9,5.8-3.8,6.1-7.2c0.3-4.5-3-8.3-6.3-11.3
		c-5.9-5.4-14.9-6.6-23-6.8l-15-0.2c-4.8-0.1-10.2,0.1-13.5,3.5c-4.8,4.9-2.4,13-3.1,19.9c-0.6,5.5-3.3,10.5-7.6,13.9
		c-3.1,2.5-7.4,4.8-7.3,8.8c0,1.4,0.6,2.6,1,3.9c1.5,5.2,0.1,10.9-2.9,15.4c-2.9,4.5-7.2,8-11.7,11.1c-2.4,1.6-4.8,3.2-6.7,5.4
		c-2.1,2.5-3.3,5.7-3.5,8.9c-0.3,2.5,0.2,5,1.5,7.2c2.9,4.7,9.9,5.4,14.7,2.6c4.8-2.7,7.7-7.8,9.7-13c1.2-3.1,2.3-6.6,5.3-7.9
		c3.8-1.7,8.1,1,10.6,4.4c2.4,3.3,3.9,7.4,7.1,10.2c4.9,4.3,13.3,3.6,17.4-1.4c3-3.6,3.6-8.6,3.5-13.3
		C542.8,218.8,541.6,215.1,539.4,212z"/>
	<path class="st8" d="M549.1,247.2c-3.1,0.7-6.3-0.8-8.6-3c-2.3-2.2-3.8-5-5.4-7.7c-4.1-6.8-8.7-13.3-13.9-19.3
		c-4.5-5.2-10.8-10.6-17.6-8.9c-2.3,0.6-4.3,1.8-6.1,3.3c-12.1,9.6-18.4,24.6-16.7,39.9c0.5,4.4,1.7,8.7,2.2,13.1
		c0.3,3.6,0.4,7.3,0.3,11c-0.2,11.1-0.6,22.9-6.6,32.3c-9.3,14.5-14.3,31.8-21.1,47.7c-3.7,8.6-5.9,17.7-8.1,26.8
		c-1.3,5.4-2.6,10.8-3.8,16.1l-8.4,35.2c-0.9,3.6-1.7,7.4-0.8,11.1c1.4,5.4,6.5,9.2,11.8,10.8c5.4,1.5,11.1,1.3,16.6,1.3
		c10.7,0.1,21.4,1.4,31.4,5.1c2.9,1.1,5.7,2.3,8.8,2.6c3,0.2,6.1-0.5,8.9-1.7c7.8-3,14.5-8.3,21.6-12.6c4.5-2.7,9.2-5,14.1-6.8
		c2.5-0.9,5.1-1.8,6.8-3.8c1.3-1.5,1.9-3.5,2.3-5.4c2.3-10.9,0.8-22.2,0-33.3c-0.8-11.1-7.4-22.8-1.9-32.5c1.1-2,2.4-3.8,3-6
		c0.7-2.8,0.1-5.9,0.7-8.7c0.5-2.1,1.6-4,2.3-6c1.3-3.6,1.5-7.4,1.5-11.3c0-8.4-0.9-16.7-2.6-24.9c-2.2-10.4,5-20.6,9.2-30.4
		c1.5-3.5,3.6-6.8,4.2-10.6c0.6-3.4-0.2-6.8-0.7-10.2c-0.8-5.3-1.1-10.6-1-15.9c0.1-4.8,0.6-9.6-0.5-14.3c-1.1-4.6-4.4-9.1-9.1-10.1
		c-1.1-0.3-2.2-0.1-3.1,0.5c-0.5,0.5-0.9,1.2-1.1,1.9c-1.5,4.7-1.2,9.7-2.1,14.5C554.9,241.8,553.9,246.1,549.1,247.2z"/>
	<path class="st3" d="M483.9,276.8c0.3-1.9-0.6-4.5-2.5-4.4c-1.8,0.1-2.6,2.3-2.6,4.1c0,1.8,0.2,3.8-1,5.1c-1.1,1.1-3,1.1-4.3,2
		c-0.9,0.7-1.5,1.7-1.5,2.9c0,1,0.4,1.9,0.5,2.8c0,1-0.6,2.1-1.6,2c-1,1.7-0.7,3.8,0.6,5.2c0.5,0.5,1.1,0.9,1.3,1.6
		c0.1,0.5,0,1-0.1,1.4c-0.3,1.9,1,4,2.9,4.2c-1.1,0.8-0.9,2.6,0.1,3.5c1,0.9,2.4,1.1,3.7,1.1c3,0,6-0.6,8.7-1.8
		c0.9-0.3,1.8-0.9,2.4-1.7c0.6-0.8,0.5-2-0.2-2.7c1.3,0.2,2.9,0.3,3.8-0.7c1.2-1.5-0.1-3.6-1.4-5c1.5-0.2,2.6-1.6,2.3-3.1
		c-0.1-0.7-0.5-1.3-1-1.8c-0.4-0.3-1-0.6-1.1-1.2c-0.1-0.5,0.4-0.9,0.6-1.4c0.4-1.1-0.6-2.2-1.5-2.8c-2.3-1.5-5.7-1.5-7.8-3.1
		C482.3,281.6,483.6,278.9,483.9,276.8z"/>
	<path class="st5" d="M626.4,172c-1.7,0.2-3.4,0.2-5,0.1c-0.6-0.1-1.1,0.4-1.2,1l-3.2,24.1c-0.2,1.7-1,3.4-2.1,4.8
		c-1.8,2.2-2.7,5.1-2.3,7.9v40.9c0,0-0.2,5.5,4,5.5c5,0.6,10.1,0.6,15.1,0c0,0,3.4-0.6,3.4-5.7v-40.3c0.5-2.8-0.2-5.8-2.1-8
		c-1.1-1.4-1.8-3-2-4.7l-3.3-24.6C627.5,172.4,627,171.9,626.4,172z"/>
	<path class="st4" d="M626.4,172c-1.7,0.2-3.4,0.2-5,0.1c-0.6-0.1-1.1,0.4-1.2,1l-3.2,24.1c-0.2,1.7-1,3.4-2.1,4.8
		c-1.8,2.2-2.7,5.1-2.3,7.9v40.9c0,0-0.2,5.5,4,5.5c5,0.6,10.1,0.6,15.1,0c0,0,3.4-0.6,3.4-5.7v-40.3c0.5-2.8-0.2-5.8-2.1-8
		c-1.1-1.4-1.8-3-2-4.7l-3.3-24.6C627.5,172.4,627,171.9,626.4,172z"/>
	<path class="st9" d="M621.4,210.6h5.1c4.2,0,7.6,3.4,7.6,7.6v19.2c0,4.2-3.4,7.6-7.6,7.6h-5.1c-4.2,0-7.6-3.4-7.6-7.6v-19.2
		C613.8,214,617.2,210.6,621.4,210.6z"/>
	<path class="st5" d="M694.9,67.8c-1.5,0.8-3,1.5-4.6,2.1c-0.6,0.2-0.9,0.8-0.8,1.3l6.3,23.5c0.5,1.7,0.4,3.5-0.1,5.2
		c-0.9,2.8-0.5,5.7,0.9,8.2l15.8,37.8c0,0,1.9,5.1,5.8,3.5c4.9-1.4,9.6-3.3,14-5.8c0,0,2.9-1.9,0.9-6.5l-15.5-37.2
		c-0.6-2.8-2.4-5.2-5-6.6c-1.5-0.9-2.8-2.1-3.7-3.6l-12.6-21.4C696.1,67.7,695.4,67.6,694.9,67.8z"/>
	<path class="st9" d="M705.1,105.4l4.7-2c3.9-1.6,8.4,0.2,10,4.1l7.4,17.7c1.6,3.9-0.2,8.4-4.1,10l-4.7,2c-3.9,1.6-8.4-0.2-10-4.1
		l-7.4-17.7C699.4,111.5,701.2,107.1,705.1,105.4z"/>
	<path class="st6" d="M501,212.7c-7.4,3.1-10.4,12.6-8.6,20.4c1.7,7.8,7,14.4,12.1,20.6l14.3,17.5c4,4.8,8.3,9.9,14.3,11.6
		c8.8,2.5,17.7-3.2,25.3-8.2c22.8-15.2,47.2-27.9,72.7-37.8c2.5-1,5-1.9,7.1-3.7c4.3-3.6,5.4-10.2,3.1-15.2s-7.9-8.3-13.5-8.3
		c-5.6,0-11,2.9-14.3,7.3c-1.6,2.1-2.8,4.5-4.3,6.7c-3.9,5.4-10,8.8-15.9,11.8c-14.3,7.3-29.1,13.8-44.2,19.3c-2.8,1-5.9,2-8.5,0.6
		c-1.6-0.8-2.7-2.4-3.6-3.9c-4.4-6.9-7.9-14.4-10.4-22.2c-1.9-5.9-3.4-12.3-7.9-16.4c-6.4-5.9-18.1-4.5-22.9,2.8
		c0,0-5.6,8.3-2.2,11.7C496.9,230.7,501,212.7,501,212.7z"/>
	<path class="st6" d="M888.6,184.1c1,2.7,1,5.6,0.9,8.5c-0.2,3.5-1.1,7.6-4.3,8.9c-2.1,0.8-4.7,0.2-6.6,1.5
		c-2.3,1.5-2.2,4.9-1.8,7.6c1,7.5,2.1,15.2,6.1,21.6c2.2,3.4,5.2,6.2,8.2,8.9c6,5.4,12.6,10.7,20.4,12.5c1.3,0.4,2.6,0.4,3.9,0.2
		c1.3-0.4,2.5-1.1,3.4-2.1c4.6-4.2,6.9-10.2,10-15.6c2.1-3.9,4.7-7.6,5.9-11.9c2-7.6-0.4-15.7-6.3-20.9c-1.3-1.2-2.8-2.1-4.1-3.3
		c-3.4-3.1-5.4-7.5-6.2-12.1c-0.8-4.5-0.7-9.2-0.3-13.8c-6.9-0.5-13.8,0.3-20.5,1.7c-3,0.6-7.2,0.9-9.9,2.3
		C884.2,179.8,887.7,181.8,888.6,184.1z"/>
	<path class="st4" d="M888.6,184.1c1,2.7,1,5.6,0.9,8.5c-0.2,3.5-1.1,7.6-4.3,8.9c-2.1,0.8-4.7,0.2-6.6,1.5
		c-2.3,1.5-2.2,4.9-1.8,7.6c1,7.5,2.1,15.2,6.1,21.6c2.2,3.4,5.2,6.2,8.2,8.9c6,5.4,12.6,10.7,20.4,12.5c1.3,0.4,2.6,0.4,3.9,0.2
		c1.3-0.4,2.5-1.1,3.4-2.1c4.6-4.2,6.9-10.2,10-15.6c2.1-3.9,4.7-7.6,5.9-11.9c2-7.6-0.4-15.7-6.3-20.9c-1.3-1.2-2.8-2.1-4.1-3.3
		c-3.4-3.1-5.4-7.5-6.2-12.1c-0.8-4.5-0.7-9.2-0.3-13.8c-6.9-0.5-13.8,0.3-20.5,1.7c-3,0.6-7.2,0.9-9.9,2.3
		C884.2,179.8,887.7,181.8,888.6,184.1z"/>
	<path class="st6" d="M850,204.5c-11.2-3.8-16.6-18.9-28.3-20.6c-1.9-0.3-3.7-0.2-5.6-0.6c-6.8-1.6-9.7-9.4-11.6-16.1
		c-6.6-22.2-15.2-44-27.4-63.7c-5.2-8.3-13.3-15.1-17-24.2c-0.9-2.1-1.3-4.4-2.8-6.1c-1.5-1.6-4.8-1.9-5.7,0.2
		c-0.2,0.7-0.3,1.5-0.2,2.3l0.8,8.6l-14.1-1.3c-1.3-0.2-2.6-0.1-3.9,0.3c-1.4,0.7-2.4,1.8-3.1,3.2c-4.8,8.9,0.3,20.6,8.7,26.3
		c9.8,6.6,23.8,7.6,30.3,17.4c3.9,5.9,3.9,13.4,6.5,19.9c1.2,3.1,3,6,4.4,9c2.7,5.8,4.1,12.1,6.2,18.1c3,8.6,7.4,16.6,11.9,24.6
		c3.4,6.2,6.9,12.4,12.2,17.2c3.5,3.1,7.5,5.4,11.6,7.6c10,5.5,21.8,10.7,32.4,6.5C855.8,223.9,853.4,213.3,850,204.5z"/>
	<path class="st6" d="M884.1,502c-0.8,9-6.3,17.2-7.6,25.9c-8.4-1.3-16.7-3-24.8-5c-1-0.2-2-0.5-3-0.7c4.5-12.4,0.6-26.4,1.8-39.6
		c0.1-1.3,0.3-2.5,0.5-3.8c10.4-3.5,19.8-8.3,30.7-6.9c0.2,2.2,0.4,4.4,0.6,6.6c0.4,4.4,0.9,8.8,1.3,13.2
		C884.2,495.1,884.3,498.6,884.1,502z"/>
	<path class="st6" d="M956.1,524.5c-4.1,1.2-8.3,2.3-12.7,3.2c-0.7,0.2-1.5,0.3-2.2,0.4c-4.5,0.8-9,1.5-13.6,1.9
		c-0.5-9.6-6.9-18.4-7.8-28.3c-0.2-2.4-0.2-4.9,0.1-7.4c0.1-1,0.2-1.9,0.3-2.9l1.9-19.9c1.6-0.2,3.1-0.3,4.7-0.2
		c9,0.2,17.2,4.1,26.1,7.1c0.7,4.2,0.9,8.4,0.7,12.7c-0.3,10.8-2.1,21.7,1.9,31.6C955.6,523.4,955.9,524,956.1,524.5z"/>
	<path class="st8" d="M839.5,372.9c1.2,9.4-3.6,18.5-5.7,27.7c-1.4,6.1-1.6,12.4-1.8,18.7l-1.1,37.7c-0.1,3.8-0.2,7.6,0.9,11.2
		c2.3,7.2,9.4,12.1,16.8,13.9c7.4,1.7,15.1,0.9,22.7-0.1c3.7-0.5,7.5-1.1,10.6-3.2c4.2-2.9,6-8.2,7.6-13.1l4.5-13.8
		c5.2,11.6,3,24.3,6.1,36.7c0.2,1.1,0.7,2.2,1.4,3.1c1.3,1.5,3.5,1.7,5.4,1.8c13.5,1,27.3,1.9,40.6-0.7c3.7-0.7,7.5-1.8,10-4.6
		c2.9-3.2,3.5-7.9,3.4-12.3c-0.2-14.9-5.6-29.3-6.8-44.2c-0.5-6.4-0.3-12.8-0.5-19.2c-0.2-4.8-0.6-9.6-1.3-14.4
		c-0.2-2.2-0.8-4.3-1.8-6.3c-2.1-3.9-6.4-6-10.5-7.6C908.5,371.6,873.6,371.7,839.5,372.9z"/>
	<circle class="st6" cx="898.1" cy="157.8" r="29.7"/>
	<path class="st10" d="M924,210.1c-2.2,4.8-5.7,9.7-10.8,10.9c-4.7,1.1-9.8-1.1-13.3-4.6c-3.5-3.4-5.8-7.8-8.2-12.1
		c-1.8-3.1-3.7-6.2-6.7-8.2c-4.1-2.7-9.4-2.6-14.2-1.8c-4.8,0.8-9.6,2.2-14.5,1.9c-6.1-0.4-12.3-3.5-18.1-1.4
		c1.9,8.3,1.2,17.5,1,26.1c0,1.3-0.2,2.6-0.6,3.9c-0.5,1.2-1.2,2.3-2,3.2l-5.5,7.1c5.9,4.4,11.1,10.2,13.1,17.3
		c1.2,4,0.8,8.3,0.8,12.6c-0.1,12.4,2.6,24.7,1.7,37.1c-1,14.5-6.8,28.1-9.8,42.3c-2.5,12.2-3,24.7-1.4,37
		c31,10.7,62.9,16.2,95.6,18c5.8,0.3,12,0.4,16.8-3c3.9-2.8,6.2-7.5,6.9-12.3c0.8-4.8,0.2-9.6-0.3-14.4c-1.4-13-2.8-25.9-4.3-38.9
		c-0.8-7.4-1.6-14.8-1.1-22.2c0.4-5.5,1.5-11,2.7-16.4l6.9-33.2c1-4.7,2-9.5,3.9-13.9c1.6-3.6,3.8-6.9,5.6-10.4
		c2.1-4.2,3.6-8.7,4.3-13.3c0.3-1.3,0.3-2.7-0.1-4.1c-0.7-2.3-3-3.6-5.1-4.7c-12.9-6.7-26.6-11.6-40.9-14.3
		C925.5,202.5,925.7,206.4,924,210.1z"/>
	<path class="st5" d="M921.1,190.2c3.5-6.6,9.9-11.3,13.7-17.7c4.2-7.4,4.5-16.5,0.8-24.2c-1.3-2.7-3.1-5.2-4.1-8
		c-1.2-3.2-1.3-6.7-2.6-9.9c-1.8-4.3-5.8-7.4-10.1-9.2s-9-2.4-13.6-3l-15.7-2.1c-2.3-0.3-4.6-0.6-6.8,0c-2.2,0.6-4.3,2.4-4.4,4.7
		c-0.2,2.7,2.2,5.2,1.6,7.9c-0.2,0.9-0.8,1.9-0.4,2.8c0.3,0.6,0.8,1.1,1.4,1.4c3.7,2.1,8.2,2.3,12.2,3.6c4,1.4,8.1,4.8,7.7,9
		c-0.2,2.3-1.7,4.6-0.7,6.7c1,1.9,3.5,2.2,5.4,2.8c6.5,1.9,11,8.9,10.1,15.6c-0.3,2.1-1,4.1-1.2,6.1c-0.5,7.3,0.6,9.4,6.6,13.6
		L921.1,190.2z"/>
	<path class="st3" d="M961.5,221.7c0,1.4-0.2,2.7-0.7,4c-2.2,4.6-8.8,4.3-13.1,6.9c-5.4,3.2-6.6,10.5-7.1,16.8
		c-0.6,7.1-1,14.4,0.5,21.4c1.5,7,5,13.9,10.9,18c7.2,5,16.9,5.2,25.1,2.1c8.2-3,15-8.9,20.9-15.3c5.6-6.1,10.7-12.9,13.7-20.6
		c0.5-1.4,1-2.8,0.6-4.2c-0.6-2.1-2.9-3-4.7-4.1c-4.3-2.6-7.1-7.1-8.6-11.9c-1.5-4.8-1.7-9.9-1.8-14.9c-0.1-5.2-0.1-10.9-3.4-14.9
		c-3.3-4-9.1-5.1-14.3-5.1c-4.3,0-16.1,0.4-19.1,4.1C957.9,207.2,961.7,217.3,961.5,221.7z"/>
	<path class="st4" d="M961.5,221.7c0,1.4-0.2,2.7-0.7,4c-2.2,4.6-8.8,4.3-13.1,6.9c-5.4,3.2-6.6,10.5-7.1,16.8
		c-0.6,7.1-1,14.4,0.5,21.4c1.5,7,5,13.9,10.9,18c7.2,5,16.9,5.2,25.1,2.1c8.2-3,15-8.9,20.9-15.3c5.6-6.1,10.7-12.9,13.7-20.6
		c0.5-1.4,1-2.8,0.6-4.2c-0.6-2.1-2.9-3-4.7-4.1c-4.3-2.6-7.1-7.1-8.6-11.9c-1.5-4.8-1.7-9.9-1.8-14.9c-0.1-5.2-0.1-10.9-3.4-14.9
		c-3.3-4-9.1-5.1-14.3-5.1c-4.3,0-16.1,0.4-19.1,4.1C957.9,207.2,961.7,217.3,961.5,221.7z"/>
	<path class="st3" d="M924.7,407.1c0.2,1.1,0.7,2,1.4,2.8c0.7,0.5,1.5,0.9,2.3,1.1c22.7,6.6,46.9,4,70.4,1.3
		c-3.2-9.8-6.4-19.7-7.3-29.9c-0.7-8.5,0.1-17.3-2.9-25.2c-0.9-2.3-52.4,8.5-57.5,9.3c-2.6,0.4-5.6,0.3-7.4,2.4
		c-2.2,2.5-2.4,8.5-2.6,11.6C920.3,389.4,922.1,398.5,924.7,407.1z"/>
	<path class="st3" d="M976.3,516.8c-4.1,1.9-8.4,3.7-12.9,5.3c-2.4,0.9-4.8,1.7-7.3,2.4c-4.1,1.2-8.3,2.3-12.7,3.2
		c-2.5-6.3-5-12.7-7.5-19c-1.8-4.7-3.7-9.4-5.2-14.1c-1.1-3.3-2-6.6-2.6-10c-2.3-11.4-1.7-23.2,1.7-34.4c9.6,1.8,18.9,3,28.4,4.3
		c5,0.7,10.1,1.5,15.2,2.5c0.4,3.3,0.8,6.7,1.1,10c0.5,5.1,0.9,10.3,1.2,15.4C976.4,493.9,976.6,505.3,976.3,516.8z"/>
	<path class="st4" d="M976.3,516.8c-4.1,1.9-8.4,3.7-12.9,5.3c-2.4,0.9-4.8,1.7-7.3,2.4c-4.1,1.2-8.3,2.3-12.7,3.2
		c-2.5-6.3-5-12.7-7.5-19c-1.8-4.7-3.7-9.4-5.2-14.1c-1.1-3.3-2-6.6-2.6-10c-2.3-11.4-1.7-23.2,1.7-34.4c9.6,1.8,18.9,3,28.4,4.3
		c5,0.7,10.1,1.5,15.2,2.5c0.4,3.3,0.8,6.7,1.1,10c0.5,5.1,0.9,10.3,1.2,15.4C976.4,493.9,976.6,505.3,976.3,516.8z"/>
	<path class="st3" d="M1029.4,486.8c0.1,4-1.1,8-2.1,12c-0.1,0.3-0.1,0.5-0.2,0.8c-2.5-0.8-4.7-2.4-6.1-4.6
		c-0.7-1.2-1.3-2.5-1.6-3.8c-3.1,2.1-6.3,4.2-9.5,6.3c-10.4,6.8-21.4,13.6-33.6,19.3c-4.1,1.9-8.4,3.7-12.9,5.3
		c-0.9-3.2-1.8-6.5-2.6-9.7c-0.9-3.4-1.6-6.8-2.1-10.2c-1-7.8-0.2-15.8,2.3-23.2l0,0l0.3-0.9c1.2-3.3,2.7-6.5,4.5-9.5
		c1.7-2.8,5.1-2.3,8.6-1.4c1.6,0.4,3.2,0.9,4.6,1.2c9,1.9,18.4-0.1,27.6,0.5c4.4,0.2,8.7,1.3,12.7,3.2c4.4,2.2,8,5.6,9.4,10.4
		c0.2,0.7,0.4,1.4,0.5,2.1C1029.4,485.2,1029.4,486,1029.4,486.8z"/>
	<path class="st3" d="M863.2,168.6c-14.3-13.8-30.5-25.5-47.1-36.5c-4.3-2.7-8.5-5.7-12.4-8.9c-4.1-3.5-7.8-7.5-12.2-10.6
		c-4.4-3.1-9.9-5.2-15.1-4.2c-5.3,1-10,6.1-9.2,11.4c0.7,4.7,4.9,7.8,8.8,10.5c7.3,5.1,14.7,10.2,22.6,14.1c2.8,1.3,5.4,2.7,8,4.3
		c5,3.3,8.6,8.3,12.3,12.9c14.2,17.6,31.5,32.4,51.1,43.5c0.2,0.1,8.4-17.5,8.1-19.8C877.4,180.1,866.9,172.2,863.2,168.6z"/>
	<path class="st5" d="M985.2,391.9c-11,0.7-21.6,4.4-32.4,6.8s-22.5,3.3-32.5-1.4l6.1,41.5c0.3,2.3,0.7,4.7,0.2,6.9
		c-0.5,2.2-1.7,4.2-1.6,6.4c0.2,3.5,3.5,6,6.6,7.6c9,4.8,19.1,7.1,29.3,6.7c-0.8,3-1.7,6-2.5,9.1c5.1,5.4,13.4,5.8,20.6,7.5
		c5.5,1.3,10.7,3.6,16.1,5.2c6.5,1.9,13.4,2.9,20.2,2.8c4.6,0,9.5-0.7,13.1-3.6c4.4-3.5,5.8-9.6,6.7-15.1c0.5-3.1,1-6.3,0.7-9.4
		c-0.4-3.6-1.8-7-3.1-10.4l-9.5-23c-1.7-4.1-3.5-8.3-5.5-12.4C1011,404.4,999.8,391,985.2,391.9z"/>
	<path class="st11" d="M993.7,248.4c1.7-4.4,6.1-7.1,10.9-6.6c2.8,0.4,5.2,1.9,7.6,3.4l13.2,8.2c2.2,1.3,4.3,2.7,6.3,4.3
		c9.1,7.5,12.6,19.9,13.6,31.7c1,11.8,0,23.8,2.3,35.4c-5.6,4.6-11.8,8.5-17.3,13.1c-2.9,2.4-5.9,4.8-8.1,7.9
		c-1.8,2.4-3,5.2-4.8,7.6c-3,3.7-7.3,6.2-12.1,6.7c3,1.8,4.7,5.2,5.5,8.5c0.8,3.4,1,6.9,1.9,10.3c1.2,4.6,3.8,8.8,4.7,13.5
		c0.6,3.2,0.3,6.6,0.5,9.9c1.1,17,14.4,31.9,13.6,48.9c-6.3-2.3-12.3-5.4-17.7-9.3c-2.5-1.8-4.8-3.7-7.2-5.6L989,422.2
		c-8.6-6.9-17.2-14-24-22.6c-4.3-5.4-7.7-11.5-12-16.9c-4.3-5.4-9.6-10.4-16.1-12.7c-1,1.4-2.7,2.4-3.6,3.9
		c-0.2,0.2-0.3,0.5-0.4,0.7c-0.1,0.6,0,1.3,0.2,1.9c0.8,2.8,1.2,5.7,1.4,8.6l0.4,5.2c0.2,1.4,0.2,2.8,0,4.1
		c-0.7,4.4-4.8,7.9-9.2,8.6c-0.6,0.1-1.3,0.1-1.9-0.1c-1.2-0.4-1.9-1.7-2.3-3c-1.7-5.9,0.9-12.1,1.1-18.3c0-1.6,0-3.1-0.2-4.7
		l-0.4-6.1c-4-0.8-6.3-5.1-7.4-9.1c-2.9-10.7-5.8-21.8-4.1-32.7c0.4-2.9,1.2-5.9,0.7-8.8c-0.7-3.9-3.5-7.1-5-10.8
		c-4.8-12,5.4-25.1,4.5-38c-0.4-5.4-3.8-10.1-5.9-15.2c-1.1-2.9-2.5-5.7-4.1-8.4c-2.1-3-5-5.4-7.7-7.9c-8.6-7.5-16.7-15.5-24.3-23.9
		c-3.9-0.4-7.6-2.1-10.5-4.8c-1.8-1.7-3.3-4-3.4-6.5c0-2.5,1.8-5.1,4.3-5.3c1.5-0.1,2.8,0.6,4.3,1c4.5,1,9-2.3,11-6.4
		c2-4.1,2-8.9,2-13.5c4.4-0.8,9,0.8,12,4.2c3.1,3.4,5.1,7.5,7.5,11.4c1,1.7,2.3,3.2,3.8,4.5c3.3,2.6,8.1,3.1,11,6.2
		c1.5,1.6,2.3,3.7,3.6,5.3c3.8,4.7,10.7,5.3,15.9,8.4c5.2,3.1,8.8,8.8,14.5,10.7c2.1,0.7,4.3,0.8,6.4,1.5c4.7,1.8,7.6,6.8,8.3,11.8
		c0.7,5-0.5,10.1-1.6,15l-2.7,11.6c-0.6,2.6-1,5.6,0.8,7.5c0.9,0.7,1.9,1.3,3.1,1.5c4.8,1.6,10.2,3.1,14.8,0.9
		c2.1-1.1,3.8-2.9,5.4-4.7C985.7,268.6,990.2,258.2,993.7,248.4z"/>
	<path class="st3" d="M1048.2,483.4c-1,6.3-4.4,12.5-10.1,15.4c-3.4,1.7-7.4,2-11,0.8c-2.5-0.8-4.7-2.4-6.1-4.6
		c-0.7-1.2-1.3-2.5-1.6-3.8c0-0.1,0-0.1,0-0.2c-0.5-2.4-0.7-4.9-0.6-7.4c0-3.9,0.2-7.7,0.7-11.6c0.4-3.2,1-6.4,1.9-9.6
		c1.3-4.5,3.1-8.8,4.8-13.1c0.9-2.3,1.7-4.6,2.4-6.9l0,0c0.4-1.4,0.8-2.8,1.1-4.2l0.1-0.5c0.1-0.3,0.1-0.6,0.2-0.9
		c0.7-3.9,0.9-8,2.7-11.6c4.1-8.3,12.2-6.2,13.5,1.5c0.1,0.6,0.1,1.2,0.2,1.8c0.2,9.8-3.7,19.3-1.9,29.1c0.5,2.4,1.1,4.7,1.9,7.1
		c0.6,2.1,1.2,4.3,1.6,6.5C1048.6,475.1,1048.7,479.3,1048.2,483.4z"/>
	<path class="st9" d="M1052,375c0.2,4,0,8,0.8,12c1.9,9.3,9,17.5,8.2,26.9c-0.2,2.3-1,4.8-3,5.9c-2,1.1-5.3,1-6,3.3
		c-0.2,0.6-0.1,1.3-0.3,2c-0.4,1.3-2.1,1.9-3.5,1.9c-1.4,0-2.8-0.5-4.2-0.4c-5,0.4-6.8,7.1-11.3,9.4c-3,1.5-6.9,0.7-9.4-1.6
		c-2.5-2.3-3.6-5.8-3.4-9.2c0.1-2.5,1-5,1.4-7.5c0.8-4.5,0.4-9.1,0-13.6c-0.6-6.6-1.2-13.4-3.4-19.7c-1-3-2.4-5.8-3.3-8.8
		c-1.3-4.3-1.6-8.8-1.7-13.2c-0.3-9.4,0.4-19.3,6-26.9c4.2-5.6,10.2-10.2,15-15.4c3-3.3,3.8-4.3,7.1-1.5c2.7,2.3,5.5,5.4,5.8,8.5
		c0.8,7.9,0,15.7,1.5,23.7C1049.7,358.7,1051.6,366.7,1052,375z"/>
	<circle class="st3" cx="980.3" cy="187.5" r="35.2"/>
	<path class="st5" d="M1012.6,254.9c0.8-1.1,1.7-2.3,3-2.5c1-0.1,2,0.1,2.9,0.6l9.3,3.9c2.5-4.1,4-8.8,4.3-13.7c0.2-3,0-6,0.5-8.9
		c0.8-4.3,3.4-8.2,4-12.6c0.5-3.5-0.4-7.1-0.9-10.6c-1.6-10.9,0.1-21.9-0.8-32.9c-0.9-10.9-5.3-22.7-15.1-27.7
		c-2.8-1.4-5.7-2.2-8.6-3.3c-6.4-2.4-12.2-6.3-18.5-9c-6.3-2.6-13.8-3.8-19.9-0.8c-6.1,3-9.7,11.6-5.7,17.1c1.3,1.8,3.2,3.1,5.1,4.4
		c3.7,2.7,7.5,6,8.4,10.5c1.5,8.1-6.9,14.5-9.3,22.5c-0.9,3.1-1,6.4-0.2,9.5c1,4.7,3.5,9.2,3.5,14c-0.1,5.3-3.2,10.1-3.8,15.3
		c-0.2,1.9-0.1,3.9-0.3,5.8c-0.4,2.5-1.2,5-2.2,7.3c-5.5,13.8-11.1,27.8-19.3,40.2c8.8,0.1,17.5-1.9,25.3-5.9
		c-1.1,5.3-3.3,10.4-6.3,14.9c7-0.8,13.8-3.2,19.8-6.9c-1.5,5.2-3.6,10.2-6.3,14.9c0.2-0.4,4.6-1.4,5.4-1.8c1.6-0.9,3-2.3,3.8-4.1
		c2.3-4.2,3.8-9.3,6-13.6C1001.1,272.4,1006.5,263.5,1012.6,254.9z"/>
	<path class="st5" d="M745.3,43.4c-1.7,0.2-3.4,0.2-5,0.1c-0.6-0.1-1.1,0.4-1.2,1l-3.2,24.1c-0.2,1.7-1,3.4-2.1,4.8
		c-1.8,2.2-2.7,5.1-2.3,7.9v40.9c0,0-0.2,5.5,4,5.5c5,0.6,10.1,0.6,15.1,0c0,0,3.4-0.6,3.4-5.7V81.8c0.5-2.8-0.2-5.8-2.1-8
		c-1.1-1.4-1.8-3-2-4.7l-3.3-24.6C746.4,43.8,745.9,43.4,745.3,43.4z"/>
	<path class="st9" d="M740.2,82.1h5.1c4.2,0,7.6,3.4,7.6,7.6v19.2c0,4.2-3.4,7.6-7.6,7.6h-5.1c-4.2,0-7.6-3.4-7.6-7.6V89.7
		C732.6,85.5,736,82.1,740.2,82.1z"/>
	<path class="st5" d="M793,78.7c-1.7,0.2-3.4,0.2-5,0.1c-0.6-0.1-1.1,0.4-1.2,1l-3.2,24.1c-0.2,1.7-1,3.4-2.1,4.8
		c-1.8,2.2-2.7,5.1-2.3,7.9v40.9c0,0-0.2,5.5,4,5.5c5,0.6,10.1,0.6,15.1,0c0,0,3.4-0.6,3.4-5.7V117c0.5-2.8-0.2-5.8-2.1-8
		c-1.1-1.4-1.8-3-2-4.7l-3.3-24.6C794.1,79.1,793.6,78.6,793,78.7z"/>
	<path class="st9" d="M787.9,117.3h5.1c4.2,0,7.6,3.4,7.6,7.6v19.2c0,4.2-3.4,7.6-7.6,7.6h-5.1c-4.2,0-7.6-3.4-7.6-7.6V125
		C780.3,120.7,783.7,117.3,787.9,117.3z"/>
	<g class="st12">
		<path class="st5" d="M739.4,491.6c0,0.7-0.1,1.5-0.3,2.2c-4.8-0.8-9.7-1.5-14.5-2.1c0-0.2,0-0.4,0-0.6c0-2.1,0.6-4.1,1.7-5.9
			c1.4-2.3,3.6-3.7,6-3.6s4.4,1.6,5.7,3.9C739,487.5,739.5,489.5,739.4,491.6z"/>
		
			<ellipse transform="matrix(3.160002e-02 -0.9995 0.9995 3.160002e-02 229.9123 1196.4878)" class="st5" cx="732.4" cy="479.6" rx="9.7" ry="7.4"/>
		
			<ellipse transform="matrix(3.160002e-02 -0.9995 0.9995 3.160002e-02 242.1192 1185.4059)" class="st5" cx="732.8" cy="467.8" rx="9.7" ry="7.4"/>
		
			<ellipse transform="matrix(3.160002e-02 -0.9995 0.9995 3.160002e-02 254.298 1174.3093)" class="st5" cx="733.2" cy="455.9" rx="9.7" ry="7.4"/>
		
			<ellipse transform="matrix(3.160002e-02 -0.9995 0.9995 3.160002e-02 266.4905 1163.241)" class="st5" cx="733.5" cy="444.1" rx="9.7" ry="7.4"/>
		<path class="st9" d="M708.4,362.2c-1-1.3-1.8-2.7-2.6-4.1l19.5-2.6l-21-0.5c-3.8-9-3.7-19.1,0.2-28.1l27.7,15.5l-25.4-19.9
			c10.3-16.6,32.1-21.8,48.8-11.5c16.6,10.3,21.8,32.1,11.5,48.8c-0.9,1.5-1.9,2.9-3,4.2c1.5,2,2.8,4.3,3.8,6.6l-25.6,12.3l27.2-8.2
			c3.5,11.5,0.9,23.9-6.8,33.1c11.6,15.8,8.2,37.9-7.5,49.6c-15.8,11.6-37.9,8.2-49.6-7.5c-9.7-13.2-9.1-31.3,1.4-43.8
			C697.3,392.9,697.8,374.8,708.4,362.2L708.4,362.2L708.4,362.2z"/>
		<path class="st4" d="M770.9,386.1c-0.2,7.9-3.2,15.6-8.3,21.7c11.6,15.8,8.2,37.9-7.5,49.6c-15.8,11.6-37.9,8.2-49.6-7.5
			c-9.7-13.2-9.1-31.3,1.4-43.8C702.4,399.9,771.1,382.1,770.9,386.1z"/>
	</g>
	<g>
		
			<image style="overflow:visible;opacity:0.75;enable-background:new    ;" width="711" height="326" xlink:href="3A871010.png"  transform="matrix(1.4298 0 0 1.4298 549.7269 115.5906)">
		</image>
		<g>
			<g>
				<path class="st13" d="M1304.2,131h11v49.8h30.9v9.3h-41.8V131z"/>
				<path class="st13" d="M1353.7,127.5h10.6v62.6h-10.6V127.5z"/>
				<path class="st13" d="M1420.3,170.9H1385c1.3,6.6,6.7,10.8,14.6,10.8c5.1,0,9-1.6,12.2-4.9l5.6,6.5c-4,4.8-10.4,7.3-18.1,7.3
					c-15.1,0-24.9-9.7-24.9-23.1c0-13.4,9.9-23,23.3-23c13.2,0,22.8,9.2,22.8,23.3C1420.5,168.6,1420.4,169.9,1420.3,170.9z
					 M1384.9,163.9h25.6c-0.8-6.5-5.8-11-12.7-11C1390.8,152.9,1385.9,157.3,1384.9,163.9z"/>
				<path class="st13" d="M1475.3,145v38.2c0,16.4-8.5,23.8-24.3,23.8c-8.4,0-16.8-2.2-21.9-6.4l4.7-7.9c4,3.3,10.4,5.4,16.6,5.4
					c10,0,14.3-4.6,14.3-13.7V182c-3.7,4-9,6-15.1,6c-12.9,0-22.8-8.8-22.8-21.8s9.9-21.7,22.8-21.7c6.3,0,11.9,2,15.6,6.5v-6
					L1475.3,145L1475.3,145z M1464.9,166.2c0-7.6-5.7-12.7-13.7-12.7c-8,0-13.8,5.1-13.8,12.7c0,7.7,5.7,12.9,13.8,12.9
					C1459.2,179.1,1464.9,173.9,1464.9,166.2z"/>
				<path class="st13" d="M1526.8,163.6v26.4h-10v-5.5c-2.5,3.9-7.4,6.1-14.2,6.1c-10.3,0-16.8-5.6-16.8-13.5
					c0-7.5,5.1-13.4,18.7-13.4h11.6v-0.7c0-6.2-3.7-9.8-11.2-9.8c-5.1,0-10.3,1.7-13.7,4.5l-4.1-7.7c4.8-3.7,11.8-5.6,19.1-5.6
					C1519.3,144.5,1526.8,150.6,1526.8,163.6z M1516.3,176v-5.2h-10.9c-7.2,0-9.1,2.7-9.1,6c0,3.8,3.2,6.2,8.6,6.2
					C1510,183,1514.5,180.6,1516.3,176z"/>
				<path class="st13" d="M719.3,290.7h14.5v9.8h-15.7l-2.2,18.2h-9.8l2.2-18.2h-18.1l-2.3,18.2h-9.8l2.3-18.2H666v-9.8h15.7
					l2.5-19.1h-14.5v-9.8h15.7l2.2-18.2h9.8l-2.2,18.2h18l2.3-18.2h9.8l-2.3,18.2h14.4l0.1,9.8h-15.7L719.3,290.7z M709.5,290.7
					l2.4-19.1h-18l-2.5,19.1H709.5z"/>
				<path class="st13" d="M744.5,281.2c0-22.4,17.2-38.6,40.2-38.6c12.2,0,22.7,4.4,29.7,12.5l-9,8.5c-5.5-5.9-12.2-8.8-20-8.8
					c-15.5,0-26.8,10.9-26.8,26.4s11.3,26.4,26.8,26.4c7.8,0,14.6-2.9,20-8.9l9,8.6c-7,8.1-17.5,12.5-29.8,12.5
					C761.7,319.8,744.5,303.6,744.5,281.2z"/>
				<path class="st13" d="M859.1,292.2v26.5h-13.9v-26.3l-29.5-48.8h14.9l22,36.6l22.2-36.6h13.7L859.1,292.2z"/>
				<path class="st13" d="M963.3,298.4c0,12.9-10.1,20.4-29.4,20.4h-37.3v-75.1h35.2c18,0,27.7,7.6,27.7,19.5
					c0,7.7-3.9,13.4-9.7,16.5C957.8,282.3,963.3,288.6,963.3,298.4z M910.5,254.6v20.7h19.7c9.7,0,15.1-3.4,15.1-10.3
					c0-7-5.5-10.4-15.1-10.4H910.5z M949.2,297c0-7.5-5.7-10.8-16.2-10.8h-22.5v21.7H933C943.5,307.8,949.2,304.5,949.2,297z"/>
				<path class="st13" d="M1034.5,307v11.7h-56.3v-75.1h54.8v11.7h-40.9v19.5h36.2v11.5h-36.2V307L1034.5,307L1034.5,307z"/>
				<path class="st13" d="M1099.1,318.7l-15.3-22c-1,0.1-1.9,0.1-2.9,0.1H1064v21.9H1050v-75.1h30.9c19.7,0,32,10.1,32,26.7
					c0,11.4-5.8,19.7-16,23.7l17.3,24.7L1099.1,318.7L1099.1,318.7z M1080.2,255.5h-16.3v29.9h16.3c12.2,0,18.5-5.6,18.5-15
					S1092.5,255.5,1080.2,255.5z"/>
				<path class="st13" d="M1142.3,255.4v22.8h36.2V290h-36.2v28.7h-13.9v-75.1h54.8v11.7L1142.3,255.4L1142.3,255.4z"/>
				<path class="st13" d="M1245.8,318.7l-15.3-22c-1,0.1-1.9,0.1-2.9,0.1h-16.9v21.9h-13.9v-75.1h30.9c19.7,0,32,10.1,32,26.7
					c0,11.4-5.8,19.7-16,23.7l17.3,24.7L1245.8,318.7L1245.8,318.7z M1226.9,255.5h-16.3v29.9h16.3c12.2,0,18.5-5.6,18.5-15
					S1239.2,255.5,1226.9,255.5z"/>
				<path class="st13" d="M1275.1,243.7h13.9v75.1h-13.9V243.7z"/>
				<path class="st13" d="M1309.3,243.7h32.8c24.3,0,41,15,41,37.5s-16.6,37.5-41,37.5h-32.8V243.7z M1341.5,306.9
					c16.7,0,27.6-10.2,27.6-25.7s-10.8-25.7-27.6-25.7h-18.2v51.5H1341.5z"/>
				<path class="st13" d="M1445.5,301.4h-37.5l-7.4,17.4h-14.4l33.8-75.1h13.7l33.9,75.1H1453L1445.5,301.4z M1440.9,290.4
					l-14.2-32.8l-14,32.8H1440.9z"/>
				<path class="st13" d="M1505,292.2v26.5h-13.9v-26.3l-29.5-48.8h14.9l22,36.6l22.2-36.6h13.7L1505,292.2z"/>
				<path class="st13" d="M1073.7,377.1h10.5c7.8,0,13.1,4.8,13.1,12s-5.3,12-13.1,12h-10.5V377.1z M1084,397.3
					c5.3,0,8.8-3.3,8.8-8.2c0-5-3.5-8.2-8.8-8.2h-5.8v16.5L1084,397.3L1084,397.3z"/>
				<path class="st13" d="M1118.8,393.3h-14.4c0.5,2.7,2.7,4.4,5.9,4.4c2.1,0,3.7-0.7,5-2l2.3,2.6c-1.6,2-4.2,3-7.4,3
					c-6.1,0-10.1-3.9-10.1-9.4s4-9.4,9.5-9.4c5.3,0,9.3,3.7,9.3,9.5C1118.8,392.4,1118.8,392.9,1118.8,393.3z M1104.3,390.4h10.4
					c-0.3-2.6-2.4-4.5-5.2-4.5C1106.8,386,1104.7,387.8,1104.3,390.4z"/>
				<path class="st13" d="M1120.8,399.3l1.6-3.3c1.6,1.1,4.1,1.8,6.4,1.8c2.7,0,3.8-0.8,3.8-2c0-3.5-11.3-0.2-11.3-7.5
					c0-3.5,3.1-5.7,8.1-5.7c2.4,0,5.2,0.6,6.9,1.6l-1.6,3.3c-1.7-1-3.5-1.4-5.2-1.4c-2.6,0-3.8,0.9-3.8,2.1c0,3.7,11.3,0.4,11.3,7.6
					c0,3.4-3.2,5.7-8.3,5.7C1125.6,401.3,1122.5,400.4,1120.8,399.3z"/>
				<path class="st13" d="M1139.1,391.9c0-5.5,4.1-9.4,9.9-9.4c3.6,0,6.4,1.5,7.8,4.3l-3.3,1.9c-1.1-1.7-2.7-2.5-4.6-2.5
					c-3.2,0-5.6,2.2-5.6,5.7c0,3.6,2.4,5.7,5.6,5.7c1.8,0,3.5-0.8,4.6-2.5l3.3,1.9c-1.4,2.7-4.3,4.3-7.8,4.3
					C1143.2,401.3,1139.1,397.4,1139.1,391.9z"/>
				<path class="st13" d="M1178.3,382.8v18.3h-4.1v-2.3c-1.4,1.7-3.5,2.6-5.9,2.6c-4.7,0-7.9-2.6-7.9-8.1v-10.5h4.3v9.9
					c0,3.3,1.6,4.9,4.3,4.9c3,0,5-1.9,5-5.5v-9.3L1178.3,382.8L1178.3,382.8z"/>
				<path class="st13" d="M1201.1,393.3h-14.4c0.5,2.7,2.7,4.4,5.9,4.4c2.1,0,3.7-0.7,5-2l2.3,2.6c-1.6,2-4.2,3-7.4,3
					c-6.1,0-10.1-3.9-10.1-9.4s4-9.4,9.5-9.4c5.3,0,9.3,3.7,9.3,9.5C1201.1,392.4,1201.1,392.9,1201.1,393.3z M1186.7,390.4h10.4
					c-0.3-2.6-2.4-4.5-5.2-4.5C1189.1,386,1187.1,387.8,1186.7,390.4z"/>
				<path class="st13" d="M1223.3,390.6v10.5h-4.3v-10c0-3.3-1.6-4.8-4.4-4.8c-3.1,0-5.1,1.9-5.1,5.5v9.3h-4.3v-18.3h4.1v2.4
					c1.4-1.7,3.6-2.6,6.3-2.6C1220,382.6,1223.3,385.1,1223.3,390.6z"/>
				<path class="st13" d="M1239.8,400.1c-1,0.8-2.6,1.2-4.1,1.2c-4,0-6.3-2.1-6.3-6.2v-8.8h-3v-3.4h3v-4.2h4.3v4.2h4.9v3.4h-4.9v8.7
					c0,1.8,0.9,2.7,2.5,2.7c0.9,0,1.7-0.2,2.4-0.8L1239.8,400.1z"/>
				<path class="st13" d="M1241.2,391.9c0-5.5,4.1-9.4,9.8-9.4c5.7,0,9.8,3.9,9.8,9.4s-4.1,9.4-9.8,9.4
					C1245.3,401.3,1241.2,397.4,1241.2,391.9z M1256.4,391.9c0-3.5-2.3-5.7-5.5-5.7c-3.1,0-5.4,2.2-5.4,5.7s2.3,5.7,5.4,5.7
					C1254.1,397.7,1256.4,395.4,1256.4,391.9z"/>
				<path class="st13" d="M1262.7,399.3l1.6-3.3c1.6,1.1,4.1,1.8,6.4,1.8c2.7,0,3.8-0.8,3.8-2c0-3.5-11.3-0.2-11.3-7.5
					c0-3.5,3.1-5.7,8.1-5.7c2.4,0,5.2,0.6,6.9,1.6l-1.6,3.3c-1.7-1-3.5-1.4-5.2-1.4c-2.6,0-3.8,0.9-3.8,2.1c0,3.7,11.3,0.4,11.3,7.6
					c0,3.4-3.2,5.7-8.3,5.7C1267.4,401.3,1264.4,400.4,1262.7,399.3z"/>
				<path class="st13" d="M1311.4,391.9c0,5.7-3.9,9.4-9.3,9.4c-2.3,0-4.4-0.8-5.9-2.5v8.9h-4.3v-25h4.1v2.4
					c1.4-1.7,3.6-2.6,6.1-2.6C1307.5,382.6,1311.4,386.3,1311.4,391.9z M1307.1,391.9c0-3.5-2.3-5.7-5.4-5.7s-5.5,2.2-5.5,5.7
					s2.4,5.7,5.5,5.7S1307.1,395.4,1307.1,391.9z"/>
				<path class="st13" d="M1330.6,390.3v10.7h-4v-2.2c-1,1.6-3,2.5-5.8,2.5c-4.2,0-6.8-2.3-6.8-5.5c0-3.1,2.1-5.5,7.6-5.5h4.7v-0.3
					c0-2.5-1.5-4-4.6-4c-2.1,0-4.2,0.7-5.6,1.8l-1.7-3.1c2-1.5,4.8-2.3,7.7-2.3C1327.6,382.6,1330.6,385.1,1330.6,390.3z
					 M1326.3,395.4v-2.1h-4.4c-2.9,0-3.7,1.1-3.7,2.4c0,1.5,1.3,2.5,3.5,2.5C1323.8,398.2,1325.6,397.2,1326.3,395.4z"/>
				<path class="st13" d="M1346.7,382.6v4.1c-0.4-0.1-0.7-0.1-1-0.1c-3.3,0-5.3,1.9-5.3,5.7v8.9h-4.3v-18.3h4.1v2.7
					C1341.4,383.5,1343.6,382.6,1346.7,382.6z"/>
				<path class="st13" d="M1365.6,390.3v10.7h-4v-2.2c-1,1.6-3,2.5-5.8,2.5c-4.2,0-6.8-2.3-6.8-5.5c0-3.1,2.1-5.5,7.6-5.5h4.7v-0.3
					c0-2.5-1.5-4-4.6-4c-2.1,0-4.2,0.7-5.6,1.8l-1.7-3.1c2-1.5,4.8-2.3,7.7-2.3C1362.5,382.6,1365.6,385.1,1365.6,390.3z
					 M1361.3,395.4v-2.1h-4.4c-2.9,0-3.7,1.1-3.7,2.4c0,1.5,1.3,2.5,3.5,2.5C1358.7,398.2,1360.6,397.2,1361.3,395.4z"/>
				<path class="st13" d="M1397.7,393.3h-14.4c0.5,2.7,2.7,4.4,5.9,4.4c2.1,0,3.7-0.7,5-2l2.3,2.6c-1.6,2-4.2,3-7.4,3
					c-6.1,0-10.1-3.9-10.1-9.4s4-9.4,9.5-9.4c5.3,0,9.3,3.7,9.3,9.5C1397.8,392.4,1397.7,392.9,1397.7,393.3z M1383.3,390.4h10.4
					c-0.3-2.6-2.4-4.5-5.2-4.5C1385.7,386,1383.7,387.8,1383.3,390.4z"/>
				<path class="st13" d="M1432.5,390.6v10.5h-4.3v-10c0-3.3-1.5-4.8-4.1-4.8c-2.8,0-4.8,1.9-4.8,5.5v9.3h-4.3v-10
					c0-3.3-1.5-4.8-4.1-4.8c-2.8,0-4.8,1.9-4.8,5.5v9.3h-4.3v-18.3h4.1v2.3c1.4-1.6,3.5-2.5,6-2.5c2.7,0,4.9,1,6.2,3.1
					c1.5-1.9,3.9-3.1,6.9-3.1C1429.4,382.6,1432.5,385.1,1432.5,390.6z"/>
				<path class="st13" d="M1457.5,391.9c0,5.7-3.9,9.4-9.3,9.4c-2.3,0-4.4-0.8-5.9-2.5v8.9h-4.3v-25h4.1v2.4
					c1.4-1.7,3.6-2.6,6.1-2.6C1453.5,382.6,1457.5,386.3,1457.5,391.9z M1453.1,391.9c0-3.5-2.3-5.7-5.4-5.7s-5.5,2.2-5.5,5.7
					s2.4,5.7,5.5,5.7S1453.1,395.4,1453.1,391.9z"/>
				<path class="st13" d="M1478.7,393.3h-14.4c0.5,2.7,2.7,4.4,5.9,4.4c2.1,0,3.7-0.7,5-2l2.3,2.6c-1.6,2-4.2,3-7.4,3
					c-6.1,0-10.1-3.9-10.1-9.4s4-9.4,9.5-9.4c5.3,0,9.3,3.7,9.3,9.5C1478.8,392.4,1478.7,392.9,1478.7,393.3z M1464.3,390.4h10.4
					c-0.3-2.6-2.4-4.5-5.2-4.5C1466.7,386,1464.7,387.8,1464.3,390.4z"/>
				<path class="st13" d="M1497,397.7v3.4h-15.8v-2.7l10.1-12.2h-9.9v-3.4h15.3v2.7l-10.1,12.2H1497z"/>
				<path class="st13" d="M1516.3,390.3v10.7h-4v-2.2c-1,1.6-3,2.5-5.8,2.5c-4.2,0-6.8-2.3-6.8-5.5c0-3.1,2.1-5.5,7.6-5.5h4.7v-0.3
					c0-2.5-1.5-4-4.6-4c-2.1,0-4.2,0.7-5.6,1.8l-1.7-3.1c2-1.5,4.8-2.3,7.7-2.3C1513.3,382.6,1516.3,385.1,1516.3,390.3z
					 M1512,395.4v-2.1h-4.4c-2.9,0-3.7,1.1-3.7,2.4c0,1.5,1.3,2.5,3.5,2.5C1509.5,398.2,1511.3,397.2,1512,395.4z"/>
				<path class="st13" d="M1532.4,382.6v4.1c-0.4-0.1-0.7-0.1-1-0.1c-3.3,0-5.3,1.9-5.3,5.7v8.9h-4.3v-18.3h4.1v2.7
					C1527.1,383.5,1529.4,382.6,1532.4,382.6z"/>
				<path class="st13" d="M1093.6,434.5h-14.4c0.5,2.7,2.7,4.4,5.9,4.4c2.1,0,3.7-0.7,5-2l2.3,2.6c-1.6,2-4.2,3-7.4,3
					c-6.1,0-10.1-3.9-10.1-9.4s4-9.4,9.5-9.4c5.3,0,9.3,3.7,9.3,9.5C1093.7,433.5,1093.7,434.1,1093.6,434.5z M1079.2,431.6h10.4
					c-0.3-2.6-2.4-4.5-5.2-4.5C1081.7,427.2,1079.6,429,1079.2,431.6z"/>
				<path class="st13" d="M1097.8,416.8h4.3v25.5h-4.3V416.8z"/>
				<path class="st13" d="M1124.3,416.6c1.5,0,2.9,0.3,3.9,1l-1.2,3.2c-0.7-0.4-1.5-0.8-2.4-0.8c-1.8,0-2.7,1-2.7,2.9v1.1h5v3.4
					h-4.9v14.8h-4.3v-14.8h-3v-3.4h3v-1.2C1117.8,419.1,1120.1,416.6,1124.3,416.6z M1132,418.3c0-1.4,1.2-2.6,2.7-2.6
					s2.7,1.1,2.7,2.5c0,1.5-1.1,2.7-2.7,2.7C1133.2,420.9,1132,419.8,1132,418.3z M1132.6,423.9h4.3v18.3h-4.3V423.9z"/>
				<path class="st13" d="M1160.6,431.8v10.5h-4.3v-10c0-3.3-1.6-4.8-4.4-4.8c-3.1,0-5.1,1.9-5.1,5.5v9.3h-4.3v-18.3h4.1v2.4
					c1.4-1.7,3.6-2.6,6.3-2.6C1157.3,423.7,1160.6,426.2,1160.6,431.8z"/>
				<path class="st13" d="M1193.5,416.8v25.5h-4.1v-2.4c-1.4,1.7-3.6,2.6-6.1,2.6c-5.3,0-9.3-3.7-9.3-9.4s3.9-9.4,9.3-9.4
					c2.4,0,4.5,0.8,5.9,2.5v-9.4L1193.5,416.8L1193.5,416.8z M1189.2,433.1c0-3.5-2.4-5.7-5.5-5.7s-5.5,2.2-5.5,5.7
					c0,3.5,2.4,5.7,5.5,5.7S1189.2,436.6,1189.2,433.1z"/>
				<path class="st13" d="M1216.2,434.5h-14.4c0.5,2.7,2.7,4.4,5.9,4.4c2.1,0,3.7-0.7,5-2l2.3,2.6c-1.6,2-4.2,3-7.4,3
					c-6.1,0-10.1-3.9-10.1-9.4s4-9.4,9.5-9.4c5.3,0,9.3,3.7,9.3,9.5C1216.3,433.5,1216.3,434.1,1216.2,434.5z M1201.8,431.6h10.4
					c-0.3-2.6-2.4-4.5-5.2-4.5C1204.3,427.2,1202.2,429,1201.8,431.6z"/>
				<path class="st13" d="M1227.8,440.4l1.6-3.3c1.6,1.1,4.1,1.8,6.4,1.8c2.7,0,3.8-0.8,3.8-2c0-3.5-11.3-0.2-11.3-7.5
					c0-3.5,3.1-5.7,8.1-5.7c2.4,0,5.2,0.6,6.9,1.6l-1.6,3.3c-1.7-1-3.5-1.4-5.2-1.4c-2.6,0-3.8,0.9-3.8,2.1c0,3.7,11.3,0.4,11.3,7.6
					c0,3.4-3.2,5.7-8.3,5.7C1232.5,442.5,1229.5,441.6,1227.8,440.4z"/>
				<path class="st13" d="M1264.7,434.5h-14.4c0.5,2.7,2.7,4.4,5.9,4.4c2.1,0,3.7-0.7,5-2l2.3,2.6c-1.6,2-4.2,3-7.4,3
					c-6.1,0-10.1-3.9-10.1-9.4s4-9.4,9.5-9.4c5.3,0,9.3,3.7,9.3,9.5C1264.8,433.5,1264.8,434.1,1264.7,434.5z M1250.3,431.6h10.4
					c-0.3-2.6-2.4-4.5-5.2-4.5C1252.8,427.2,1250.7,429,1250.3,431.6z"/>
				<path class="st13" d="M1299.6,431.8v10.5h-4.3v-10c0-3.3-1.5-4.8-4.1-4.8c-2.8,0-4.8,1.9-4.8,5.5v9.3h-4.3v-10
					c0-3.3-1.5-4.8-4.1-4.8c-2.8,0-4.8,1.9-4.8,5.5v9.3h-4.3v-18.3h4.1v2.3c1.4-1.6,3.5-2.5,6-2.5c2.7,0,4.9,1,6.2,3.1
					c1.5-1.9,3.9-3.1,6.9-3.1C1296.5,423.7,1299.6,426.2,1299.6,431.8z"/>
				<path class="st13" d="M1320.4,431.5v10.7h-4V440c-1,1.6-3,2.5-5.8,2.5c-4.2,0-6.8-2.3-6.8-5.5c0-3.1,2.1-5.5,7.6-5.5h4.7v-0.3
					c0-2.5-1.5-4-4.6-4c-2.1,0-4.2,0.7-5.6,1.8l-1.7-3.1c2-1.5,4.8-2.3,7.7-2.3C1317.3,423.7,1320.4,426.2,1320.4,431.5z
					 M1316.1,436.5v-2.1h-4.4c-2.9,0-3.7,1.1-3.7,2.4c0,1.5,1.3,2.5,3.5,2.5C1313.6,439.4,1315.4,438.4,1316.1,436.5z"/>
				<path class="st13" d="M1343.9,431.8v10.5h-4.3v-10c0-3.3-1.6-4.8-4.4-4.8c-3.1,0-5.1,1.9-5.1,5.5v9.3h-4.3v-18.3h4.1v2.4
					c1.4-1.7,3.6-2.6,6.3-2.6C1340.7,423.7,1343.9,426.2,1343.9,431.8z"/>
				<path class="st13" d="M1364.7,431.5v10.7h-4V440c-1,1.6-3,2.5-5.8,2.5c-4.2,0-6.8-2.3-6.8-5.5c0-3.1,2.1-5.5,7.6-5.5h4.7v-0.3
					c0-2.5-1.5-4-4.6-4c-2.1,0-4.2,0.7-5.6,1.8l-1.7-3.1c2-1.5,4.8-2.3,7.7-2.3C1361.7,423.7,1364.7,426.2,1364.7,431.5z
					 M1360.4,436.5v-2.1h-4.4c-2.9,0-3.7,1.1-3.7,2.4c0,1.5,1.3,2.5,3.5,2.5C1357.9,439.4,1359.7,438.4,1360.4,436.5z"/>
				<path class="st13" d="M1378.2,433.1c0-5.5,4.1-9.4,9.9-9.4c3.6,0,6.4,1.5,7.8,4.3l-3.3,1.9c-1.1-1.7-2.7-2.5-4.6-2.5
					c-3.2,0-5.6,2.2-5.6,5.7c0,3.6,2.4,5.7,5.6,5.7c1.8,0,3.5-0.8,4.6-2.5l3.3,1.9c-1.4,2.7-4.3,4.3-7.8,4.3
					C1382.3,442.5,1378.2,438.6,1378.2,433.1z"/>
				<path class="st13" d="M1397.8,433.1c0-5.5,4.1-9.4,9.8-9.4c5.7,0,9.8,3.9,9.8,9.4s-4.1,9.4-9.8,9.4
					C1402,442.5,1397.8,438.6,1397.8,433.1z M1413,433.1c0-3.5-2.3-5.7-5.5-5.7c-3.1,0-5.4,2.2-5.4,5.7c0,3.5,2.3,5.7,5.4,5.7
					C1410.7,438.8,1413,436.6,1413,433.1z"/>
				<path class="st13" d="M1439.5,431.8v10.5h-4.3v-10c0-3.3-1.6-4.8-4.4-4.8c-3.1,0-5.1,1.9-5.1,5.5v9.3h-4.3v-18.3h4.1v2.4
					c1.4-1.7,3.6-2.6,6.3-2.6C1436.3,423.7,1439.5,426.2,1439.5,431.8z"/>
				<path class="st13" d="M1465.5,441.3c-1,0.8-2.6,1.2-4.1,1.2c-4,0-6.3-2.1-6.3-6.2v-8.8h-3v-3.4h3v-4.2h4.3v4.2h4.9v3.4h-4.9v8.7
					c0,1.8,0.9,2.7,2.5,2.7c0.9,0,1.7-0.2,2.4-0.8L1465.5,441.3z"/>
				<path class="st13" d="M1466.9,433.1c0-5.5,4.1-9.4,9.8-9.4c5.7,0,9.8,3.9,9.8,9.4s-4.1,9.4-9.8,9.4
					C1471,442.5,1466.9,438.6,1466.9,433.1z M1482.1,433.1c0-3.5-2.3-5.7-5.5-5.7c-3.1,0-5.4,2.2-5.4,5.7c0,3.5,2.3,5.7,5.4,5.7
					C1479.7,438.8,1482.1,436.6,1482.1,433.1z"/>
				<path class="st13" d="M1508.5,416.8v25.5h-4.1v-2.4c-1.4,1.7-3.6,2.6-6.1,2.6c-5.3,0-9.3-3.7-9.3-9.4s3.9-9.4,9.3-9.4
					c2.4,0,4.5,0.8,5.9,2.5v-9.4L1508.5,416.8L1508.5,416.8z M1504.2,433.1c0-3.5-2.4-5.7-5.5-5.7s-5.5,2.2-5.5,5.7
					c0,3.5,2.4,5.7,5.5,5.7S1504.2,436.6,1504.2,433.1z"/>
				<path class="st13" d="M1512.6,433.1c0-5.5,4.1-9.4,9.8-9.4c5.7,0,9.8,3.9,9.8,9.4s-4.1,9.4-9.8,9.4
					C1516.7,442.5,1512.6,438.6,1512.6,433.1z M1527.8,433.1c0-3.5-2.3-5.7-5.5-5.7c-3.1,0-5.4,2.2-5.4,5.7c0,3.5,2.3,5.7,5.4,5.7
					C1525.5,438.8,1527.8,436.6,1527.8,433.1z"/>
			</g>
		</g>
	</g>
</g>
</svg>
