<?xml version="1.0" encoding="utf-8"?>
<!-- Generator: Adobe Illustrator 24.0.0, SVG Export Plug-In . SVG Version: 6.00 Build 0)  -->
<svg version="1.1" id="Layer_1" xmlns="http://www.w3.org/2000/svg" xmlns:xlink="http://www.w3.org/1999/xlink" x="0px" y="0px"
	 viewBox="0 0 1920 600" style="enable-background:new 0 0 1920 600;" xml:space="preserve">
<style type="text/css">
	.st0{fill:#237C22;}
	.st1{fill:#FFFFFF;}
	.st2{fill:#E6E6E6;}
	.st3{fill:#B3B3B3;stroke:#B3B3B3;stroke-width:5;stroke-miterlimit:10;}
	.st4{fill:#A3C5A1;}
	.st5{fill:#2F2E41;}
	.st6{fill:#3F3D56;}
	.st7{fill:#CCCCCC;}
	.st8{fill:#B3B3B3;}
</style>
<g id="Layer_1_1_">
	<g>
		<rect x="0.5" y="0.8" class="st0" width="1919" height="598.5"/>
		<path class="st0" d="M1919,1.5v597H1V1.5H1919 M1920,0H0v600h1920V0L1920,0z"/>
	</g>
</g>
<g id="Layer_2_1_">
	<g>
		
			<image style="overflow:visible;opacity:0.75;enable-background:new    ;" width="710" height="326" xlink:href="8078BBC9.png"  transform="matrix(1.3762 0 0 1.3762 304.6419 105.6022)">
		</image>
		<g>
			<g>
				<path class="st1" d="M366.4,154.7v49.1h-9.1v-21.1h-25.4v21.1h-9.1v-49.1h9.1V175h25.4v-20.3H366.4z"/>
				<path class="st1" d="M410.1,181.9v22h-8.3v-4.6c-2.1,3.2-6.2,5.1-11.8,5.1c-8.6,0-14-4.7-14-11.2c0-6.2,4.2-11.2,15.6-11.2h9.7
					v-0.6c0-5.1-3.1-8.1-9.3-8.1c-4.2,0-8.6,1.4-11.4,3.7l-3.4-6.4c4-3.1,9.8-4.6,15.9-4.6C403.9,165.9,410.1,171.1,410.1,181.9z
					 M401.3,192.1v-4.3h-9.1c-6,0-7.6,2.2-7.6,5c0,3.2,2.7,5.2,7.2,5.2C396.1,197.9,399.9,196,401.3,192.1z"/>
				<path class="st1" d="M417.1,200.1l3.4-6.7c3.3,2.2,8.4,3.7,13.1,3.7c5.5,0,7.9-1.5,7.9-4.1c0-7.2-23.2-0.4-23.2-15.4
					c0-7.1,6.4-11.7,16.5-11.7c5,0,10.7,1.2,14,3.2l-3.4,6.7c-3.6-2.1-7.2-2.8-10.7-2.8c-5.3,0-7.9,1.7-7.9,4.2
					c0,7.6,23.2,0.8,23.2,15.5c0,7-6.5,11.6-17,11.6C426.7,204.3,420.4,202.5,417.1,200.1z"/>
				<path class="st1" d="M480,201.8c-2.1,1.7-5.3,2.5-8.4,2.5c-8.2,0-12.9-4.3-12.9-12.6v-18h-6.2v-7h6.2v-8.6h8.8v8.6h10v7h-10
					v17.8c0,3.6,1.8,5.6,5.2,5.6c1.8,0,3.6-0.5,4.9-1.5L480,201.8z"/>
				<path class="st1" d="M518.6,181.9v22h-8.3v-4.6c-2.1,3.2-6.2,5.1-11.8,5.1c-8.6,0-14-4.7-14-11.2c0-6.2,4.2-11.2,15.6-11.2h9.7
					v-0.6c0-5.1-3.1-8.1-9.3-8.1c-4.2,0-8.6,1.4-11.4,3.7l-3.4-6.4c4-3.1,9.8-4.6,15.9-4.6C512.4,165.9,518.6,171.1,518.6,181.9z
					 M509.8,192.1v-4.3h-9.1c-6,0-7.6,2.2-7.6,5c0,3.2,2.7,5.2,7.2,5.2C504.6,197.9,508.4,196,509.8,192.1z"/>
				<path class="st1" d="M585.5,166.3v37.5h-8.4V199c-2.8,3.4-7.2,5.3-12.1,5.3c-9.6,0-16.1-5.3-16.1-16.6v-21.4h8.8v20.2
					c0,6.8,3.2,10,8.8,10c6.1,0,10.3-3.8,10.3-11.3v-19H585.5z"/>
				<path class="st1" d="M633.9,182.4v21.5h-8.8v-20.4c0-6.7-3.3-9.9-8.9-9.9c-6.2,0-10.5,3.8-10.5,11.3v19H597v-37.5h8.4v4.8
					c2.9-3.4,7.4-5.3,12.9-5.3C627.3,165.9,633.9,171.1,633.9,182.4z"/>
				<path class="st1" d="M727.6,182.4v21.4H662v-17l29.6-27.4c5.6-5.3,6.4-8.4,6.4-11.2c0-4-2.7-6.4-8-6.4c-4.9,0-9.6,2.7-12.1,7.6
					L657.2,139c6-11.2,17.8-19,35.5-19c19.4,0,33.1,10.1,33.1,25.6c0,8.1-2.1,15.3-14,26.1L700,182.4L727.6,182.4L727.6,182.4z"/>
				<path class="st1" d="M733.2,162.9c0-27.1,15.4-42.8,37.1-42.8c21.6,0,37.1,15.7,37.1,42.8s-15.4,42.8-37.1,42.8
					C748.7,205.7,733.2,190,733.2,162.9z M779.7,162.9c0-15.8-4-20.7-9.4-20.7c-5.4,0-9.4,4.9-9.4,20.7s4,20.7,9.4,20.7
					C775.7,183.6,779.7,178.7,779.7,162.9z"/>
				<path class="st1" d="M812.6,143.6c0-14.5,9.4-22.8,21.8-22.8s21.8,8.3,21.8,22.8c0,14.6-9.4,22.8-21.8,22.8
					S812.6,158.2,812.6,143.6z M882.5,121.9h19.8l-55.9,81.9h-19.8L882.5,121.9z M839.6,143.6c0-7.8-2.6-10.2-5.1-10.2
					c-2.6,0-5.1,2.3-5.1,10.2c0,7.8,2.6,10.2,5.1,10.2C837,153.8,839.6,151.4,839.6,143.6z M872.6,182.2c0-14.5,9.4-22.8,21.8-22.8
					s21.8,8.3,21.8,22.8c0,14.6-9.4,22.8-21.8,22.8S872.6,196.8,872.6,182.2z M899.6,182.2c0-7.8-2.6-10.2-5.1-10.2
					c-2.6,0-5.1,2.3-5.1,10.2c0,7.8,2.6,10.2,5.1,10.2C897,192.4,899.6,190,899.6,182.2z"/>
				<path class="st1" d="M979.9,151.7v52.1h-8.4V199c-2.9,3.6-7.3,5.3-12.4,5.3c-10.9,0-19-7.6-19-19.2s8.1-19.2,19-19.2
					c4.8,0,9.1,1.6,12.1,5.1v-19.2H979.9z M971.2,185.1c0-7.2-4.8-11.7-11.2-11.7c-6.3,0-11.2,4.6-11.2,11.7
					c0,7.2,4.8,11.7,11.2,11.7C966.4,196.8,971.2,192.2,971.2,185.1z"/>
				<path class="st1" d="M1026.5,187.9h-29.4c1,5.5,5.6,9,12.1,9c4.2,0,7.5-1.3,10.2-4.1l4.7,5.4c-3.4,4-8.6,6.1-15.1,6.1
					c-12.6,0-20.7-8.1-20.7-19.2c0-11.2,8.2-19.2,19.4-19.2c11,0,19,7.7,19,19.4C1026.6,186,1026.5,187,1026.5,187.9z M997,182.1
					h21.3c-0.7-5.4-4.8-9.1-10.6-9.1C1002,172.9,997.8,176.6,997,182.1z"/>
				<path class="st1" d="M324,251.3h30.2c21.7,0,36.6,13.1,36.6,33.2s-14.9,33.2-36.6,33.2H324L324,251.3L324,251.3z M353.5,305.1
					c13.2,0,21.8-7.9,21.8-20.6c0-12.7-8.6-20.6-21.8-20.6h-14.1v41.2L353.5,305.1L353.5,305.1z"/>
				<path class="st1" d="M453.9,305.4v12.3h-51.5v-66.5h50.2v12.3h-34.9v14.4h30.9v12h-30.9v15.4L453.9,305.4L453.9,305.4z"/>
				<path class="st1" d="M460.9,311.2l5.2-11.6c5.6,4.1,14,6.9,21.9,6.9c9.1,0,12.8-3,12.8-7.1c0-12.4-38.6-3.9-38.6-28.6
					c0-11.3,9.1-20.7,28-20.7c8.4,0,16.9,2,23.1,5.9l-4.7,11.7c-6.2-3.5-12.5-5.2-18.4-5.2c-9.1,0-12.6,3.4-12.6,7.6
					c0,12.2,38.6,3.8,38.6,28.2c0,11.1-9.2,20.6-28.2,20.6C477.5,318.9,466.8,315.8,460.9,311.2z"/>
				<path class="st1" d="M522.6,284.5c0-20,15.4-34.4,36.1-34.4c11.5,0,21.1,4.2,27.3,11.8l-9.9,9.1c-4.5-5.1-10.1-7.8-16.7-7.8
					c-12.4,0-21.3,8.7-21.3,21.3c0,12.5,8.8,21.3,21.3,21.3c6.6,0,12.2-2.7,16.7-7.9l9.9,9.1c-6.3,7.7-15.9,11.9-27.4,11.9
					C537.9,318.9,522.6,304.6,522.6,284.5z"/>
				<path class="st1" d="M595.2,288.5v-37.2h15.4v36.6c0,12.6,5.5,17.8,14.8,17.8c9.4,0,14.8-5.2,14.8-17.8v-36.6h15.2v37.2
					c0,19.6-11.2,30.4-30.1,30.4C606.4,318.9,595.2,308.1,595.2,288.5z"/>
				<path class="st1" d="M722.1,305.4v12.3h-51.5v-66.5h50.2v12.3h-34.9v14.4h30.9v12h-30.9v15.4L722.1,305.4L722.1,305.4z"/>
				<path class="st1" d="M795.3,251.3v66.5h-12.6l-33.1-40.4v40.4h-15.2v-66.5H747l33,40.4v-40.4H795.3z"/>
				<path class="st1" d="M824.8,263.8h-21.3v-12.5h57.9v12.5h-21.3v53.9h-15.4L824.8,263.8L824.8,263.8z"/>
				<path class="st1" d="M864.6,284.5c0-19.7,15.4-34.4,36.4-34.4c20.9,0,36.4,14.5,36.4,34.4c0,19.8-15.5,34.4-36.4,34.4
					C880,318.9,864.6,304.3,864.6,284.5z M921.8,284.5c0-12.6-8.9-21.3-20.8-21.3c-11.9,0-20.8,8.6-20.8,21.3
					c0,12.6,8.9,21.3,20.8,21.3C912.8,305.8,921.8,297.2,921.8,284.5z"/>
				<path class="st1" d="M963.1,299c0-11.2,8.4-19.2,20.3-19.2c7.3,0,13.1,3,16,8.7l-6.7,3.9c-2.2-3.6-5.6-5.2-9.3-5.2
					c-6.5,0-11.4,4.5-11.4,11.7c0,7.3,4.9,11.7,11.4,11.7c3.7,0,7.1-1.6,9.3-5.2l6.7,3.9c-2.9,5.6-8.7,8.8-16,8.8
					C971.5,318.3,963.1,310.3,963.1,299z"/>
				<path class="st1" d="M1003.3,299c0-11.2,8.4-19.2,19.9-19.2c11.7,0,20,7.9,20,19.2c0,11.2-8.4,19.2-20,19.2
					C1011.7,318.3,1003.3,310.3,1003.3,299z M1034.4,299c0-7.2-4.8-11.7-11.2-11.7c-6.3,0-11.1,4.6-11.1,11.7
					c0,7.2,4.8,11.7,11.1,11.7C1029.6,310.7,1034.4,306.2,1034.4,299z"/>
				<path class="st1" d="M1088.6,296.3v21.5h-8.8v-20.4c0-6.7-3.3-9.9-8.9-9.9c-6.2,0-10.5,3.8-10.5,11.3v19h-8.8v-37.5h8.4v4.8
					c2.9-3.4,7.4-5.3,12.9-5.3C1081.9,279.9,1088.6,285,1088.6,296.3z"/>
				<path class="st1" d="M1141.6,315.7c-2.1,1.7-5.3,2.5-8.4,2.5c-8.2,0-12.9-4.3-12.9-12.6v-18h-6.2v-7h6.2V272h8.8v8.6h10v7h-10
					v17.8c0,3.6,1.8,5.6,5.2,5.6c1.8,0,3.6-0.5,4.9-1.5L1141.6,315.7z"/>
				<path class="st1" d="M1185.1,280.3v37.5h-8.4V313c-2.8,3.4-7.2,5.3-12.1,5.3c-9.6,0-16.1-5.3-16.1-16.6v-21.4h8.8v20.2
					c0,6.8,3.2,10,8.8,10c6.1,0,10.3-3.8,10.3-11.3v-19H1185.1L1185.1,280.3z"/>
				<path class="st1" d="M344.4,419.8c-2.1,1.7-5.3,2.5-8.4,2.5c-8.2,0-12.9-4.3-12.9-12.6v-18h-6.2v-7h6.2V376h8.8v8.6h10v7h-10
					v17.8c0,3.6,1.8,5.6,5.2,5.6c1.8,0,3.6-0.5,4.9-1.5L344.4,419.8z"/>
				<path class="st1" d="M383,399.8v22h-8.3v-4.6c-2.1,3.2-6.2,5.1-11.8,5.1c-8.6,0-14-4.7-14-11.2c0-6.2,4.2-11.2,15.6-11.2h9.7
					v-0.6c0-5.1-3.1-8.1-9.3-8.1c-4.2,0-8.6,1.4-11.4,3.7l-3.4-6.4c4-3.1,9.8-4.6,15.9-4.6C376.8,383.9,383,389,383,399.8z
					 M374.2,410.1v-4.3h-9.1c-6,0-7.6,2.2-7.6,5c0,3.2,2.7,5.2,7.2,5.2C369,415.9,372.8,413.9,374.2,410.1z"/>
				<path class="st1" d="M415.9,383.9v8.4c-0.8-0.1-1.4-0.2-2-0.2c-6.7,0-10.9,3.9-10.9,11.6v18.2h-8.8v-37.5h8.4v5.5
					C405.1,385.9,409.7,383.9,415.9,383.9z"/>
				<path class="st1" d="M411.4,433.7l2.5-6.5c1.3,1,3.2,1.5,5.1,1.5c3.2,0,5.1-2,5.1-6v-38.4h8.8v38.2c0,8.2-4.7,13.4-13,13.4
					C416.6,435.9,413.5,435.3,411.4,433.7z M422.9,372.9c0-2.9,2.4-5.3,5.6-5.3c3.2,0,5.6,2.2,5.6,5.1c0,3.1-2.3,5.5-5.6,5.5
					C425.3,378.2,422.9,375.8,422.9,372.9z"/>
				<path class="st1" d="M479.5,405.9h-29.4c1.1,5.5,5.6,9,12.1,9c4.2,0,7.5-1.3,10.2-4.1l4.7,5.4c-3.4,4-8.6,6.1-15.1,6.1
					c-12.6,0-20.7-8.1-20.7-19.2c0-11.2,8.2-19.2,19.4-19.2c11,0,19,7.7,19,19.4C479.7,404,479.6,405,479.5,405.9z M450,400.1h21.3
					c-0.7-5.4-4.8-9.1-10.6-9.1C455,390.9,450.9,394.6,450,400.1z"/>
				<path class="st1" d="M510.6,419.8c-2.1,1.7-5.3,2.5-8.4,2.5c-8.2,0-12.9-4.3-12.9-12.6v-18h-6.2v-7h6.2V376h8.8v8.6h10v7h-10
					v17.8c0,3.6,1.8,5.6,5.2,5.6c1.8,0,3.6-0.5,4.9-1.5L510.6,419.8z"/>
				<path class="st1" d="M549.2,399.8v22h-8.3v-4.6c-2.1,3.2-6.2,5.1-11.8,5.1c-8.6,0-14-4.7-14-11.2c0-6.2,4.2-11.2,15.6-11.2h9.7
					v-0.6c0-5.1-3.1-8.1-9.3-8.1c-4.2,0-8.6,1.4-11.4,3.7l-3.4-6.4c4-3.1,9.8-4.6,15.9-4.6C543,383.9,549.2,389,549.2,399.8z
					 M540.4,410.1v-4.3h-9.1c-6,0-7.6,2.2-7.6,5c0,3.2,2.7,5.2,7.2,5.2C535.2,415.9,539,413.9,540.4,410.1z"/>
				<path class="st1" d="M639.6,361.1l-26.3,60.7h-13.9l-26.2-60.7h15.2l18.5,43.3l18.7-43.3L639.6,361.1L639.6,361.1z"/>
				<path class="st1" d="M644.6,361.1h14.1v60.7h-14.1V361.1z"/>
				<path class="st1" d="M668.3,415.8l4.8-10.6c5.1,3.7,12.7,6.3,20,6.3c8.3,0,11.7-2.8,11.7-6.5c0-11.4-35.3-3.6-35.3-26.1
					c0-10.3,8.3-18.9,25.6-18.9c7.6,0,15.4,1.8,21.1,5.4l-4.3,10.7c-5.6-3.2-11.4-4.8-16.8-4.8c-8.3,0-11.5,3.1-11.5,6.9
					c0,11.2,35.3,3.5,35.3,25.7c0,10.1-8.4,18.8-25.7,18.8C683.4,422.9,673.7,420,668.3,415.8z"/>
				<path class="st1" d="M775.4,410.5v11.3h-47v-60.7h45.9v11.3h-31.9v13.2h28.2v10.9h-28.2v14.1L775.4,410.5L775.4,410.5z"/>
				<path class="st1" d="M857.6,357.5v64.3h-12.9v-5.4c-3.4,4.1-8.3,6.1-14.6,6.1c-13.2,0-23.3-9.4-23.3-24c0-14.7,10.1-24,23.3-24
					c5.7,0,10.6,1.8,14,5.6v-22.6L857.6,357.5L857.6,357.5z M844.4,398.5c0-8.1-5.2-12.9-11.9-12.9c-6.8,0-12,4.9-12,12.9
					c0,8.1,5.2,12.9,12,12.9C839.2,411.4,844.4,406.5,844.4,398.5z"/>
				<path class="st1" d="M915.6,402.3h-35.3c1.3,5.8,6.2,9.4,13.3,9.4c4.9,0,8.5-1.5,11.7-4.5l7.2,7.8c-4.3,4.9-10.8,7.5-19.3,7.5
					c-16.1,0-26.6-10.1-26.6-24c0-14,10.7-24,24.9-24c13.7,0,24.3,9.2,24.3,24.2C915.8,399.7,915.7,401.2,915.6,402.3z M880.1,394.4
					h23c-0.9-5.9-5.4-9.7-11.4-9.7C885.5,384.7,881.1,388.4,880.1,394.4z"/>
				<path class="st1" d="M950.3,361.1h14.1v60.7h-14.1V361.1z"/>
				<path class="st1" d="M991.3,372.6h-19.4v-11.4h52.9v11.4h-19.4v49.3h-14.1V372.6z"/>
				<path class="st1" d="M1069.3,408.8h-28.2l-5.4,13h-14.4l27.1-60.7h13.9l27.1,60.7h-14.7L1069.3,408.8z M1064.9,398.1l-9.6-23.2
					l-9.6,23.2H1064.9z"/>
				<path class="st1" d="M1093.9,395.1v-34h14.1v33.5c0,11.5,5,16.3,13.5,16.3c8.6,0,13.5-4.8,13.5-16.3v-33.5h13.9v34
					c0,17.9-10.2,27.7-27.5,27.7C1104.1,422.9,1093.9,413,1093.9,395.1z"/>
				<path class="st1" d="M1218.4,361.1v60.7h-14.1v-24.9h-27.6v24.9h-14.1v-60.7h14.1v23.9h27.6v-23.9H1218.4z"/>
			</g>
		</g>
	</g>
	<path class="st2" d="M1600.3,360.4c-6.6-3-13.7-3.9-20.8-1.7c-6.1,1.9-11.6,5.3-17.1,8.6L1493,408c-5.9,3.5-8.7,12-4.8,18
		c3.8,6,11.6,8.6,18,4.8c20.3-12,40.7-23.9,61-35.9c4.8-2.8,9.6-5.7,14.4-8.4c1.1-0.6,2.2-1.2,3.3-1.8c0.3-0.2,0.5-0.3,0.6-0.3
		c0,0,0.1,0,0.1,0c0.6-0.2,1.3-0.4,1.9-0.6c-0.2,0.1,0.6,0.2,0.9,0.1c0.1,0.1,0.2,0.1,0.5,0.3c0.4,0.2,1.6,1,1.6,1
		c2.1,1.7,4.1,3.5,6,5.5c4.2,4.3,5.1,5.1,8.1,9.8c3.7,5.8,11.8,8.8,18,4.8c5.8-3.7,8.8-11.8,4.8-18
		C1620.8,376.7,1612,365.7,1600.3,360.4z"/>
	<path class="st2" d="M1512.7,442.1c-5.9-7.2-11.8-14.4-17.7-21.6c-6-7.3-13-13-22.3-14.7c-2.5-0.4-5-0.8-7.5-1.1
		c-0.9-0.1-1.8-0.2-2.6-0.3c-0.1,0-0.1,0-0.1,0c-0.1,0-0.2,0-0.4-0.1c-3.9-0.7-7.7-1.6-11.6-2.6c-3.4-0.9-6.7-2-10.1-3.3
		c-0.8-0.3-1.7-0.6-2.5-0.9c-0.1-0.1-0.9-0.4-1.4-0.6c-0.5-0.2-1.4-0.6-1.5-0.7c-1-0.5-2-0.9-3-1.4c-6.8-3.3-13.3-7.3-19.4-11.8
		c-0.6-0.4-1.2-0.9-1.8-1.4c-0.2-0.2-0.4-0.3-0.7-0.6c-1.4-1.2-2.7-2.3-4.1-3.5c-2.8-2.5-5.5-5.2-8.1-8c-1.3-1.4-2.5-2.8-3.8-4.2
		c-0.6-0.7-1.3-1.5-1.9-2.2c-0.1-0.1-0.7-0.9-1.1-1.4c-0.3-0.5-1-1.3-1.1-1.4c-0.6-0.8-1.1-1.6-1.7-2.4c-1.2-1.8-2.4-3.6-3.6-5.5
		c-2-3.3-3.9-6.7-5.6-10.2c-1-2-1.9-3.9-2.8-5.9c-0.1-0.1-0.1-0.2-0.1-0.3c0-0.1-0.1-0.2-0.1-0.3c-0.4-1.1-0.9-2.3-1.3-3.4
		c-1.6-4.3-2.9-8.7-4.1-13.2c-0.5-2.1-1-4.2-1.4-6.4c-0.2-0.9-0.4-1.9-0.5-2.8c0,0.1-0.4-2.6-0.4-2.7c-1.3-10.1,0.1-20.7-5.2-29.9
		c-3.6-6.2-12.3-9.2-18.3-5.3c-6.2,3.9-8.3,12.1-4.6,18.5c0.1,0.1,0.2,0.3,0.2,0.4c0.1,0.2,0.1,0.4,0.1,0.6c0.2,1.8,0.2,3.7,0.2,5.5
		c0.2,5,0.8,10,1.5,15c1.2,8.1,3.1,16.2,5.7,24c5.8,17.1,14.7,32.9,26.1,46.8c20,24.4,49.5,41.8,79.9,47.5c2.6,0.5,5.3,0.9,7.9,1.3
		c1.1,0.2,2.2,0.3,3.3,0.4c0.5,0.1,2.7,0.4,1.7,0.2c2.1,0.4,3.1,0.7,3.9,1.3c0.2,0.2,0.4,0.4,0.7,0.7c0.8,0.9,1.7,1.7,2.4,2.6
		c6.9,7.9,13.3,16.2,20,24.3c4.6,5.6,14.4,5.2,18.9,0.2C1518.3,455.6,1517.6,448.1,1512.7,442.1z"/>
	<path class="st3" d="M1628.3,415.4c-10,5.8-22.8,2.4-28.6-7.5l-7.5-13c-12.8,9.4-59.7,36-74.3,41.6l7.8,13.5
		c5.7,10.1,2.2,22.9-7.9,28.6c-10,5.7-22.6,2.3-28.4-7.6l-15.3-26.5c-48.8,0.8-94.2-24.8-118.7-67c-20.5-35.6-23.6-78.1-8.3-116.6
		c9.9-25.1,27-46.7,49.3-61.9c3-2.1,6.1-4,9.2-5.8c11-6.3,61.4-33.2,75.9-36.8l12.1-44.4c0.4-1.3,1.5-2.3,2.9-2.5
		c1.4-0.2,2.7,0.5,3.4,1.7l2.6,4.5l2.4-8.6c0.4-1.3,1.5-2.3,2.9-2.5c1.4-0.2,2.8,0.5,3.4,1.7l28.8,49.9
		c72.5,15.5,118.7,86.7,103.3,159.2c-3.7,17.3-10.7,33.6-20.7,48.2l13.7,23.7C1641.7,396.9,1638.3,409.7,1628.3,415.4z
		 M1592.7,392.4l8.5,14.7c5.4,9.2,17.3,12.3,26.5,6.9c9.1-5.4,12.2-17,7-26.2l-14.2-24.6l0.3-0.4c14.1-20.4,22.2-44.2,23.5-69
		c3.4-65.2-41.2-123.1-105.1-136.4l-0.4-0.1l-29.2-50.5c-0.4-0.6-1.1-1-1.8-0.9c-0.7,0.1-1.3,0.6-1.5,1.3l-3.4,12.5l-4.6-7.9
		c-0.4-0.6-1.1-1-1.8-0.9c-0.7,0.1-1.3,0.6-1.5,1.3l-12.3,45.4l-0.5,0.1c-13.6,3.1-64.8,30.3-75.9,36.7c-3.1,1.8-6.2,3.7-9.1,5.8
		c-22,15.1-38.9,36.4-48.7,61.2c-15.1,38.1-12.1,80,8.2,115.2c24.3,41.8,69.3,67.2,117.7,66.2l0.5,0l15.8,27.3
		c5.4,9.2,17.3,12.3,26.5,6.9c9.1-5.4,12.2-17,7-26.2l-8.8-15.2l0.9-0.3c13.3-4.7,64.2-33.6,75.6-42.3L1592.7,392.4z"/>
	<path class="st4" d="M1334.6,130.3l-65.4,69.4c-4.3,4.6-4.1,11.8,0.5,16.2c4.6,4.3,11.8,4.1,16.2-0.5l57.2-60.7l1.2-1.3
		c-4-7.6-6.2-16.1-6.4-24.7c-0.6,0.1-1.1,0.2-1.6,0.5C1335.6,129.4,1335.1,129.8,1334.6,130.3z"/>
	<path class="st5" d="M1287.5,221.2c-2.2,1.2-4.9,1-6.7-0.7l-13.6-12.1c-2.4-2.1-2.6-5.8-0.5-8.1l0,0l52-58.5
		c2.1-2.4,5.8-2.6,8.1-0.5l0,0l13.6,12.1c2.3,2.1,2.6,5.6,0.6,8c0,0.1-0.1,0.1-0.1,0.2l-52,58.5
		C1288.5,220.5,1288,220.9,1287.5,221.2z"/>
	<path class="st6" d="M1365.1,77.3c-27,15.6-36.7,49.8-22,77.3c0.3,0.5,0.6,1,0.9,1.5c15.9,27.6,51.2,37.1,78.8,21.1
		s37.1-51.2,21.1-78.8C1428,70.9,1392.7,61.4,1365.1,77.3L1365.1,77.3L1365.1,77.3z M1422,175.9c-26.8,15.4-61.1,6.3-76.6-20.5
		c-0.4-0.7-0.7-1.3-1.1-2c-14.4-27.4-3.8-61.3,23.6-75.7c27.4-14.4,61.3-3.8,75.7,23.6C1457.6,127.9,1448,160.8,1422,175.9
		L1422,175.9z"/>
	<path class="st2" d="M1436.1,103c13.4,23.3,5.5,53-17.8,66.5c-23.3,13.4-53,5.5-66.5-17.8c-0.8-1.3-1.5-2.7-2.1-4.1
		c-11.2-24.4-0.5-53.3,24-64.5C1396.5,72.7,1423.5,81.3,1436.1,103z"/>
	<path class="st4" d="M1408.1,122.9c-1.8-0.8-3.8-1-5.7-0.8c-2.4,0.3-4.7,0.8-7,1.5l-6.6-11.5c3.4-1.3,7-1.7,10.5-1l-0.5-6.3
		c-2-0.4-4.1-0.5-6.2-0.2c-2.3,0.3-4.5,0.9-6.6,1.8l-3.4-5.8l-5.4,3.1l3.4,5.9c-1.9,1.4-3.6,3.3-4.7,5.4c-1.1,1.9-1.7,4-1.7,6.2
		c0,2.1,0.5,4.2,1.6,6c1.1,2,2.8,3.7,4.8,4.6c1.9,0.8,3.9,1.1,5.9,0.9c2.4-0.3,4.8-0.8,7.1-1.5l6.3,11c-3.8,1.8-8.1,2.4-12.2,1.8
		l0.5,6.3c2.3,0.4,4.7,0.4,7-0.1c2.6-0.5,5-1.3,7.4-2.4l3.3,5.8l5.4-3.1l-3.4-5.9c2.8-2.1,4.9-5,5.9-8.3c0.9-3,0.5-6.2-1.2-8.9
		C1411.8,125.4,1410.1,123.8,1408.1,122.9z M1390.1,125c-1.5,0.4-3.1,0.4-4.7,0.2c-1.3-0.3-2.4-1.1-3-2.3c-0.8-1.3-1-2.8-0.7-4.2
		c0.4-1.5,1.3-2.9,2.5-3.9L1390.1,125z M1406.9,135.5c-0.4,1.5-1.2,2.8-2.4,3.7l-5.5-9.5c1.4-0.4,2.9-0.5,4.4-0.3
		c1.2,0.2,2.1,0.9,2.7,2C1406.9,132.7,1407.1,134.1,1406.9,135.5L1406.9,135.5z"/>
	<path class="st5" d="M1324.7,280.4c-2.3,1.3-5.1,0.9-7-0.9l-8.6-8.6c-2.2-2.3-2.2-5.9,0-8.2l72-71.5c2.3-2.2,5.9-2.2,8.2,0l7.3,7.3
		l-0.4,0.3c-20.8,14.3-37.1,34.2-46.9,57.4l-0.1,0.1l-23.3,23.1C1325.5,279.8,1325.1,280.1,1324.7,280.4z"/>
	<path class="st3" d="M1339.7,338.8c-10.8,4.3-22.4,6.2-34,5.6c-5.8-0.3-11.4-1.2-17-2.8c-5.5-1.5-11.1-3.6-15.5-7.3
		c-4.1-3.4-6.8-8.2-7.5-13.5c-0.7-5.3,0.8-10.6,4-14.8c3.3-4.2,8.4-7.3,13.6-7.9c2.5-0.3,5,0.1,7.3,1.1c1.1,0.5,2,1.1,2.8,1.9
		c0.7,0.7,1.3,1.6,1.6,2.6c0.5,2.1,0.2,4.3-1,6.1c-1.3,2-2.9,3.7-4.8,5.1c-1.9,1.5-4.7,3.4-7.3,2.7c-0.5-0.1-1-0.4-1.4-0.7
		c-0.3-0.3-0.6-0.6-0.7-1c0.1,0.2-0.1-0.4-0.1-0.4c0,0.1,0,0.3,0,0c0-0.1,0-0.2,0-0.4c0,0.1-0.1,0.3,0,0c0.1-0.3,0.2-0.6,0.4-0.8
		c0.1-0.1,0.2-0.2,0.2-0.2c0.2-0.2-0.2,0.2,0,0c0.1-0.1,0.2-0.1,0.3-0.2c0.2-0.2-0.3,0.1,0,0c0.1,0,0.2-0.1,0.3-0.1
		c0.2-0.1-0.2-0.1,0,0c0.3,0.1-0.3-0.1,0,0c0.1,0,0.3,0.1,0.4,0.1c1,0.3,2.1-0.3,2.4-1.4c0.2-1-0.4-2.1-1.4-2.4
		c-2.8-1.1-5.8,1.3-6.5,4c-0.9,3.4,2,6.4,5.2,7.2c3.6,0.8,7-0.9,9.8-3c2.4-1.7,4.5-3.9,6.1-6.3c1.6-2.4,2.3-5.4,1.9-8.3
		c-0.6-3.1-2.5-5.7-5.2-7.3c-5.6-3.5-12.6-2.8-18.3-0.2c-5.9,2.8-10.5,7.9-12.6,14.1c-2,6.1-1.5,12.7,1.2,18.4
		c2.8,6,8.2,10.3,14.1,13c6.1,2.7,12.5,4.6,19.1,5.5c13,2,26.4,0.9,38.9-3.2c1.5-0.5,3-1,4.4-1.6c1-0.3,1.6-1.3,1.4-2.4
		C1341.7,339.2,1340.7,338.6,1339.7,338.8L1339.7,338.8z"/>
	<path class="st7" d="M1457.2,174c-14.7,8.2-29.1,17-43,26.3c-4.8,3.2-8.1,7.4-6.3,10.4c1.4,2.5,7.3,2.9,12.2-0.3
		c14-9.3,28.3-18.1,43-26.3C1475,177.3,1469.2,167.3,1457.2,174z"/>
	<path class="st6" d="M1441.1,196c-1.6,0.9-38.7,22.2-41.6,17.1c-3-5.1,34.1-26.6,35.6-27.5c1.6-0.9,38.7-22.2,41.6-17.1
		C1479.7,173.6,1442.7,195.1,1441.1,196z M1400.9,212.3c1.9,1,16.8-4.7,39.3-17.7c22.6-13,34.9-23.1,35-25.2
		c-1.9-1-16.8,4.7-39.3,17.7C1413.4,200.1,1401,210.2,1400.9,212.3L1400.9,212.3z"/>
	<path class="st6" d="M1636.3,262.7c8.1-5,18.1-11.1,22.7-21.4c2.7-6.3,2.4-13.5-0.8-19.7c-2.5-4.6-6.4-7.6-11.1-8.5
		c-6.1-1.1-12.6,1.6-17.9,7.2l-21.6-52.8l-5.3,2.2l25.3,62.1l3-4.3c3.5-4.9,9.4-9.8,15.4-8.7c3.1,0.6,5.7,2.7,7,5.5
		c2.3,4.6,2.5,9.9,0.6,14.6c-3.5,8-11.3,13.3-20.4,18.9L1636.3,262.7z"/>
	<rect x="1549.4" y="198.3" transform="matrix(0.866 -0.5 0.5 0.866 109.0807 809.3801)" class="st6" width="30.9" height="5.7"/>
	<path class="st5" d="M1349.9,296.2c-2.5,1.4-5.6,0.8-7.4-1.4l-7.6-9.5c-2-2.5-1.6-6.1,0.9-8.1l78.9-63.7c2.5-2,6.1-1.6,8.1,0.9
		l7.6,9.5c2,2.5,1.6,6.1-0.9,8.1l-78.9,63.7C1350.4,295.9,1350.2,296.1,1349.9,296.2z"/>
	<circle class="st4" cx="1222.6" cy="158.5" r="42"/>
	<path class="st5" d="M1248.6,156.1c0.9-1.1,1.6-2.3,2-3.7c0.5-1.9,0.1-3.9-1.1-5.6c-0.8-1.2-2.1-1.9-3.5-1.9
		c-1.8-0.1-3.5,1-4.8,2.8l-8.4-14.1l-1.4,0.8l9.9,16.6l0.7-1.3c0.8-1.6,2.2-3.2,4-3.2c0.9,0.1,1.7,0.5,2.2,1.3
		c0.9,1.2,1.1,2.7,0.8,4.1c-0.7,2.4-2.7,4.3-5,6.2l1.1,1.3C1246.4,158.4,1247.5,157.3,1248.6,156.1z"/>
	
		<rect x="1239.6" y="126.7" transform="matrix(0.7814 -0.624 0.624 0.7814 192.327 804.1689)" class="st5" width="8.9" height="1.7"/>
	
		<rect x="1217.7" y="144.2" transform="matrix(0.7814 -0.624 0.624 0.7814 176.6219 794.3207)" class="st5" width="8.9" height="1.7"/>
	<path class="st5" d="M1337.7,302.4c-2.7,1.5-6,1.3-8.4-0.7l-63.9-52.7c-16.3-13.5-18.6-37.6-5.2-53.9l16-19.4
		c1.3-1.5,3.1-2.5,5-2.7c1.9-0.2,3.9,0.4,5.4,1.6l97.2,61c3.2,2.6,3.7,7.3,1.1,10.4c0,0,0,0,0,0l-45.1,54.7
		C1339.2,301.4,1338.5,302,1337.7,302.4z"/>
	<path class="st2" d="M1271.3,181.5l81.8,35.1l-66.5-43c-2.8-2.4-7-2-9.4,0.8l0,0L1271.3,181.5z"/>
	<path class="st4" d="M1371.5,186.2l-85.5,42.3c-5.7,2.8-12.5,0.5-15.3-5.2c-2.8-5.7-0.5-12.5,5.2-15.3c0,0,0,0,0,0l85.5-42.3
		c2.7-1.3,5.9-0.2,7.2,2.4l0,0l5.4,10.9C1375.2,181.7,1374.1,184.9,1371.5,186.2L1371.5,186.2z"/>
	<path class="st5" d="M1351.4,202.3c-0.1,0.1-0.2,0.1-0.3,0.2l0,0l-70.2,34.7c-2.9,1.4-6.3,0.2-7.7-2.6l0,0L1264,216
		c-1.4-2.9-0.2-6.3,2.6-7.7l0,0l70.2-34.7c2.9-1.4,6.3-0.2,7.7,2.6l9.2,18.6c1,2,0.7,4.5-0.7,6.2
		C1352.5,201.5,1352,202,1351.4,202.3z"/>
	<path class="st8" d="M1208.1,134.6c2.4-6.9,11.1-7,16.2-10.8c4.9-3.6,6.3-10.8,4.5-16.4c-2.1-6.6-8.5-10.7-15.1-11.7
		c-7.2-1.2-14.4,1.4-20.1,5.7c-6.6,4.9-11.1,11.9-14.6,19.3c-3.4,6.9-6.1,14.3-7.8,21.8c-1.5,6.9-1.8,14.3,0.6,21.1
		c2.2,6.1,6.5,11.8,12.5,14.6c3.1,1.4,6.6,2,10,1.7c3.6-0.2,7.2-1,10.8-1c5.5,0,12.3,2.6,14,8.4c0.4,1.3,0.4,2.6,0.1,3.9
		c-0.3,1.6-2.8,1.2-2.4-0.4c0.6-2.7-0.9-5.1-3-6.8c-2.4-1.8-5.4-2.8-8.4-2.7c-3.8,0-7.5,0.8-11.3,1c-3.6,0.3-7.2-0.4-10.5-1.8
		c-6.3-2.8-11-8.6-13.6-14.9c-2.8-6.8-2.9-14.5-1.6-21.6c1.4-7.8,4.3-15.4,7.6-22.6c3.5-7.7,8-15.2,14.6-20.7
		c5.7-4.8,12.9-8.1,20.5-7.8c7,0.2,14.2,3.5,18.2,9.5c3.6,5.6,3.9,12.6,0.8,18.5c-1.6,2.9-4.1,5.2-7.1,6.6c-3.2,1.6-6.7,2.4-9.6,4.4
		c-1.3,0.9-2.4,2.2-2.9,3.7C1209.9,137.1,1207.6,136.1,1208.1,134.6L1208.1,134.6z"/>
</g>
</svg>
