<?xml version="1.0" encoding="utf-8"?>
<!-- Generator: Adobe Illustrator 24.0.0, SVG Export Plug-In . SVG Version: 6.00 Build 0)  -->
<svg version="1.1" id="Layer_1" xmlns="http://www.w3.org/2000/svg" xmlns:xlink="http://www.w3.org/1999/xlink" x="0px" y="0px"
	 viewBox="0 0 1920 600" style="enable-background:new 0 0 1920 600;" xml:space="preserve">
<style type="text/css">
	.st0{fill:#237C22;}
	.st1{fill:#FFFFFF;}
	.st2{fill:#F2F2F2;}
	.st3{fill:#3F3D56;}
	.st4{opacity:0.1;enable-background:new    ;}
	.st5{fill:#A3C5A1;}
	.st6{fill:#2F2E41;}
	.st7{fill:#FBBEBE;}
</style>
<g id="Layer_1_1_">
	<g>
		<rect x="0.5" y="0.8" class="st0" width="1919" height="598.5"/>
		<path class="st0" d="M1919,1.5v597H1V1.5H1919 M1920,0H0v600h1920V0L1920,0z"/>
	</g>
</g>
<g id="Layer_2_1_">
	<g>
		
			<image style="overflow:visible;opacity:0.75;enable-background:new    ;" width="710" height="326" xlink:href="F495645B.png"  transform="matrix(1.3685 0 0 1.3685 -132.8626 96.4547)">
		</image>
		<g>
			<g>
				<path class="st1" d="M629.3,146.7h10.9v7.3h-11.8l-1.7,13.7h-7.3l1.7-13.7h-13.6l-1.7,13.7h-7.3l1.7-13.7h-10.9v-7.3H601
					l1.9-14.4h-10.9v-7.3h11.8l1.7-13.7h7.3l-1.7,13.7h13.6l1.7-13.7h7.3l-1.7,13.7h10.8l0.1,7.3h-11.8L629.3,146.7z M622,146.7
					l1.8-14.4h-13.6l-1.9,14.4H622z"/>
				<path class="st1" d="M689.3,167.7l-11.6-16.6c-0.7,0.1-1.5,0.1-2.2,0.1h-12.8v16.5h-10.5v-56.5h23.3c14.9,0,24.1,7.6,24.1,20.1
					c0,8.6-4.4,14.9-12,17.8l13,18.6H689.3z M675.1,120.1h-12.3v22.5h12.3c9.2,0,14-4.2,14-11.3
					C689.1,124.2,684.3,120.1,675.1,120.1z"/>
				<path class="st1" d="M706.6,161.7l3.6-8.2c4.5,3.6,11.7,6.2,18.7,6.2c8.8,0,12.5-3.1,12.5-7.3c0-12.2-33.6-4.2-33.6-25.2
					c0-9.1,7.3-16.9,22.8-16.9c6.8,0,13.9,1.8,18.8,5l-3.3,8.2c-5.1-3-10.7-4.4-15.6-4.4c-8.7,0-12.3,3.4-12.3,7.7
					c0,12,33.5,4.2,33.5,24.9c0,9-7.3,16.8-22.9,16.8C720.1,168.5,711.3,165.8,706.6,161.7z"/>
				<path class="st1" d="M804.5,158.9v8.8h-42.4v-56.5h41.3v8.8h-30.8v14.7h27.3v8.6h-27.3v15.6
					C772.6,158.9,804.5,158.9,804.5,158.9z"/>
				<path class="st1" d="M284,268.7h-33l-6.5,15.3h-12.7l29.8-66.1h12.1l29.8,66.1h-12.8L284,268.7z M280,259.1l-12.5-28.9
					l-12.4,28.9H280z"/>
				<path class="st1" d="M309.5,217.9h28.9c21.4,0,36.1,13.2,36.1,33c0,19.8-14.6,33-36.1,33h-28.9L309.5,217.9L309.5,217.9z
					 M337.9,273.7c14.7,0,24.3-9,24.3-22.7c0-13.7-9.5-22.7-24.3-22.7h-16.1v45.3H337.9z"/>
				<path class="st1" d="M380.4,251c0-19.5,15.1-34,35.6-34c20.5,0,35.6,14.4,35.6,34c0,19.6-15.1,34-35.6,34
					C395.6,285,380.4,270.5,380.4,251z M439.3,251c0-13.5-9.9-23.2-23.2-23.2c-13.3,0-23.2,9.7-23.2,23.2c0,13.5,9.9,23.2,23.2,23.2
					C429.3,274.2,439.3,264.5,439.3,251z"/>
				<path class="st1" d="M517.6,241.5c0,14.5-10.8,23.5-28.1,23.5h-14.9V284h-12.3v-66.1h27.2C506.9,217.9,517.6,226.8,517.6,241.5z
					 M505.3,241.5c0-8.3-5.6-13.1-16.3-13.1h-14.4v26.2h14.4C499.7,254.6,505.3,249.8,505.3,241.5z"/>
				<path class="st1" d="M539.1,228.3h-21.9v-10.4h56.1v10.4h-21.9V284h-12.3V228.3z"/>
				<path class="st1" d="M619.7,268.7h-33l-6.5,15.3h-12.7l29.7-66.1h12.1l29.8,66.1h-12.8L619.7,268.7z M615.7,259.1l-12.5-28.9
					l-12.4,28.9H615.7z"/>
				<path class="st1" d="M668.3,255.2v-37.3h12.3v36.8c0,13.6,6.1,19.4,16.8,19.4s16.7-5.9,16.7-19.4v-36.8h12.1v37.3
					c0,19.3-10.9,29.7-28.9,29.7C679.2,285,668.3,274.5,668.3,255.2z"/>
				<path class="st1" d="M799.8,217.9V284h-10.1l-36.4-44.8V284h-12.2v-66.1h10.1l36.4,44.8v-44.8H799.8z"/>
				<path class="st1" d="M233.6,305.7h19.3c14.3,0,24,8.8,24,22c0,13.2-9.8,22-24,22h-19.3V305.7z M252.5,342.8
					c9.8,0,16.2-6,16.2-15.1c0-9.1-6.4-15.1-16.2-15.1h-10.7v30.2H252.5L252.5,342.8z"/>
				<path class="st1" d="M317.1,342.9v6.9h-33v-44.1h32.2v6.9h-24V324h21.3v6.7h-21.3v12.2L317.1,342.9L317.1,342.9z"/>
				<path class="st1" d="M320.9,345.1l2.8-6.4c3.5,2.8,9.1,4.8,14.5,4.8c6.9,0,9.8-2.4,9.8-5.7c0-9.5-26.2-3.3-26.2-19.6
					c0-7.1,5.7-13.2,17.7-13.2c5.3,0,10.8,1.4,14.7,3.9l-2.6,6.4c-4-2.3-8.3-3.5-12.2-3.5c-6.8,0-9.6,2.6-9.6,6
					c0,9.4,26.1,3.3,26.1,19.4c0,7-5.7,13.1-17.8,13.1C331.4,350.4,324.6,348.2,320.9,345.1z"/>
				<path class="st1" d="M391.2,339.5h-22l-4.3,10.2h-8.4l19.8-44.1h8.1l19.9,44.1h-8.6L391.2,339.5z M388.5,333.1l-8.3-19.3
					l-8.3,19.3H388.5z"/>
				<path class="st1" d="M437.1,349.7l-9-12.9c-0.6,0.1-1.1,0.1-1.7,0.1h-9.9v12.8h-8.2v-44.1h18.1c11.6,0,18.8,5.9,18.8,15.7
					c0,6.7-3.4,11.6-9.4,13.9l10.1,14.5L437.1,349.7L437.1,349.7z M426,312.6h-9.6v17.6h9.6c7.2,0,10.9-3.3,10.9-8.8
					C436.9,315.8,433.2,312.6,426,312.6z"/>
				<path class="st1" d="M481.5,349.7l-9-12.9c-0.6,0.1-1.1,0.1-1.7,0.1h-9.9v12.8h-8.2v-44.1h18.1c11.6,0,18.8,5.9,18.8,15.7
					c0,6.7-3.4,11.6-9.4,13.9l10.1,14.5L481.5,349.7L481.5,349.7z M470.4,312.6h-9.6v17.6h9.6c7.2,0,10.9-3.3,10.9-8.8
					C481.3,315.8,477.6,312.6,470.4,312.6z"/>
				<path class="st1" d="M494,327.7c0-13,10.1-22.7,23.7-22.7s23.7,9.6,23.7,22.7s-10.1,22.7-23.7,22.7S494,340.7,494,327.7z
					 M533.2,327.7c0-9-6.6-15.5-15.5-15.5c-8.9,0-15.5,6.5-15.5,15.5c0,9,6.6,15.5,15.5,15.5C526.6,343.2,533.2,336.7,533.2,327.7z"
					/>
				<path class="st1" d="M548.5,305.7h8.2v37.1h23v6.9h-31.2V305.7z"/>
				<path class="st1" d="M584.7,305.7h8.2v37.1h23v6.9h-31.2V305.7z"/>
				<path class="st1" d="M649.7,339.5h-22l-4.3,10.2h-8.4l19.8-44.1h8.1l19.9,44.1h-8.6L649.7,339.5z M647,333.1l-8.3-19.3
					l-8.3,19.3H647z"/>
				<path class="st1" d="M666.7,305.7H686c14.3,0,24,8.8,24,22c0,13.2-9.8,22-24,22h-19.3V305.7z M685.6,342.8
					c9.8,0,16.2-6,16.2-15.1c0-9.1-6.4-15.1-16.2-15.1h-10.7v30.2H685.6L685.6,342.8z"/>
				<path class="st1" d="M714,327.7c0-13,10.1-22.7,23.7-22.7s23.7,9.6,23.7,22.7s-10.1,22.7-23.7,22.7S714,340.7,714,327.7z
					 M753.2,327.7c0-9-6.6-15.5-15.5-15.5c-8.9,0-15.5,6.5-15.5,15.5c0,9,6.6,15.5,15.5,15.5C746.6,343.2,753.2,336.7,753.2,327.7z"
					/>
				<path class="st1" d="M797.4,349.7l-9-12.9c-0.6,0.1-1.1,0.1-1.7,0.1h-9.9v12.8h-8.2v-44.1h18.1c11.6,0,18.8,5.9,18.8,15.7
					c0,6.7-3.4,11.6-9.4,13.9l10.1,14.5L797.4,349.7L797.4,349.7z M786.3,312.6h-9.6v17.6h9.6c7.2,0,10.9-3.3,10.9-8.8
					C797.2,315.8,793.5,312.6,786.3,312.6z"/>
			</g>
		</g>
	</g>
	<path class="st2" d="M1136.6,448.7c-129.2-9.8-283.2-109.9-275.4-213s157-199,286.2-189.2S1351,249,1343.1,352.1
		C1335.3,455.1,1265.8,458.6,1136.6,448.7z"/>
	<ellipse class="st3" cx="1147.5" cy="448.8" rx="269.6" ry="16.5"/>
	<ellipse class="st4" cx="1147.5" cy="448.5" rx="229.7" ry="10.9"/>
	<ellipse class="st3" cx="959.3" cy="491.7" rx="113.1" ry="9.9"/>
	<ellipse class="st4" cx="959.3" cy="491.5" rx="96.3" ry="6.5"/>
	<rect x="950.8" y="56.8" class="st3" width="702.2" height="389.9"/>
	<path class="st2" d="M1121.4,103.5h-119.9c-0.8,0-1.5-0.6-1.5-1.5c0-0.8,0.6-1.5,1.5-1.5c0,0,0,0,0,0h119.9c0.8,0,1.5,0.7,1.5,1.5
		C1122.9,102.8,1122.2,103.5,1121.4,103.5z"/>
	<path class="st2" d="M1252.6,119.5h-188.5c-0.8,0-1.5-0.7-1.5-1.5c0-0.8,0.7-1.5,1.5-1.5l0,0h188.5c0.8,0,1.5,0.7,1.5,1.5
		C1254.1,118.8,1253.4,119.5,1252.6,119.5z"/>
	<path class="st2" d="M1122,135.5h-119.9c-0.8,0-1.5-0.7-1.5-1.5s0.7-1.5,1.5-1.5H1122c0.8,0,1.5,0.7,1.5,1.5
		S1122.8,135.5,1122,135.5z"/>
	<path class="st2" d="M1252.6,135.8h-119.9c-0.8,0-1.5-0.7-1.5-1.5c0-0.8,0.7-1.5,1.5-1.5h119.9c0.8,0,1.5,0.7,1.5,1.5
		C1254.1,135.1,1253.4,135.8,1252.6,135.8z"/>
	<path class="st2" d="M1122.3,151.5h-119.9c-0.8,0-1.5-0.7-1.5-1.5c0-0.8,0.7-1.5,1.5-1.5h119.9c0.8,0,1.5,0.7,1.5,1.5
		C1123.7,150.8,1123.1,151.5,1122.3,151.5z"/>
	<path class="st2" d="M1122.6,167.5h-119.9c-0.8,0-1.5-0.7-1.5-1.5c0-0.8,0.7-1.5,1.5-1.5h119.9c0.8,0,1.5,0.7,1.5,1.5
		C1124,166.8,1123.4,167.5,1122.6,167.5z"/>
	<path class="st2" d="M1177,103.8h-34.3c-0.8,0-1.5-0.7-1.5-1.5c0-0.8,0.7-1.5,1.5-1.5l0,0h34.3c0.8,0,1.5,0.7,1.5,1.5
		C1178.4,103.1,1177.8,103.8,1177,103.8z"/>
	<path class="st2" d="M1177,151.5h-34.3c-0.8,0-1.5-0.7-1.5-1.5c0-0.8,0.7-1.5,1.5-1.5l0,0h34.3c0.8,0,1.5,0.7,1.5,1.5
		C1178.4,150.8,1177.8,151.5,1177,151.5z"/>
	<path class="st2" d="M1177,167.2h-34.3c-0.8,0-1.5-0.6-1.5-1.5c0-0.8,0.6-1.5,1.5-1.5c0,0,0,0,0,0h34.3c0.8,0,1.5,0.6,1.5,1.5
		S1177.8,167.2,1177,167.2L1177,167.2z"/>
	<path class="st2" d="M1234.6,167.2h-34.3c-0.8,0-1.5-0.7-1.5-1.5c0-0.8,0.7-1.5,1.5-1.5h34.3c0.8,0,1.5,0.6,1.5,1.5
		S1235.4,167.2,1234.6,167.2L1234.6,167.2z"/>
	<path class="st2" d="M1035.6,119.5h-34.3c-0.8,0-1.5-0.7-1.5-1.5c0-0.8,0.7-1.5,1.5-1.5l0,0h34.3c0.8,0,1.5,0.7,1.5,1.5
		C1037.1,118.8,1036.4,119.5,1035.6,119.5z"/>
	<path class="st2" d="M1121.6,339.1h-119.9c-0.8,0-1.5-0.7-1.5-1.5c0-0.8,0.7-1.5,1.5-1.5l0,0h119.9c0.8,0,1.5,0.7,1.5,1.5
		C1123,338.5,1122.4,339.1,1121.6,339.1z"/>
	<path class="st2" d="M1121,371.1h-119.9c-0.8,0-1.5-0.7-1.5-1.5c0-0.8,0.7-1.5,1.5-1.5l0,0H1121c0.8,0,1.5,0.7,1.5,1.5
		C1122.4,370.5,1121.8,371.1,1121,371.1z"/>
	<path class="st2" d="M1121.3,387.1h-119.9c-0.8,0-1.5-0.7-1.5-1.5c0-0.8,0.7-1.5,1.5-1.5l0,0h119.9c0.8,0,1.5,0.7,1.5,1.5
		C1122.7,386.5,1122.1,387.1,1121.3,387.1z"/>
	<path class="st2" d="M1172.5,371.4h-34.3c-0.8,0-1.5-0.7-1.5-1.5c0-0.8,0.7-1.5,1.5-1.5h34.3c0.8,0,1.5,0.7,1.5,1.5
		C1173.9,370.8,1173.3,371.4,1172.5,371.4L1172.5,371.4z"/>
	<path class="st2" d="M1172.5,387.1h-34.3c-0.8,0-1.5-0.7-1.5-1.5c0-0.8,0.7-1.5,1.5-1.5h34.3c0.8,0,1.5,0.7,1.5,1.5
		C1173.9,386.5,1173.3,387.1,1172.5,387.1L1172.5,387.1z"/>
	<path class="st2" d="M1230.1,371.4h-34.3c-0.8,0-1.5-0.7-1.5-1.5c0-0.8,0.7-1.5,1.5-1.5h34.3c0.8,0,1.5,0.7,1.5,1.5
		C1231.5,370.8,1230.9,371.4,1230.1,371.4z"/>
	<path class="st2" d="M1252.8,355.1h-188.5c-0.8,0-1.5-0.7-1.5-1.5c0-0.8,0.7-1.5,1.5-1.5h188.5c0.8,0,1.5,0.7,1.5,1.5
		C1254.2,354.5,1253.6,355.1,1252.8,355.1z"/>
	<path class="st2" d="M1035.7,355.1h-34.3c-0.8,0-1.5-0.7-1.5-1.5c0-0.8,0.7-1.5,1.5-1.5l0,0h34.3c0.8,0,1.5,0.7,1.5,1.5
		C1037.2,354.5,1036.5,355.1,1035.7,355.1z"/>
	<path class="st2" d="M1252.8,403.4h-188.5c-0.8,0-1.5-0.7-1.5-1.5c0-0.8,0.7-1.5,1.5-1.5h188.5c0.8,0,1.5,0.7,1.5,1.5
		C1254.2,402.8,1253.6,403.4,1252.8,403.4L1252.8,403.4z"/>
	<path class="st2" d="M1035.7,403.4h-34.3c-0.8,0-1.5-0.7-1.5-1.5c0-0.8,0.7-1.5,1.5-1.5l0,0h34.3c0.8,0,1.5,0.7,1.5,1.5
		C1037.2,402.8,1036.5,403.4,1035.7,403.4z"/>
	<polygon class="st5" points="1092.6,205.9 1046.1,251.8 1092.6,297.8 1103.1,287.3 1067.9,252.1 1103.4,216.6 	"/>
	<polygon class="st5" points="1161.3,205.9 1207.8,251.8 1161.3,297.8 1150.8,287.3 1186,252.1 1150.5,216.6 	"/>
	<circle class="st5" cx="962.8" cy="66.3" r="4.8"/>
	<circle class="st5" cx="975.6" cy="66.3" r="4.8"/>
	<circle class="st5" cx="988.4" cy="66.3" r="4.8"/>
	<rect x="950.8" y="77" class="st4" width="702.2" height="1.6"/>
	<path class="st2" d="M1711.9,380.6c0,34-20.2,45.8-45.1,45.8s-45.1-11.9-45.1-45.8s45.1-77.2,45.1-77.2S1711.9,346.6,1711.9,380.6z
		"/>
	<polygon class="st3" points="1665.1,421.2 1665.6,392.8 1684.8,357.6 1665.7,388.3 1665.9,375.5 1679.1,350.1 1665.9,372.1 
		1665.9,372.1 1666.3,349.1 1680.5,328.9 1666.4,345.5 1666.6,303.3 1665.1,359.2 1665.2,356.9 1650.8,334.8 1665,361.3 1663.7,387 
		1663.6,386.3 1647,363 1663.6,388.7 1663.4,391.9 1663.4,392 1663.4,392.2 1660,457.4 1664.5,457.4 1665.1,423.7 1681.6,398.2 	"/>
	<path class="st6" d="M911.6,446.2c-1.4,0.8-2.8,1.4-4.4,1.9c-2.7,0.7-5.6,0.5-8.3,1.1c-1.1,0.3-2.3,0.8-2.7,1.9
		c-0.3,0.8,0,1.7,0.3,2.5c3,8.9,4.8,18.3,9.7,26.3c2,3.4,4.5,6.4,7.5,9.1c1.1,1,2.3,2,3.8,2.1c2.1,0.2,4-1.3,4.2-3.4
		c0.1-0.7,0-1.4-0.3-2c-0.4-1-1.2-1.7-1.8-2.6c-0.6-1.2-0.9-2.4-1-3.7c-0.5-3.8-0.9-7.7,0.4-11.3c0.9-2.4,2.5-4.5,3.8-6.6
		c1.3-2.2,2.5-4.7,2.2-7.2c-0.2-1.7-1.1-3.3-1.9-4.8c-0.9-1.5-2.7-5.5-4.5-6C916.7,442.6,913.2,445.3,911.6,446.2z"/>
	<path class="st6" d="M960.9,476.7c0,0.9-0.1,1.7-0.4,2.5c-0.6,1.5-2,2.5-2.7,3.9c-1,2-0.5,4.4,0.1,6.5c0.4,1.3,1,2.7,2.1,3.5
		c1,0.6,2.1,0.9,3.2,1c9.6,1.3,19.4,0.6,29.1,0.8c1.8,0.1,3.6,0.1,5.2-0.8c1.5-0.9,2.5-3,1.5-4.5c-0.9-1.3-2.8-1.3-4.4-1.3
		c-4.1-0.2-8.1-1.8-11.1-4.6c-0.6-0.5-1.1-1.1-1.6-1.8c-0.3-0.6-0.6-1.2-0.8-1.9c-1.4-3.7-3-7.3-4.8-10.7c-0.5-1-1.1-2-2.1-2.5
		c-0.7-0.3-1.5-0.5-2.3-0.5c-2.4-0.2-8.7-1-10.6,0.9C959.5,469.2,960.9,474.5,960.9,476.7z"/>
	
		<ellipse transform="matrix(7.089882e-02 -0.9975 0.9975 7.089882e-02 660.5544 1202.4382)" class="st7" cx="975.7" cy="246.6" rx="15.4" ry="15.4"/>
	<path class="st7" d="M961.8,259.4c-0.9,2.5-2.5,4.8-4.7,6.1l21.4,4.4c-0.8-3.1-0.9-6.4-0.3-9.5c0.2-0.8,0.3-1.6,0.1-2.4
		c-0.4-1.5-2.1-2.3-3.7-2.7c-3.9-0.9-7.3-1.4-11-3.1C962.5,254.1,962.6,257.2,961.8,259.4z"/>
	<path class="st6" d="M956.9,259.7c4.7-2.1,10-2,14.6,0.4c2.7,1.4,5,3.6,7.2,5.8c2.1,2,4.2,4.2,4.4,7.1c0.1,1.4-0.4,2.7-0.6,4.1
		c-0.8,5.8,2.1,11.4,7.3,14.1c1.7,2.8,2.1,6.3,2.1,9.6c0.1,12.5-3.8,25.1-1,37.3c0.7,2.9,1.7,5.6,2.3,8.5c0.7,3.7,0.7,7.6,1.1,11.3
		c0.4,4.1,1.3,8.1,2.7,12c-0.9,1.5-2.9,2-4.6,1.9c-1.7-0.1-3.4-0.9-4.9-1.7c-7.5-3.8-14.4-8.9-22.2-12.2c-5.2-2.2-10.6-3.5-15.7-6
		c-5-2.5-9.7-6.5-11.2-11.9c-0.7-2.3-0.7-4.8-0.7-7.2c-0.2-10.2-0.3-20.5,1.9-30.4c2-8.8,5.7-17.2,6.5-26.1c0.3-2.9,0.3-6,1.9-8.5
		C950.3,264.4,955.2,263.5,956.9,259.7z"/>
	<path class="st6" d="M966.9,246.9c0.9-1.2,2.7-1.4,4.1-1c1.5,0.4,2.8,1.1,4.3,1.4c0.7,0.2,1.4,0.1,2-0.3c0.5-0.5,0.8-1.2,0.9-1.9
		c0.5-3.1,0.6-6.2,0.4-9.3c-0.1-0.4,0-0.9,0.1-1.3c0.4-0.9,1.5-1.1,2.4-1.4c3.1-1,5-4,4.8-7.3c0-0.8-0.3-1.5-0.9-2
		c-0.6-0.5-1.5-0.5-2.3-0.5c-4.1,0-8.3,0-12.5,0c-1.5,0-3.1,0.1-4.5,0.8c-1,0.6-1.7,1.5-2.6,2.2c-2.3,1.9-5.4,2.2-8.2,3.2
		c-1.4,0.4-2.6,1.1-3.6,2.1c-0.9,1.1-1.4,2.7-0.8,3.9c0.3,0.5,0.6,1.1,1,1.5c1.7,2.6,0.5,6.1,0.8,9.2c0.3,3.9,6.1,10.2,9.9,11.1
		C968.5,259,964.9,249.4,966.9,246.9z"/>
	<path class="st6" d="M958.2,417.2c0.4,2.8,0.9,5.7,0.8,8.5c-0.2,4-1.6,7.8-1.9,11.8c-0.2,3,0.3,6-0.2,8.9c-0.3,1.9-0.9,3.7-1.3,5.6
		c-1.2,6.2,0.1,12.6,3.7,17.7c0.3,0.4,0.6,0.8,1.1,1c0.4,0.2,0.9,0.2,1.3,0.2c4.5-0.1,9-0.5,13.4-1.2c0.3,0,0.6-0.2,0.9-0.4
		c0.1-0.2,0.2-0.3,0.2-0.5c0.8-4.2-1.1-8.5-1.5-12.8c-0.5-4.6,0.6-9.2,1.7-13.6c0.5-2.2,1.1-4.4,1.8-6.5c0.5-1.4,1.2-2.8,1.6-4.3
		c0.6-2.3,1-4.7,1.2-7c0.3-3.8,0.5-7.5,0.5-11.3c0.1-3.6-0.2-7.2-0.9-10.7c-1-4.4-3.1-8.6-5.1-12.6c-1.1,0.3-2.1,0.7-3,1.4
		c-2.6,1.7-5.4,3.2-8.2,4.5c-1.9,0.9-5.6,1.5-6.8,3.4c-1.2,1.8-0.4,5.5-0.3,7.5C957.4,410.3,957.8,413.8,958.2,417.2z"/>
	<path class="st4" d="M958.2,417.2c0.4,2.8,0.9,5.7,0.8,8.5c-0.2,4-1.6,7.8-1.9,11.8c-0.2,3,0.3,6-0.2,8.9c-0.3,1.9-0.9,3.7-1.3,5.6
		c-1.2,6.2,0.1,12.6,3.7,17.7c0.3,0.4,0.6,0.8,1.1,1c0.4,0.2,0.9,0.2,1.3,0.2c4.5-0.1,9-0.5,13.4-1.2c0.3,0,0.6-0.2,0.9-0.4
		c0.1-0.2,0.2-0.3,0.2-0.5c0.8-4.2-1.1-8.5-1.5-12.8c-0.5-4.6,0.6-9.2,1.7-13.6c0.5-2.2,1.1-4.4,1.8-6.5c0.5-1.4,1.2-2.8,1.6-4.3
		c0.6-2.3,1-4.7,1.2-7c0.3-3.8,0.5-7.5,0.5-11.3c0.1-3.6-0.2-7.2-0.9-10.7c-1-4.4-3.1-8.6-5.1-12.6c-1.1,0.3-2.1,0.7-3,1.4
		c-2.6,1.7-5.4,3.2-8.2,4.5c-1.9,0.9-5.6,1.5-6.8,3.4c-1.2,1.8-0.4,5.5-0.3,7.5C957.4,410.3,957.8,413.8,958.2,417.2z"/>
	<path class="st6" d="M937.4,356.6c-2.1,5.5,1,11.5,3.6,16.8c6.4,13,10.9,26.9,15.4,40.7c0.3,1,0.7,2.2,0.3,3.2
		c-0.3,0.7-0.8,1.3-1.5,1.8c-3.1,2.3-7,3.2-10.6,4.4c-3.5,1.2-6.9,2.8-10.1,4.7c-2.7,1.6-5.1,3.5-7.6,5.4l-7.9,6
		c-0.5,0.3-1,0.8-1.3,1.3c-0.8,1.2-0.5,2.8-0.1,4.1c1,3.6,2.3,7.1,3.9,10.6c0.3,0.8,0.8,1.4,1.4,1.8c1.2,0.7,2.7-0.2,3.7-1.2
		c0.9-1,1.8-2.3,3.1-2.8s2.8,0.1,4.2-0.1c2.2-0.3,3.7-2.4,5.3-4c6.6-6.5,17.6-6,24.8-11.7c1.1-0.9,2.2-1.8,3.3-2.6
		c1.2-0.7,2.6-1.1,3.9-1.8c3.9-1.9,6.3-6,7.6-10.1c1.3-4.1,1.7-8.5,2.6-12.7c0.5-2.2,1.1-4.4,1.3-6.6c0.1-2.1,0.1-4.1-0.1-6.2
		l-2.6-32.4c-0.2-2.6-0.4-5.3-0.8-7.9c-7.8,0.3-15.5,0.6-23.3,0.7C949.5,358.1,943.2,358.5,937.4,356.6z"/>
	<path class="st6" d="M934.5,364.2c1.1,1.7,3.6,1.7,5.4,0.7c1.8-0.9,3.1-2.5,4.9-3.4c2.4-1.2,5.2-1.2,7.9-1.1
		c4.2,0.1,8.5,0.2,12.6,1.4c4.2,1.2,8.3,3.5,12.7,3.1c0.8-0.1,1.6-0.3,2-0.9c0.2-0.5,0.4-1,0.3-1.5l0.1-3.8c0.1-0.7,0-1.3-0.3-1.9
		c-0.4-0.5-0.9-0.9-1.5-1.1c-6.2-3-13.3-3.6-20.2-3.8c-3.5-0.1-7-0.2-10.5-0.2c-3,0-6.6-0.4-9.5,0.4
		C934.7,353,932.5,361,934.5,364.2z"/>
	<path class="st5" d="M973.5,264.2c-8.1-0.1-15.5-5.4-23.7-5.6c-1-0.1-2,0.1-2.9,0.5c-1.1,0.6-1.9,1.7-2.7,2.6
		c-2.4,2.6-5.9,4-8.4,6.5c-2.3,2.4-3.6,5.9-2.7,9.1c0.9,3.2,4.4,5.7,7.6,4.9c1.3-4.2,4-7.9,7.6-10.4c1.9-1.2,3.9-2.3,6-3.1
		c3.7-1.7,7.8-3.4,11.6-2.1c1.4,0.5,2.7,1.3,4,2.1l6.4,4.3C975.6,270.2,974.9,266.9,973.5,264.2z"/>
	<path class="st5" d="M939.9,279.5c-1.1,1.4,0.5,3.3,0.2,5c-0.2,1.1-1.1,2-1.5,3.1c-0.4,1.1-0.2,2.4-0.3,3.5
		c-0.2,0.9-0.4,1.7-0.7,2.5c-0.7,2.4-1.2,5-1.4,7.5l-1.4,10.6c-0.2,1.6-0.4,3.2-0.5,4.8c0.1,1.2,0,2.4-0.2,3.6
		c-0.3,1.2-1,2.2-1.5,3.3s-0.7,2.4-0.1,3.5c-2.1,1.8-2.8,5.3-1.3,7.6c0.3,0.4,0.5,0.8,0.7,1.2c0.1,0.6,0,1.2-0.3,1.8l-1.4,3.8
		c-0.4,1-0.5,2.5,0.5,2.7c-0.8,0.9-1.5,1.9-1.9,3.1c-0.4,1.2-0.2,2.5,0.5,3.5c0.4,0.3,0.7,0.7,0.9,1.1c0.1,0.6,0.1,1.2-0.1,1.7
		c-0.4,1.7-0.2,3.5,0.8,5c1,1.5,2.7,2.2,4.5,1.9c2.9-0.7,5.5-1.7,8.4-1.1c6.3,1.1,12.5,2.3,18.6,4.2c6.9,2.2,13.6,5.4,20.9,6.1
		c0.5,0.1,1,0,1.4-0.2c0.4-0.4,0.6-0.8,0.6-1.3c0.7-3.5,1.5-7,2.2-10.5c0.9-3.9,1.6-7.8,2.1-11.7c0.3-2.5,0.3-5.1,0.4-7.7l0.6-20.4
		c0.3-3-0.1-6-1.2-8.9l-3.3-10.6c-1.9-6-6.2-11.4-7.8-17.5c-1-3.9-1.7-8-4.3-11.1c-3.7-4.3-10.2-5-15.9-4.2
		c-2.6,0.3-5.1,0.9-7.3,2.2c-2.6,1.5-4.4,3.9-6.3,6.3C942.9,276,941.4,277.6,939.9,279.5z"/>
	<path class="st7" d="M953.1,339.4c0.5,2,1.5,3.9,2,5.8c1,3.3,0.9,6.9,1.9,10.2c0.4,1.4,1,2.7,1.3,4.1c0.7,3.3-0.3,6.7-1.6,9.9
		c-1.3,3.1-2.8,6.2-3.2,9.6c-0.3,2.4,0.1,5,2,6.6c1.9,1.6,4.6,1.5,7.1,1.3c0.9,0,1.8-0.2,2.6-0.5c1.9-0.9,2.7-3.1,3.1-5.2
		c1.5-6.8,1.1-13.9,0.6-20.9l-1.1-18.2c-0.2-3.5-0.5-7.1-1.5-10.5c-0.4-1.2-1.1-3.7-2.2-4.5c-1.1-0.8-4.3-0.8-5.7-0.9
		C951.9,325.9,952,334.9,953.1,339.4z"/>
	<path class="st6" d="M960.2,272.1c-1.3-0.7-3-0.4-4.2,0.4c-1.2,0.8-2.3,1.9-3.2,3.1c-2.8,3.5-5.9,7.5-5.4,11.9
		c0.2,1.7,0.8,3.3,1.2,4.9c1.9,7.1-0.2,14.7,0,22c0.1,4.3,1.1,8.5,2,12.6c0.2,0.8,0.5,1.8,1.3,2.1c0.6,0.2,1.3-0.1,1.9-0.3
		c4.6-1.7,9.8-1.1,13.8,1.7c1.5-0.8,1-3.4,0.6-5.1c-1-5,0.4-10.2,2-15.1c1.7-4.9,3.7-9.7,4-14.8c0.3-5.8-1.6-11.5-3.5-17
		c-0.4-1.2-0.9-2.5-1.8-3.3c-0.8-0.6-1.8-1-2.8-1.3C964.1,273.4,962.1,273,960.2,272.1z"/>
	<g>
		
			<image style="overflow:visible;opacity:0.75;enable-background:new    ;" width="264" height="268" xlink:href="F4956459.png"  transform="matrix(1.3685 0 0 1.3685 1279.4132 122.4559)">
		</image>
		<g>
			<g>
				<path class="st1" d="M1350.4,137h8.4V175h23.5v7.1h-31.9L1350.4,137L1350.4,137z"/>
				<path class="st1" d="M1420,167.4H1393c1,5,5.1,8.2,11.1,8.2c3.9,0,6.9-1.2,9.3-3.7l4.3,5c-3.1,3.7-7.9,5.6-13.8,5.6
					c-11.5,0-19-7.4-19-17.6c0-10.2,7.5-17.6,17.7-17.6c10,0,17.4,7,17.4,17.7C1420.1,165.7,1420,166.7,1420,167.4z M1392.9,162.1
					h19.5c-0.6-5-4.4-8.4-9.7-8.4C1397.5,153.7,1393.7,157.1,1392.9,162.1z"/>
				<path class="st1" d="M1479.2,134.3V182h-7.7v-4.4c-2.7,3.3-6.7,4.9-11.4,4.9c-10,0-17.4-7-17.4-17.6c0-10.7,7.4-17.6,17.4-17.6
					c4.4,0,8.4,1.5,11.1,4.6v-17.6H1479.2z M1471.3,164.9c0-6.6-4.4-10.7-10.2-10.7c-5.8,0-10.2,4.2-10.2,10.7
					c0,6.6,4.4,10.7,10.2,10.7C1466.8,175.6,1471.3,171.4,1471.3,164.9z"/>
				<path class="st1" d="M1518.5,161.9V182h-7.6v-4.2c-1.9,3-5.7,4.6-10.8,4.6c-7.8,0-12.8-4.3-12.8-10.3c0-5.7,3.9-10.2,14.3-10.2
					h8.9v-0.5c0-4.7-2.8-7.5-8.6-7.5c-3.9,0-7.8,1.3-10.4,3.4l-3.1-5.9c3.7-2.8,9-4.2,14.5-4.2
					C1512.8,147.3,1518.5,152,1518.5,161.9z M1510.5,171.3v-4h-8.3c-5.5,0-7,2.1-7,4.6c0,2.9,2.4,4.8,6.6,4.8
					C1505.7,176.6,1509.1,174.8,1510.5,171.3z"/>
				<path class="st1" d="M1524.9,178.6l3.1-6.1c3,2,7.6,3.4,12,3.4c5.1,0,7.2-1.4,7.2-3.8c0-6.6-21.2-0.4-21.2-14.1
					c0-6.5,5.9-10.7,15.1-10.7c4.6,0,9.8,1.1,12.9,3l-3.1,6.1c-3.3-1.9-6.6-2.6-9.8-2.6c-4.9,0-7.2,1.6-7.2,3.9
					c0,7,21.2,0.8,21.2,14.2c0,6.4-5.9,10.6-15.6,10.6C1533.7,182.5,1527.9,180.8,1524.9,178.6z"/>
				<path class="st1" d="M1355.6,225.1c0-10.3,7.7-17.6,18.6-17.6c6.7,0,12,2.8,14.7,8l-6.2,3.6c-2.1-3.3-5.1-4.8-8.6-4.8
					c-5.9,0-10.4,4.1-10.4,10.7c0,6.7,4.5,10.7,10.4,10.7c3.4,0,6.5-1.5,8.6-4.8l6.2,3.6c-2.6,5.1-8,8-14.7,8
					C1363.4,242.7,1355.6,235.4,1355.6,225.1z"/>
				<path class="st1" d="M1424.6,222.1v20.1h-7.6v-4.2c-1.9,3-5.7,4.6-10.8,4.6c-7.8,0-12.8-4.3-12.8-10.3c0-5.7,3.9-10.2,14.3-10.2
					h8.9v-0.5c0-4.7-2.8-7.5-8.6-7.5c-3.9,0-7.8,1.3-10.4,3.4l-3.1-5.9c3.7-2.8,9-4.2,14.5-4.2
					C1418.9,207.5,1424.6,212.2,1424.6,222.1z M1416.5,231.5v-4h-8.3c-5.5,0-7,2.1-7,4.6c0,2.9,2.4,4.8,6.6,4.8
					C1411.8,236.8,1415.2,235,1416.5,231.5z"/>
				<path class="st1" d="M1443.8,206.1v2.1h9.5v6.4h-9.2v27.7h-8v-27.7h-5.7v-6.4h5.7V206c0-7.2,4.3-11.9,12.3-11.9
					c2.8,0,5.5,0.6,7.3,1.9l-2.2,6c-1.2-0.8-2.8-1.4-4.4-1.4C1445.5,200.6,1443.8,202.4,1443.8,206.1z"/>
				<path class="st1" d="M1490.3,227.6h-26.9c1,5,5.1,8.2,11.1,8.2c3.9,0,6.9-1.2,9.3-3.7l4.3,5c-3.1,3.7-7.9,5.6-13.8,5.6
					c-11.5,0-19-7.4-19-17.6c0-10.2,7.5-17.6,17.7-17.6c10,0,17.4,7,17.4,17.7C1490.4,225.9,1490.3,226.9,1490.3,227.6z
					 M1463.2,222.3h19.5c-0.6-5-4.4-8.4-9.7-8.4C1467.8,213.9,1464,217.3,1463.2,222.3z M1474.4,203.2h-7l8.7-8.8h9.5L1474.4,203.2z
					"/>
				<path class="st1" d="M1548,207.9l-16.1,37.1c-3.1,7.8-7.5,10.2-13.2,10.2c-3.4,0-7-1.2-9.2-3.1l3.2-5.9c1.5,1.5,3.7,2.4,5.9,2.4
					c2.8,0,4.5-1.4,6-4.8l0.6-1.4l-15-34.5h8.4l10.8,25.4l10.9-25.4L1548,207.9L1548,207.9z"/>
				<path class="st1" d="M1372.6,268.1v29.1c0,12.5-6.5,18.1-18.5,18.1c-6.4,0-12.8-1.7-16.7-4.9l3.6-6c3,2.5,7.9,4.1,12.7,4.1
					c7.6,0,10.9-3.5,10.9-10.4v-1.8c-2.8,3.1-6.9,4.6-11.5,4.6c-9.8,0-17.4-6.7-17.4-16.7c0-10,7.5-16.5,17.4-16.5
					c4.8,0,9.1,1.5,11.9,5v-4.6H1372.6L1372.6,268.1z M1364.6,284.3c0-5.8-4.4-9.7-10.4-9.7c-6.1,0-10.5,3.9-10.5,9.7
					c0,5.9,4.4,9.8,10.5,9.8C1360.3,294.1,1364.6,290.1,1364.6,284.3z"/>
				<path class="st1" d="M1415.3,287.9h-26.9c1,5,5.1,8.2,11.1,8.2c3.9,0,6.9-1.2,9.3-3.7l4.3,5c-3.1,3.7-7.9,5.6-13.8,5.6
					c-11.5,0-19-7.4-19-17.6c0-10.2,7.5-17.6,17.7-17.6c10,0,17.4,7,17.4,17.7C1415.4,286.1,1415.3,287.1,1415.3,287.9z
					 M1388.2,282.5h19.5c-0.6-5-4.4-8.4-9.7-8.4C1392.8,274.2,1389,277.5,1388.2,282.5z"/>
				<path class="st1" d="M1456.9,282.8v19.7h-8v-18.7c0-6.1-3-9.1-8.2-9.1c-5.7,0-9.6,3.5-9.6,10.4v17.4h-8v-34.3h7.6v4.4
					c2.6-3.1,6.8-4.8,11.8-4.8C1450.8,267.7,1456.9,272.4,1456.9,282.8z"/>
				<path class="st1" d="M1499.6,287.9h-26.9c1,5,5.1,8.2,11.1,8.2c3.9,0,6.9-1.2,9.3-3.7l4.3,5c-3.1,3.7-7.9,5.6-13.8,5.6
					c-11.5,0-19-7.4-19-17.6c0-10.2,7.5-17.6,17.7-17.6c10,0,17.4,7,17.4,17.7C1499.8,286.1,1499.7,287.1,1499.6,287.9z
					 M1472.6,282.5h19.5c-0.6-5-4.4-8.4-9.7-8.4C1477.2,274.2,1473.4,277.5,1472.6,282.5z"/>
				<path class="st1" d="M1527.4,267.7v7.6c-0.7-0.1-1.3-0.2-1.9-0.2c-6.1,0-10,3.6-10,10.6v16.7h-8v-34.3h7.6v5
					C1517.5,269.5,1521.6,267.7,1527.4,267.7z"/>
				<path class="st1" d="M1562.7,282.3v20.1h-7.6v-4.2c-1.9,3-5.7,4.6-10.8,4.6c-7.8,0-12.8-4.3-12.8-10.3c0-5.7,3.9-10.2,14.3-10.2
					h8.9v-0.5c0-4.7-2.8-7.5-8.6-7.5c-3.9,0-7.8,1.3-10.4,3.4l-3.1-5.9c3.7-2.8,9-4.2,14.5-4.2
					C1557,267.7,1562.7,272.4,1562.7,282.3z M1554.7,291.7v-4h-8.3c-5.5,0-7,2.1-7,4.6c0,2.9,2.4,4.8,6.6,4.8
					C1549.9,297,1553.3,295.3,1554.7,291.7z"/>
				<path class="st1" d="M1339.3,345.5c0-10.3,7.7-17.6,18.6-17.6c6.7,0,12,2.8,14.7,8l-6.2,3.6c-2.1-3.3-5.1-4.8-8.6-4.8
					c-5.9,0-10.4,4.1-10.4,10.7c0,6.7,4.5,10.7,10.4,10.7c3.4,0,6.5-1.5,8.6-4.8l6.2,3.6c-2.6,5.1-8,8-14.7,8
					C1347,363.1,1339.3,355.8,1339.3,345.5z"/>
				<path class="st1" d="M1376.2,345.5c0-10.3,7.7-17.6,18.3-17.6c10.7,0,18.3,7.3,18.3,17.6c0,10.3-7.6,17.6-18.3,17.6
					C1383.9,363.1,1376.2,355.8,1376.2,345.5z M1404.6,345.5c0-6.6-4.4-10.7-10.2-10.7c-5.8,0-10.2,4.2-10.2,10.7
					c0,6.6,4.4,10.7,10.2,10.7C1400.3,356.2,1404.6,352,1404.6,345.5z M1397.6,314.8h9.5l-11.2,8.8h-7L1397.6,314.8z"/>
				<path class="st1" d="M1454.1,314.9v47.7h-7.7v-4.4c-2.7,3.3-6.7,4.9-11.4,4.9c-10,0-17.4-7-17.4-17.6c0-10.7,7.4-17.6,17.4-17.6
					c4.4,0,8.4,1.5,11.1,4.6v-17.6L1454.1,314.9L1454.1,314.9z M1446.2,345.5c0-6.6-4.4-10.7-10.2-10.7s-10.2,4.2-10.2,10.7
					c0,6.6,4.4,10.7,10.2,10.7S1446.2,352,1446.2,345.5z"/>
				<path class="st1" d="M1463.6,317.8c0-2.7,2.2-4.8,5.1-4.8c3,0,5.1,2,5.1,4.6c0,2.8-2.1,5-5.1,5
					C1465.7,322.7,1463.6,320.5,1463.6,317.8z M1464.7,328.3h8v34.3h-8V328.3z"/>
				<path class="st1" d="M1517.3,328.3v29.1c0,12.5-6.5,18.1-18.5,18.1c-6.4,0-12.8-1.7-16.7-4.9l3.6-6c3,2.5,7.9,4.1,12.7,4.1
					c7.6,0,10.9-3.5,10.9-10.4v-1.8c-2.8,3.1-6.9,4.6-11.5,4.6c-9.8,0-17.4-6.7-17.4-16.7c0-10,7.5-16.5,17.4-16.5
					c4.8,0,9.1,1.5,11.9,5v-4.6L1517.3,328.3L1517.3,328.3z M1509.4,344.5c0-5.8-4.4-9.7-10.4-9.7c-6.1,0-10.5,3.9-10.5,9.7
					c0,5.9,4.4,9.8,10.5,9.8C1505,354.3,1509.4,350.3,1509.4,344.5z"/>
				<path class="st1" d="M1525.1,345.5c0-10.3,7.7-17.6,18.3-17.6c10.7,0,18.3,7.3,18.3,17.6c0,10.3-7.6,17.6-18.3,17.6
					C1532.8,363.1,1525.1,355.8,1525.1,345.5z M1553.5,345.5c0-6.6-4.4-10.7-10.2-10.7c-5.8,0-10.2,4.2-10.2,10.7
					c0,6.6,4.4,10.7,10.2,10.7C1549.2,356.2,1553.5,352,1553.5,345.5z"/>
			</g>
		</g>
	</g>
	<g>
		
			<image style="overflow:visible;opacity:0.75;enable-background:new    ;" width="741" height="63" xlink:href="F495645F.png"  transform="matrix(1.3685 0 0 1.3685 879.8157 465.9455)">
		</image>
		<g>
			<g>
				<path class="st1" d="M1102.4,482.6l3.9,2.2l-0.7,1.3l-3.9-2.3v4.5h-1.5l0-4.5l-3.9,2.3l-0.8-1.3l3.9-2.2l-3.9-2.2l0.8-1.4
					l3.9,2.3l0-4.5h1.5v4.5l3.9-2.3l0.7,1.4L1102.4,482.6z"/>
				<path class="st1" d="M1108.7,489.3c0-6.4,4.9-11.2,11.5-11.2c3.2,0,6.1,1.1,8.1,3.2l-1.5,1.5c-1.8-1.8-4-2.6-6.5-2.6
					c-5.3,0-9.3,3.9-9.3,9.1c0,5.2,4,9.1,9.3,9.1c2.5,0,4.7-0.8,6.5-2.6l1.5,1.5c-2,2.1-4.8,3.2-8.1,3.2
					C1113.6,500.5,1108.7,495.7,1108.7,489.3z"/>
				<path class="st1" d="M1145,490v10.3h-2.1v-2.6c-1,1.7-3,2.7-5.7,2.7c-3.7,0-6-2-6-4.8c0-2.5,1.6-4.7,6.4-4.7h5.3v-1
					c0-2.8-1.6-4.4-4.7-4.4c-2.1,0-4.2,0.8-5.5,2l-1-1.7c1.7-1.4,4.1-2.2,6.7-2.2C1142.6,483.6,1145,485.7,1145,490z M1142.8,495.3
					v-2.7h-5.2c-3.2,0-4.2,1.3-4.2,3c0,1.9,1.5,3.1,4.2,3.1C1140,498.7,1141.9,497.5,1142.8,495.3z"/>
				<path class="st1" d="M1151.1,476.9h2.2v23.3h-2.2V476.9z"/>
				<path class="st1" d="M1159.1,478.5c0-0.8,0.7-1.6,1.6-1.6c0.9,0,1.6,0.7,1.6,1.5c0,0.9-0.7,1.6-1.6,1.6
					C1159.8,480.1,1159.1,479.4,1159.1,478.5z M1159.6,483.7h2.2v16.5h-2.2V483.7z"/>
				<path class="st1" d="M1183.1,476.9v23.3h-2.1V497c-1.4,2.2-3.7,3.4-6.4,3.4c-4.7,0-8.3-3.4-8.3-8.4c0-5,3.5-8.4,8.3-8.4
					c2.6,0,4.9,1.1,6.3,3.3v-9.9H1183.1z M1180.9,492c0-3.9-2.6-6.4-6.1-6.4c-3.5,0-6.2,2.6-6.2,6.4c0,3.9,2.6,6.4,6.2,6.4
					C1178.3,498.4,1180.9,495.9,1180.9,492z"/>
				<path class="st1" d="M1201.9,490v10.3h-2.1v-2.6c-1,1.7-3,2.7-5.7,2.7c-3.7,0-6-2-6-4.8c0-2.5,1.6-4.7,6.4-4.7h5.3v-1
					c0-2.8-1.6-4.4-4.7-4.4c-2.1,0-4.2,0.8-5.5,2l-1-1.7c1.7-1.4,4.1-2.2,6.7-2.2C1199.4,483.6,1201.9,485.7,1201.9,490z
					 M1199.6,495.3v-2.7h-5.2c-3.2,0-4.2,1.3-4.2,3c0,1.9,1.5,3.1,4.2,3.1C1196.9,498.7,1198.7,497.5,1199.6,495.3z"/>
				<path class="st1" d="M1223.1,476.9v23.3h-2.1V497c-1.4,2.2-3.7,3.4-6.4,3.4c-4.7,0-8.3-3.4-8.3-8.4c0-5,3.5-8.4,8.3-8.4
					c2.6,0,4.9,1.1,6.3,3.3v-9.9H1223.1z M1220.9,492c0-3.9-2.6-6.4-6.1-6.4c-3.5,0-6.2,2.6-6.2,6.4c0,3.9,2.6,6.4,6.2,6.4
					C1218.3,498.4,1220.9,495.9,1220.9,492z"/>
				<path class="st1" d="M1252.7,476.9v23.3h-2.1V497c-1.4,2.2-3.7,3.4-6.4,3.4c-4.7,0-8.2-3.4-8.2-8.4c0-5,3.5-8.4,8.2-8.4
					c2.6,0,4.9,1.1,6.3,3.3v-9.9H1252.7z M1250.5,492c0-3.9-2.6-6.4-6.1-6.4c-3.5,0-6.2,2.6-6.2,6.4c0,3.9,2.6,6.4,6.2,6.4
					C1247.8,498.4,1250.5,495.9,1250.5,492z"/>
				<path class="st1" d="M1273.3,492.7h-13.8c0.2,3.5,2.9,5.8,6.5,5.8c2,0,3.8-0.7,5.1-2.2l1.3,1.5c-1.5,1.8-3.8,2.7-6.4,2.7
					c-5.2,0-8.7-3.5-8.7-8.4c0-4.9,3.4-8.4,8.1-8.4c4.7,0,8,3.4,8,8.4C1273.4,492.2,1273.3,492.4,1273.3,492.7z M1259.5,491h11.7
					c-0.3-3.2-2.6-5.5-5.9-5.5C1262.1,485.5,1259.8,487.8,1259.5,491z"/>
				<path class="st1" d="M1277.9,476.9h2.2v23.3h-2.2V476.9z"/>
				<path class="st1" d="M1293,492c0-4.9,3.6-8.4,8.5-8.4c2.8,0,5.2,1.1,6.5,3.3l-1.7,1.1c-1.1-1.7-2.9-2.4-4.8-2.4
					c-3.6,0-6.3,2.6-6.3,6.4c0,3.9,2.6,6.4,6.3,6.4c1.9,0,3.7-0.8,4.8-2.4l1.7,1.1c-1.3,2.1-3.7,3.3-6.5,3.3
					C1296.6,500.4,1293,496.9,1293,492z"/>
				<path class="st1" d="M1310.4,492c0-4.9,3.6-8.4,8.4-8.4s8.4,3.5,8.4,8.4s-3.6,8.4-8.4,8.4S1310.4,496.9,1310.4,492z M1325,492
					c0-3.9-2.6-6.4-6.1-6.4c-3.5,0-6.2,2.6-6.2,6.4c0,3.9,2.6,6.4,6.2,6.4S1325,495.9,1325,492z M1321.1,477.3h3l-5.1,3.9h-2.2
					L1321.1,477.3z"/>
				<path class="st1" d="M1346.9,476.9v23.3h-2.1V497c-1.4,2.2-3.7,3.4-6.4,3.4c-4.7,0-8.3-3.4-8.3-8.4c0-5,3.5-8.4,8.3-8.4
					c2.6,0,4.9,1.1,6.3,3.3v-9.9H1346.9z M1344.7,492c0-3.9-2.6-6.4-6.1-6.4c-3.5,0-6.2,2.6-6.2,6.4c0,3.9,2.6,6.4,6.2,6.4
					C1342.1,498.4,1344.7,495.9,1344.7,492z"/>
				<path class="st1" d="M1352.7,478.5c0-0.8,0.7-1.6,1.6-1.6c0.9,0,1.6,0.7,1.6,1.5c0,0.9-0.7,1.6-1.6,1.6
					C1353.4,480.1,1352.7,479.4,1352.7,478.5z M1353.2,483.7h2.2v16.5h-2.2V483.7z"/>
				<path class="st1" d="M1377,483.7v14.5c0,5.7-2.8,8.3-8.3,8.3c-3,0-6-0.9-7.7-2.5l1.1-1.7c1.6,1.4,4,2.3,6.5,2.3
					c4.2,0,6.1-1.9,6.1-6v-2.1c-1.4,2.1-3.7,3.2-6.4,3.2c-4.7,0-8.3-3.3-8.3-8.1c0-4.7,3.6-8,8.3-8c2.8,0,5.2,1.1,6.5,3.3v-3.2
					L1377,483.7L1377,483.7z M1374.8,491.6c0-3.6-2.6-6-6.3-6c-3.7,0-6.3,2.4-6.3,6c0,3.6,2.6,6.1,6.3,6.1
					C1372.1,497.7,1374.8,495.2,1374.8,491.6z"/>
				<path class="st1" d="M1381.6,492c0-4.9,3.6-8.4,8.4-8.4c4.8,0,8.4,3.5,8.4,8.4s-3.6,8.4-8.4,8.4
					C1385.1,500.4,1381.6,496.9,1381.6,492z M1396.1,492c0-3.9-2.6-6.4-6.1-6.4c-3.5,0-6.2,2.6-6.2,6.4c0,3.9,2.6,6.4,6.2,6.4
					C1393.5,498.4,1396.1,495.9,1396.1,492z"/>
				<path class="st1" d="M1408.9,498.4l1-1.8c1.3,1,3.6,1.9,5.9,1.9c3.1,0,4.4-1.1,4.4-2.7c0-4.3-10.7-0.9-10.7-7.5
					c0-2.7,2.3-4.7,6.5-4.7c2.1,0,4.5,0.6,5.9,1.5l-1,1.8c-1.5-1-3.2-1.4-4.9-1.4c-3,0-4.3,1.2-4.3,2.7c0,4.5,10.7,1.1,10.7,7.5
					c0,2.9-2.5,4.7-6.8,4.7C1412.9,500.4,1410.3,499.5,1408.9,498.4z"/>
				<path class="st1" d="M1441.5,483.7v16.5h-2.1v-3c-1.2,2-3.3,3.2-6,3.2c-4.2,0-7-2.4-7-7.1v-9.6h2.2v9.4c0,3.5,1.8,5.3,5,5.3
					c3.5,0,5.6-2.2,5.6-6v-8.7L1441.5,483.7L1441.5,483.7z"/>
				<path class="st1" d="M1441.8,505.5l0.8-1.7c0.7,0.6,1.5,0.8,2.6,0.8c1.8,0,2.7-1.1,2.7-3.1v-17.8h2.2v17.8c0,3.1-1.7,5-4.8,5
					C1444,506.5,1442.6,506.2,1441.8,505.5z M1447.4,478.5c0-0.8,0.7-1.6,1.6-1.6c0.9,0,1.6,0.7,1.6,1.5c0,0.9-0.7,1.6-1.6,1.6
					C1448.1,480.1,1447.4,479.4,1447.4,478.5z"/>
				<path class="st1" d="M1470.8,492.7H1457c0.2,3.5,2.9,5.8,6.5,5.8c2,0,3.8-0.7,5.1-2.2l1.3,1.5c-1.5,1.8-3.8,2.7-6.4,2.7
					c-5.2,0-8.7-3.5-8.7-8.4c0-4.9,3.4-8.4,8.1-8.4c4.7,0,8,3.4,8,8.4C1470.8,492.2,1470.8,492.4,1470.8,492.7z M1457,491h11.7
					c-0.3-3.2-2.6-5.5-5.9-5.5C1459.6,485.5,1457.2,487.8,1457,491z"/>
				<path class="st1" d="M1484.1,499.3c-0.9,0.8-2.2,1.2-3.5,1.2c-3.1,0-4.8-1.8-4.8-4.8v-10h-3v-1.9h3v-3.6h2.2v3.6h5v1.9h-5v9.9
					c0,2,1,3,2.9,3c0.9,0,1.8-0.3,2.4-0.8L1484.1,499.3z"/>
				<path class="st1" d="M1500.7,490v10.3h-2.1v-2.6c-1,1.7-3,2.7-5.7,2.7c-3.7,0-6-2-6-4.8c0-2.5,1.6-4.7,6.4-4.7h5.3v-1
					c0-2.8-1.6-4.4-4.7-4.4c-2.1,0-4.2,0.8-5.5,2l-1-1.7c1.7-1.4,4.1-2.2,6.7-2.2C1498.3,483.6,1500.7,485.7,1500.7,490z
					 M1498.5,495.3v-2.7h-5.2c-3.2,0-4.2,1.3-4.2,3c0,1.9,1.5,3.1,4.2,3.1C1495.7,498.7,1497.6,497.5,1498.5,495.3z"/>
				<path class="st1" d="M1527.5,490v10.3h-2.1v-2.6c-1,1.7-3,2.7-5.7,2.7c-3.7,0-6-2-6-4.8c0-2.5,1.6-4.7,6.4-4.7h5.3v-1
					c0-2.8-1.6-4.4-4.7-4.4c-2.1,0-4.2,0.8-5.5,2l-1-1.7c1.7-1.4,4.1-2.2,6.7-2.2C1525.1,483.6,1527.5,485.7,1527.5,490z
					 M1525.3,495.3v-2.7h-5.2c-3.2,0-4.2,1.3-4.2,3c0,1.9,1.5,3.1,4.2,3.1C1522.5,498.7,1524.4,497.5,1525.3,495.3z"/>
				<path class="st1" d="M1550.2,483.6v2.2c-0.2,0-0.4,0-0.5,0c-3.5,0-5.6,2.2-5.6,6.1v8.4h-2.2v-16.5h2.1v3.2
					C1545,484.7,1547.1,483.6,1550.2,483.6z"/>
				<path class="st1" d="M1568.5,492.7h-13.8c0.2,3.5,2.9,5.8,6.5,5.8c2,0,3.8-0.7,5.1-2.2l1.3,1.5c-1.5,1.8-3.8,2.7-6.4,2.7
					c-5.2,0-8.7-3.5-8.7-8.4c0-4.9,3.4-8.4,8.1-8.4s8,3.4,8,8.4C1568.5,492.2,1568.5,492.4,1568.5,492.7z M1554.6,491h11.7
					c-0.3-3.2-2.6-5.5-5.9-5.5C1557.2,485.5,1554.9,487.8,1554.6,491z"/>
				<path class="st1" d="M1586.6,483.7l-7.4,16.5h-2.3l-7.3-16.5h2.3l6.2,14.1l6.3-14.1H1586.6z"/>
				<path class="st1" d="M1589.3,478.5c0-0.8,0.7-1.6,1.6-1.6s1.6,0.7,1.6,1.5c0,0.9-0.7,1.6-1.6,1.6
					C1590,480.1,1589.3,479.4,1589.3,478.5z M1589.8,483.7h2.2v16.5h-2.2V483.7z"/>
				<path class="st1" d="M1596,498.4l1-1.8c1.3,1,3.6,1.9,5.9,1.9c3.1,0,4.4-1.1,4.4-2.7c0-4.3-10.7-0.9-10.7-7.5
					c0-2.7,2.3-4.7,6.5-4.7c2.1,0,4.5,0.6,5.9,1.5l-1,1.8c-1.5-1-3.2-1.4-4.9-1.4c-3,0-4.3,1.2-4.3,2.7c0,4.5,10.7,1.1,10.7,7.5
					c0,2.9-2.5,4.7-6.8,4.7C1600,500.4,1597.3,499.5,1596,498.4z"/>
				<path class="st1" d="M1613.1,478.5c0-0.8,0.7-1.6,1.6-1.6c0.9,0,1.6,0.7,1.6,1.5c0,0.9-0.7,1.6-1.6,1.6
					C1613.9,480.1,1613.1,479.4,1613.1,478.5z M1613.7,483.7h2.2v16.5h-2.2V483.7z"/>
				<path class="st1" d="M1620.4,492c0-4.9,3.6-8.4,8.4-8.4s8.4,3.5,8.4,8.4s-3.6,8.4-8.4,8.4S1620.4,496.9,1620.4,492z M1635,492
					c0-3.9-2.6-6.4-6.1-6.4c-3.5,0-6.2,2.6-6.2,6.4c0,3.9,2.6,6.4,6.2,6.4C1632.4,498.4,1635,495.9,1635,492z M1631.1,477.3h3
					l-5.1,3.9h-2.2L1631.1,477.3z"/>
				<path class="st1" d="M1657.1,490.7v9.6h-2.2v-9.4c0-3.5-1.8-5.3-5-5.3c-3.6,0-5.8,2.2-5.8,6v8.7h-2.2v-16.5h2.1v3.1
					c1.2-2,3.4-3.2,6.3-3.2C1654.3,483.6,1657.1,485.9,1657.1,490.7z"/>
			</g>
		</g>
	</g>
</g>
</svg>
