<svg xmlns="http://www.w3.org/2000/svg" viewBox="0 0 337.6 90.39"><defs><style>.cls-1{fill:#969;}</style></defs><title>Title</title><g id="OBJECTS"><path d="M146.38,53.05l-.08-13.73-6.54,11h-4.48l-6.54-10.55V53.05h-9.26V22.92h8.35L137.65,39l9.55-16.06h8.35l.09,30.13Z"/><path d="M181.08,47.8H169.63l-2,5.25H157.27l13.17-30.13h10L193.6,53.05H183.1Zm-2.8-7.32-2.93-7.57-2.93,7.57Z"/><path d="M208.15,45.48h-2.76v7.57H195.24V22.92h14.5A17.73,17.73,0,0,1,217,24.3a11.14,11.14,0,0,1,5,15.62,10.27,10.27,0,0,1-4.22,3.83l6.33,9.3H213.27Zm4-13.8a4.5,4.5,0,0,0-3.1-.92h-3.7v7.05h3.7a4.5,4.5,0,0,0,3.1-.92,3.33,3.33,0,0,0,1-2.61A3.32,3.32,0,0,0,212.19,31.68Z"/><path d="M239.57,43.07l-2.28,2.53v7.45h-10V22.92h10V33.85l9.9-10.93h11.06L246.2,36.18l12.65,16.87H247.1Z"/><path d="M285.28,45.39v7.66h-25V22.92h24.49v7.66H270.21v3.53H283v7.32H270.21v4Z"/><path d="M295.74,30.8h-8.83V22.92h27.81V30.8h-8.83V53.05H295.74Z"/><path class="cls-1" d="M30.46,74.17v1H22.54V64h7.68v1H23.73v4h5.79v1H23.73v4.16Z"/><path class="cls-1" d="M43.05,64V75.2h-1l-7.2-9.09V75.2H33.69V64h1l7.22,9.09V64Z"/><path class="cls-1" d="M49,74.56a5.33,5.33,0,0,1-2.09-2,6,6,0,0,1,0-5.84,5.35,5.35,0,0,1,2.1-2,6.5,6.5,0,0,1,5.31-.32,4.89,4.89,0,0,1,1.8,1.21l-.76.76A4.44,4.44,0,0,0,52.06,65a4.8,4.8,0,0,0-2.41.61,4.4,4.4,0,0,0-1.71,1.66,4.6,4.6,0,0,0-.61,2.37A4.65,4.65,0,0,0,47.94,72a4.47,4.47,0,0,0,1.71,1.66,4.8,4.8,0,0,0,2.41.61,4.37,4.37,0,0,0,3.31-1.35l.76.76a5,5,0,0,1-1.8,1.22,6.26,6.26,0,0,1-2.32.42A6.11,6.11,0,0,1,49,74.56Z"/><path class="cls-1" d="M60.74,74.55a5.52,5.52,0,0,1-2.11-2,6,6,0,0,1,0-5.82,5.38,5.38,0,0,1,2.11-2,6.45,6.45,0,0,1,6,0,5.42,5.42,0,0,1,2.1,2,5.92,5.92,0,0,1,0,5.84,5.42,5.42,0,0,1-2.1,2,6.53,6.53,0,0,1-6,0Zm5.42-.91A4.42,4.42,0,0,0,67.84,72a4.93,4.93,0,0,0,0-4.75,4.39,4.39,0,0,0-1.68-1.66,5.12,5.12,0,0,0-4.81,0,4.38,4.38,0,0,0-1.7,1.66,4.93,4.93,0,0,0,0,4.75,4.4,4.4,0,0,0,1.7,1.67,5.12,5.12,0,0,0,4.81,0Z"/><path class="cls-1" d="M82.09,64V75.2h-1l-7.2-9.09V75.2H72.73V64h1l7.21,9.09V64Z"/><path class="cls-1" d="M88.36,65H84.43V64h9v1H89.55V75.2H88.36Z"/><path class="cls-1" d="M103.47,75.2l-2.56-3.6a8.72,8.72,0,0,1-.9.05H97V75.2H95.82V64H100a5.07,5.07,0,0,1,3.36,1,3.49,3.49,0,0,1,1.22,2.82,3.58,3.58,0,0,1-.67,2.21A3.64,3.64,0,0,1,102,71.36l2.73,3.84Zm-1-5.3a2.89,2.89,0,0,0,0-4.15A3.85,3.85,0,0,0,100,65H97v5.62h3A3.85,3.85,0,0,0,102.52,69.9Z"/><path class="cls-1" d="M114.86,72.21h-6.24l-1.34,3H106L111.16,64h1.17l5.12,11.2H116.2Zm-.43-1-2.69-6-2.69,6Z"/><path class="cls-1" d="M119.76,64h1.18V74.17h6.27v1h-7.45Z"/><path class="cls-1" d="M131.28,74.55a5.52,5.52,0,0,1-2.11-2,6,6,0,0,1,0-5.82,5.38,5.38,0,0,1,2.11-2,6.45,6.45,0,0,1,6,0,5.42,5.42,0,0,1,2.1,2,5.92,5.92,0,0,1,0,5.84,5.42,5.42,0,0,1-2.1,2,6.53,6.53,0,0,1-6,0Zm5.42-.91A4.42,4.42,0,0,0,138.38,72a4.93,4.93,0,0,0,0-4.75,4.39,4.39,0,0,0-1.68-1.66,4.8,4.8,0,0,0-2.4-.6,4.87,4.87,0,0,0-2.41.6,4.35,4.35,0,0,0-1.69,1.66,4.86,4.86,0,0,0,0,4.75,4.37,4.37,0,0,0,1.69,1.67,4.87,4.87,0,0,0,2.41.6A4.8,4.8,0,0,0,136.7,73.64Z"/><path class="cls-1" d="M154.72,73H150l-.88,2.18h-3.23L150.81,64h3.12l5,11.2H155.6Zm-.93-2.33-1.44-3.59-1.44,3.59Z"/><path class="cls-1" d="M170.35,75.2l0-5.94-2.88,4.83H166l-2.87-4.67V75.2h-2.92V64h2.6l3.94,6.46L170.62,64h2.61l0,11.2Z"/><path class="cls-1" d="M183.45,73h-4.73l-.88,2.18H174.6l5-11.2h3.12l5,11.2h-3.3Zm-.93-2.33-1.44-3.59-1.44,3.59Z"/><path class="cls-1" d="M189,64h3.17v8.69h5.34V75.2H189Z"/><path class="cls-1" d="M201.46,74.67a5.81,5.81,0,0,1-2.22-8.06,5.57,5.57,0,0,1,2.22-2.08,7.07,7.07,0,0,1,6.38,0,5.8,5.8,0,0,1,2.23,8.06,5.66,5.66,0,0,1-2.23,2.08,7.16,7.16,0,0,1-6.38,0Zm4.73-2.27a2.89,2.89,0,0,0,1.09-1.13,3.69,3.69,0,0,0,0-3.34,2.83,2.83,0,0,0-1.09-1.13,3,3,0,0,0-1.54-.4,2.94,2.94,0,0,0-1.53.4A2.76,2.76,0,0,0,202,67.93a3.69,3.69,0,0,0,0,3.34,2.82,2.82,0,0,0,1.09,1.13,3,3,0,0,0,1.53.4A3.07,3.07,0,0,0,206.19,72.4Z"/><path class="cls-1" d="M220.2,74.56a5.35,5.35,0,0,1-2.1-2,6,6,0,0,1,0-5.84,5.42,5.42,0,0,1,2.1-2,6.52,6.52,0,0,1,5.32-.32,4.85,4.85,0,0,1,1.79,1.21l-.75.76A4.46,4.46,0,0,0,223.24,65a4.8,4.8,0,0,0-2.41.61,4.4,4.4,0,0,0-1.71,1.66,4.6,4.6,0,0,0-.61,2.37,4.65,4.65,0,0,0,.61,2.37,4.47,4.47,0,0,0,1.71,1.66,4.8,4.8,0,0,0,2.41.61,4.41,4.41,0,0,0,3.32-1.35l.75.76a4.83,4.83,0,0,1-1.8,1.22,6.24,6.24,0,0,1-2.31.42A6.11,6.11,0,0,1,220.2,74.56Z"/><path class="cls-1" d="M231.92,74.55a5.52,5.52,0,0,1-2.11-2,6,6,0,0,1,0-5.82,5.38,5.38,0,0,1,2.11-2,6.45,6.45,0,0,1,6,0,5.42,5.42,0,0,1,2.1,2,5.92,5.92,0,0,1,0,5.84,5.42,5.42,0,0,1-2.1,2,6.53,6.53,0,0,1-6,0Zm5.42-.91A4.42,4.42,0,0,0,239,72a4.93,4.93,0,0,0,0-4.75,4.39,4.39,0,0,0-1.68-1.66,4.8,4.8,0,0,0-2.4-.6,4.87,4.87,0,0,0-2.41.6,4.35,4.35,0,0,0-1.69,1.66,4.86,4.86,0,0,0,0,4.75,4.37,4.37,0,0,0,1.69,1.67,4.87,4.87,0,0,0,2.41.6A4.8,4.8,0,0,0,237.34,73.64Z"/><path class="cls-1" d="M255.55,64V75.2h-1.14v-9L250,73.77h-.56l-4.4-7.48V75.2h-1.13V64h1l4.86,8.3,4.82-8.3Z"/><path class="cls-1" d="M267.19,65a3.86,3.86,0,0,1,0,5.63,5.12,5.12,0,0,1-3.36,1h-3V75.2h-1.19V64h4.19A5.07,5.07,0,0,1,267.19,65Zm-.84,4.87a2.53,2.53,0,0,0,.88-2,2.57,2.57,0,0,0-.88-2.09A3.9,3.9,0,0,0,263.8,65h-3v5.6h3A3.9,3.9,0,0,0,266.35,69.89Z"/><path class="cls-1" d="M279.07,75.2l-2.56-3.6a8.72,8.72,0,0,1-.9.05h-3V75.2h-1.18V64h4.19A5.07,5.07,0,0,1,279,65a3.49,3.49,0,0,1,1.22,2.82,3.5,3.5,0,0,1-2.56,3.52l2.73,3.84Zm-.95-5.3a2.89,2.89,0,0,0,0-4.15,3.85,3.85,0,0,0-2.54-.73h-3v5.62h3A3.85,3.85,0,0,0,278.12,69.9Z"/><path class="cls-1" d="M290.46,72.21h-6.24l-1.35,3h-1.23L286.76,64h1.17l5.12,11.2H291.8Zm-.43-1-2.69-6-2.69,6Z"/><path class="cls-1" d="M295.35,64h1.19V74.17h6.27v1h-7.46Z"/><path class="cls-1" d="M306.88,74.55a5.52,5.52,0,0,1-2.11-2,6,6,0,0,1,0-5.82,5.38,5.38,0,0,1,2.11-2,6.45,6.45,0,0,1,6,0,5.42,5.42,0,0,1,2.1,2,5.92,5.92,0,0,1,0,5.84,5.42,5.42,0,0,1-2.1,2,6.53,6.53,0,0,1-6,0Zm5.42-.91A4.42,4.42,0,0,0,314,72a4.93,4.93,0,0,0,0-4.75,4.39,4.39,0,0,0-1.68-1.66,5.12,5.12,0,0,0-4.81,0,4.38,4.38,0,0,0-1.7,1.66,4.93,4.93,0,0,0,0,4.75,4.4,4.4,0,0,0,1.7,1.67,5.12,5.12,0,0,0,4.81,0Z"/><path d="M27.14,51.87A11,11,0,0,1,23,48l1.61-1.77a10.79,10.79,0,0,0,3.57,3.41,8.94,8.94,0,0,0,4.5,1.17,6.73,6.73,0,0,0,5.44-2.11q1.8-2.1,1.8-6.48V18.93H26.48V16.54H42.57V42.26q0,5.48-2.49,8.23t-7.4,2.76A11.52,11.52,0,0,1,27.14,51.87Z"/><path d="M71.06,28.18c1.8,1.71,2.7,4.24,2.7,7.57V53H71.27V48.15a9.12,9.12,0,0,1-3.81,3.72,12.63,12.63,0,0,1-6,1.33,11,11,0,0,1-7.16-2.14,7.39,7.39,0,0,1-.21-11.12q2.41-2.1,7.73-2.1h9.32V35.65a7.63,7.63,0,0,0-2.06-5.78q-2.05-2-6-2a14.41,14.41,0,0,0-5.18.94,12.86,12.86,0,0,0-4.19,2.5l-1.3-1.88a14.54,14.54,0,0,1,4.89-2.84,18,18,0,0,1,6-1C66.67,25.6,69.25,26.46,71.06,28.18ZM67.59,49.5A9.5,9.5,0,0,0,71.16,45v-5.1H61.89c-2.67,0-4.61.48-5.8,1.45a4.89,4.89,0,0,0-1.8,4,5,5,0,0,0,2,4.2,8.93,8.93,0,0,0,5.57,1.53A10.21,10.21,0,0,0,67.59,49.5Z"/><path d="M109.17,19.79a11.11,11.11,0,0,1,3.91,9,11,11,0,0,1-3.91,9q-3.9,3.25-10.78,3.25H88V53H85.32V16.54H98.39Q105.28,16.54,109.17,19.79ZM107.3,36.12a8.93,8.93,0,0,0,3.07-7.29,9,9,0,0,0-3.07-7.32q-3.08-2.58-8.91-2.58H88V38.67H98.39Q104.23,38.67,107.3,36.12Z"/></g></svg>