<svg xmlns="http://www.w3.org/2000/svg" viewBox="0 0 351.68 169.28"><defs><style>.cls-1,.cls-3{fill:#393;}.cls-2{fill:#fff;}.cls-2,.cls-3{stroke:#000;stroke-miterlimit:10;stroke-width:6px;}</style></defs><title>logo_japmarket</title><g id="OBJECTS"><path d="M157,123.19l-.09-13.74-6.54,11h-4.48l-6.54-10.54v13.26h-9.26V93.05h8.35l9.82,16.06,9.56-16.06h8.35l.08,30.14Z"/><path d="M191.69,117.93H180.24l-2,5.26H167.88l13.18-30.14h10l13.17,30.14h-10.5Zm-2.8-7.31L186,103,183,110.62Z"/><path d="M218.76,115.61H216v7.58H205.85V93.05h14.5c8.4,0,13.73,4.4,13.73,11.37a10.08,10.08,0,0,1-5.68,9.47l6.33,9.3H223.88Zm1-14.72H216V108h3.7c2.8,0,4.13-1.34,4.13-3.53S222.51,100.89,219.71,100.89Z"/><path d="M250.18,113.2l-2.28,2.54v7.45h-10V93.05h10V104l9.9-10.94h11.06l-12.05,13.26,12.66,16.88H257.71Z"/><path d="M295.89,115.52v7.67H270.84V93.05h24.49v7.67h-14.5v3.53h12.74v7.31H280.83v4Z"/><path d="M306.35,100.93h-8.82V93.05h27.8v7.88h-8.82v22.26H306.35Z"/><path class="cls-1" d="M41.08,144.31v1H33.15v-11.2h7.69v1h-6.5v4h5.79v1H34.34v4.16Z"/><path class="cls-1" d="M53.67,134.13v11.2h-1l-7.2-9.09v9.09H44.3v-11.2h1l7.22,9.09v-9.09Z"/><path class="cls-1" d="M56.77,139.73a5.63,5.63,0,0,1,5.87-5.7,5.44,5.44,0,0,1,4.1,1.63l-.75.76a4.43,4.43,0,0,0-3.31-1.33,4.64,4.64,0,1,0,0,9.28A4.4,4.4,0,0,0,66,143l.75.75a5.43,5.43,0,0,1-4.11,1.65A5.63,5.63,0,0,1,56.77,139.73Z"/><path class="cls-1" d="M68.48,139.73a5.89,5.89,0,1,1,5.89,5.7A5.65,5.65,0,0,1,68.48,139.73Zm10.58,0a4.71,4.71,0,1,0-4.69,4.64A4.54,4.54,0,0,0,79.06,139.73Z"/><path class="cls-1" d="M92.71,134.13v11.2h-1l-7.2-9.09v9.09H83.34v-11.2h1l7.22,9.09v-9.09Z"/><path class="cls-1" d="M99,135.15H95v-1h9.06v1h-3.94v10.18H99Z"/><path class="cls-1" d="M114.08,145.33l-2.56-3.6a8.37,8.37,0,0,1-.89.05h-3v3.55h-1.19v-11.2h4.2c2.85,0,4.57,1.44,4.57,3.84a3.46,3.46,0,0,1-2.56,3.52l2.74,3.84ZM114,138c0-1.79-1.18-2.82-3.43-2.82h-3v5.62h3C112.84,140.77,114,139.73,114,138Z"/><path class="cls-1" d="M125.47,142.34h-6.24l-1.34,3h-1.23l5.12-11.2H123l5.12,11.2h-1.25Zm-.43-1-2.69-6-2.69,6Z"/><path class="cls-1" d="M130.37,134.13h1.18v10.18h6.28v1h-7.46Z"/><path class="cls-1" d="M139,139.73a5.89,5.89,0,1,1,5.89,5.7A5.65,5.65,0,0,1,139,139.73Zm10.58,0a4.71,4.71,0,1,0-4.69,4.64A4.54,4.54,0,0,0,149.6,139.73Z"/><path class="cls-1" d="M165.33,143.16h-4.74l-.88,2.17h-3.23l4.94-11.2h3.13l5,11.2h-3.3Zm-.93-2.34L163,137.23l-1.44,3.59Z"/><path class="cls-1" d="M181,145.33l0-5.94-2.88,4.84h-1.41l-2.86-4.68v5.78h-2.93v-11.2h2.61l3.93,6.46,3.85-6.46h2.6l0,11.2Z"/><path class="cls-1" d="M194.07,143.16h-4.74l-.88,2.17h-3.23l4.94-11.2h3.12l5,11.2H195Zm-.93-2.34-1.44-3.59-1.44,3.59Z"/><path class="cls-1" d="M199.58,134.13h3.17v8.69h5.35v2.51h-8.52Z"/><path class="cls-1" d="M209,139.73c0-3.36,2.64-5.83,6.23-5.83s6.22,2.47,6.22,5.83-2.64,5.83-6.22,5.83S209,143.09,209,139.73Zm9.25,0a3,3,0,1,0-3,3.2A3,3,0,0,0,218.29,139.73Z"/><path class="cls-1" d="M228,139.73a5.63,5.63,0,0,1,5.88-5.7,5.44,5.44,0,0,1,4.09,1.63l-.75.76a4.43,4.43,0,0,0-3.31-1.33,4.64,4.64,0,1,0,0,9.28,4.4,4.4,0,0,0,3.31-1.34l.75.75a5.43,5.43,0,0,1-4.11,1.65A5.63,5.63,0,0,1,228,139.73Z"/><path class="cls-1" d="M239.66,139.73a5.89,5.89,0,1,1,5.89,5.7A5.65,5.65,0,0,1,239.66,139.73Zm10.58,0a4.71,4.71,0,1,0-4.69,4.64A4.54,4.54,0,0,0,250.24,139.73Z"/><path class="cls-1" d="M266.16,134.13v11.2H265v-9l-4.41,7.54h-.55l-4.41-7.49v8.91h-1.13v-11.2h1l4.87,8.31,4.82-8.31Z"/><path class="cls-1" d="M279,138c0,2.38-1.73,3.83-4.58,3.83h-3v3.53h-1.18v-11.2h4.19C277.3,134.13,279,135.57,279,138Zm-1.19,0c0-1.79-1.18-2.82-3.42-2.82h-3v5.6h3C276.66,140.75,277.84,139.73,277.84,138Z"/><path class="cls-1" d="M289.68,145.33l-2.56-3.6a8.57,8.57,0,0,1-.9.05h-3v3.55H282v-11.2h4.19c2.85,0,4.58,1.44,4.58,3.84a3.48,3.48,0,0,1-2.56,3.52l2.74,3.84Zm-.06-7.36c0-1.79-1.19-2.82-3.43-2.82h-3v5.62h3C288.43,140.77,289.62,139.73,289.62,138Z"/><path class="cls-1" d="M301.07,142.34h-6.24l-1.34,3h-1.24l5.13-11.2h1.16l5.13,11.2h-1.25Zm-.43-1-2.69-6-2.69,6Z"/><path class="cls-1" d="M306,134.13h1.18v10.18h6.28v1H306Z"/><path class="cls-1" d="M314.62,139.73a5.89,5.89,0,1,1,5.89,5.7A5.65,5.65,0,0,1,314.62,139.73Zm10.58,0a4.71,4.71,0,1,0-4.69,4.64A4.54,4.54,0,0,0,325.2,139.73Z"/><ellipse class="cls-2" cx="75.84" cy="50.94" rx="23" ry="31.5"/><polygon class="cls-3" points="108.01 51.44 115.98 120.44 36.22 120.44 44.2 51.44 108.01 51.44"/><circle cx="56.34" cy="63.94" r="3.5"/><circle cx="95.34" cy="63.94" r="3.5"/><path d="M129.14,82l1.49-1.63a8.75,8.75,0,0,0,7.44,4.22c4.46,0,6.67-2.54,6.67-7.92V55.14H132.36V52.93h14.83V76.64c0,6.77-3.12,10.13-9.12,10.13A10.48,10.48,0,0,1,129.14,82Z"/><path d="M175.94,70.64V86.53h-2.3V82.07c-1.59,2.88-4.66,4.65-9,4.65-5.61,0-9-2.88-9-7.15,0-3.79,2.4-7,9.36-7h8.59v-2c0-4.66-2.54-7.16-7.44-7.16a13,13,0,0,0-8.64,3.17l-1.2-1.73a15.34,15.34,0,0,1,10-3.55C172.49,61.28,175.94,64.45,175.94,70.64Zm-2.4,8.5V74.43H165c-5.19,0-7,2.16-7,5,0,3.26,2.54,5.28,7,5.28C169.18,84.76,172.1,82.74,173.54,79.14Z"/><path d="M212.18,64.26c0,7-5.08,11.28-13.53,11.28h-9.6v11H186.6V52.93h12.05C207.1,52.93,212.18,57.15,212.18,64.26Zm-2.49,0c0-5.81-3.84-9.12-11-9.12h-9.6V73.33h9.6C205.85,73.33,209.69,70,209.69,64.26Z"/></g></svg>