<svg xmlns="http://www.w3.org/2000/svg" xmlns:xlink="http://www.w3.org/1999/xlink" viewBox="0 0 120 120"><defs><style>.cls-1{fill:url(#linear-gradient);}.cls-2{fill:#00c;opacity:0.1;isolation:isolate;}.cls-3{fill:#6c6cff;}.cls-4{fill:#ff9d33;}.cls-5{fill:#fff;}.cls-6{fill:#ebebff;}.cls-7{fill:#ffb3b3;}.cls-8{fill:#ff4d4d;}.cls-9{fill:#969;}.cls-10{fill:#ff6c6c;}.cls-11{fill:#9494ff;}.cls-12{fill:#ffab66;}</style><linearGradient id="linear-gradient" x1="129.89" y1="-27.5" x2="-6.51" y2="-86.12" gradientTransform="matrix(1.03, 0, 0, -1.03, -3.42, 4.39)" gradientUnits="userSpaceOnUse"><stop offset="0.01" stop-color="#9494ff"/><stop offset="0.99" stop-color="#ffe8dc" stop-opacity="0"/></linearGradient></defs><title>Only Logo</title><g id="OBJECTS"><path class="cls-1" d="M90.1,50.89a36.25,36.25,0,0,0,.27-4.69C90.24,28.43,76.9,13.92,60.58,13.81,43.92,13.7,30.39,28.36,30.39,46.46a36,36,0,0,0,.28,4.43,15.76,15.76,0,0,1-6.39,14.86C17.82,70.23,14,75.93,14,82.14c0,14.39,20.79,26.05,46.43,26.05s46.43-11.66,46.43-26c0-6.21-3.87-11.91-10.33-16.39A15.73,15.73,0,0,1,90.1,50.89Z"/><path class="cls-2" d="M76.28,101.42H39.72a4.22,4.22,0,0,1-4.22-4.21V25.56a4.22,4.22,0,0,1,4.22-4.22H76.28a4.22,4.22,0,0,1,4.22,4.22V97.21a4.22,4.22,0,0,1-4.22,4.21Z"/><path class="cls-3" d="M82.87,38.23h-4.1V25.47h4.1a1.32,1.32,0,0,1,1.31,1.32V36.92A1.31,1.31,0,0,1,82.87,38.23Z"/><path class="cls-3" d="M32.53,51.36h4.7V25.47h-4.7c-.73,0-.72.59-.72,1.32V50.05C31.81,50.77,31.8,51.36,32.53,51.36Z"/><path class="cls-4" d="M76.28,97.42H39.72A4.22,4.22,0,0,1,35.5,93.2V21.55a4.21,4.21,0,0,1,4.22-4.21H76.28a4.21,4.21,0,0,1,4.22,4.21V93.2a4.22,4.22,0,0,1-4.22,4.22Z"/><path class="cls-5" d="M35.5,27.28h45v60.2h-45Z"/><path class="cls-6" d="M80.49,27.28V50.16A8.78,8.78,0,0,1,75.1,48.1a8.88,8.88,0,0,1-11.4,0,8.88,8.88,0,0,1-11.4,0,8.88,8.88,0,0,1-11.4,0,8.81,8.81,0,0,1-5.4,2.06V27.28Z"/><path class="cls-7" d="M40.9,36.74H29.5l6-9.47h9Z"/><path class="cls-8" d="M52.3,36.74H40.9l3.6-9.46h9Z"/><path class="cls-7" d="M63.7,36.74H52.3l1.2-9.46h9Z"/><path class="cls-8" d="M75.1,36.74H63.7l-1.2-9.46h9Z"/><path class="cls-7" d="M86.5,36.74H75.1l-3.6-9.46h9Z"/><path class="cls-8" d="M35.2,47a5.71,5.71,0,0,1-5.71-5.7V36.74H40.9v4.53A5.71,5.71,0,0,1,35.2,47Z"/><path class="cls-7" d="M46.6,47a5.7,5.7,0,0,1-5.7-5.7V36.74H52.3v4.53A5.7,5.7,0,0,1,46.6,47Z"/><path class="cls-8" d="M58,47a5.7,5.7,0,0,1-5.7-5.7V36.74H63.7v4.53A5.7,5.7,0,0,1,58,47Z"/><path class="cls-7" d="M69.4,47a5.7,5.7,0,0,1-5.7-5.7V36.74H75.1v4.53A5.7,5.7,0,0,1,69.4,47Z"/><path class="cls-8" d="M80.8,47a5.7,5.7,0,0,1-5.7-5.7V36.74H86.5v4.53A5.7,5.7,0,0,1,80.8,47Z"/><path class="cls-9" d="M87.45,36.73a1,1,0,0,0-.14-.5l-2.17-3.42v-6a2.27,2.27,0,0,0-2.27-2.27H81.45v-3a5.18,5.18,0,0,0-5.17-5.17H39.72a5.18,5.18,0,0,0-5.17,5.17v3h-2a1.54,1.54,0,0,0-1.52,1,3.52,3.52,0,0,0-.15,1.25v6.06l-2.17,3.42a1,1,0,0,0-.15.51v4.53a6.64,6.64,0,0,0,2.32,5v3.77A3.49,3.49,0,0,0,31,51.33a1.54,1.54,0,0,0,1.52,1h2V93.2a5.18,5.18,0,0,0,5.17,5.17H76.28a5.18,5.18,0,0,0,5.17-5.17V87.48h0V61.67H79.54V86.53H36.45V47.8a6.66,6.66,0,0,0,4.45-3.11,6.64,6.64,0,0,0,11.4,0,6.64,6.64,0,0,0,11.4,0,6.64,6.64,0,0,0,11.4,0,6.65,6.65,0,0,0,12.35-3.42V36.74Zm-6-10.3h1.42a.36.36,0,0,1,.36.36v3L81.45,27ZM80,28.23l4.8,7.56h-9l-2.88-7.56Zm-27.55,0-1,7.56H42.28l2.88-7.56Zm1.92,0h7.32l1,7.56H53.38Zm10.2,7.56-1-7.56h7.26l2.88,7.56ZM32.77,26.43h1.78V27l-1.78,2.8Zm3.54,1.36a1,1,0,0,0,.14-.51V21.55a3.27,3.27,0,0,1,3.27-3.26H76.28a3.26,3.26,0,0,1,3.26,3.26v4.77H42a1,1,0,0,0,0,1.91h1.14l-2.88,7.56h-9ZM32.77,50.41V47.46a6.62,6.62,0,0,0,1.78.43v2.52Zm46.77,38V93.2a3.26,3.26,0,0,1-3.26,3.26H39.72a3.27,3.27,0,0,1-3.27-3.26V88.43ZM35.2,46a4.75,4.75,0,0,1-4.75-4.74V37.69h9.49v3.58A4.75,4.75,0,0,1,35.2,46Zm11.4,0a4.75,4.75,0,0,1-4.75-4.74V37.69h9.49v3.58A4.75,4.75,0,0,1,46.6,46ZM58,46a4.75,4.75,0,0,1-4.75-4.74V37.69h9.5v3.58A4.75,4.75,0,0,1,58,46Zm11.4,0a4.75,4.75,0,0,1-4.75-4.74V37.69h9.5v3.58A4.75,4.75,0,0,1,69.4,46Zm16.15-4.74a4.75,4.75,0,0,1-9.5,0V37.69h9.5v3.58Z"/><path class="cls-8" d="M61.86,23.25H54.14a1,1,0,1,1,0-1.91h7.72a1,1,0,0,1,0,1.91Z"/><path class="cls-8" d="M54.12,91.13v2.41a1,1,0,0,0,1,.95h5.85a1,1,0,0,0,1-.95V91.13a1,1,0,0,0-1-1H55.07A1,1,0,0,0,54.12,91.13Z"/><path class="cls-8" d="M73.06,93.29H69.91a1,1,0,0,1,0-1.91h3.15a1,1,0,1,1,0,1.91Z"/><path class="cls-8" d="M46.08,93.29H42.93a1,1,0,0,1,0-1.91h3.15a1,1,0,1,1,0,1.91Z"/><circle class="cls-10" cx="58" cy="61.06" r="13.05"/><circle class="cls-5" cx="58" cy="61.06" r="8.92"/><path class="cls-8" d="M62.64,48.86a8.87,8.87,0,0,1-9.28,0,13.09,13.09,0,0,1,9.28,0Z"/><path class="cls-8" d="M59.31,66.08H55.69a1,1,0,1,1,0-1.9h3.62a1.09,1.09,0,0,0,0-2.17H56.68a3,3,0,0,1,0-6h3.63a1,1,0,0,1,0,1.91H56.68a1.08,1.08,0,0,0,0,2.16h2.63a3,3,0,0,1,0,6Z"/><path class="cls-8" d="M58,67.6a1,1,0,0,1-1-1V55.47a1,1,0,0,1,1.91,0V66.64A1,1,0,0,1,58,67.6Z"/><path class="cls-11" d="M66.05,78H49.94a1,1,0,0,1,0-1.91H66.05a1,1,0,1,1,0,1.91Z"/><path class="cls-11" d="M66.05,81.86H49.94a1,1,0,1,1,0-1.9H66.05a1,1,0,1,1,0,1.9Z"/><path class="cls-12" d="M73.68,57.35a1,1,0,0,1-1-1v-4a.95.95,0,1,1,1.9,0v4A1,1,0,0,1,73.68,57.35Z"/><path class="cls-12" d="M42.32,69.61a1,1,0,0,1-1-1v-4a1,1,0,0,1,1.91,0v4A1,1,0,0,1,42.32,69.61Z"/><path class="cls-3" d="M90.31,23.25a.94.94,0,0,1-.67-.28l-1.23-1.23L87.18,23a1,1,0,0,1-1.35,0,.94.94,0,0,1,0-1.35l1.9-1.91a1,1,0,0,1,1.35,0L91,21.62A1,1,0,0,1,91,23,.94.94,0,0,1,90.31,23.25Z"/><path class="cls-10" d="M24.37,41.35a1,1,0,0,1-.67-.28l-1.24-1.24-1.23,1.24a1,1,0,0,1-1.35-1.35l1.91-1.91a1,1,0,0,1,1.35,0L25,39.72a.94.94,0,0,1,0,1.35A1,1,0,0,1,24.37,41.35Z"/><path class="cls-4" d="M95.44,64a.92.92,0,0,1-.67-.28l-1.24-1.23L92.3,63.69A1,1,0,0,1,91,62.35l1.91-1.91a1,1,0,0,1,1.35,0l1.9,1.91A1,1,0,0,1,95.44,64Z"/><path class="cls-3" d="M30.26,86.72a1,1,0,0,1-.68-.28L28.35,85.2l-1.23,1.24a1,1,0,0,1-1.35-1.35l1.91-1.91a1,1,0,0,1,1.35,0l1.9,1.91a1,1,0,0,1-.67,1.63Z"/><path class="cls-10" d="M87.45,76.18a1,1,0,0,1-.67-.28,1,1,0,0,1,0-1.35l1.91-1.91A1,1,0,1,1,90,74L88.13,75.9A1,1,0,0,1,87.45,76.18Z"/></g></svg>