<svg xmlns="http://www.w3.org/2000/svg" viewBox="0 0 351.68 140.7"><defs><style>.cls-1{fill:#969;}.cls-2{fill:#6c6cff;}.cls-3{fill:#ff9d33;}.cls-4{fill:#fff;}.cls-5{fill:#ebebff;}.cls-6{fill:#ffb3b3;}.cls-7{fill:#ff4d4d;}.cls-8{fill:#ff6c6c;}.cls-9{fill:#9494ff;}.cls-10{fill:#ffab66;}</style></defs><title>Logo and title</title><g id="OBJECTS"><path d="M146,100.1l-.08-13.73-6.54,11h-4.48l-6.54-10.54V100.1h-9.26V70h8.35L137.26,86,146.81,70h8.35l.09,30.13Z"/><path d="M180.69,94.85H169.24l-2,5.25H156.88L170.05,70h10l13.17,30.13h-10.5Zm-2.8-7.32L175,80,172,87.53Z"/><path d="M207.76,92.53H205v7.57H194.85V70h14.5a17.81,17.81,0,0,1,7.28,1.38,11.14,11.14,0,0,1,5,15.62,10.36,10.36,0,0,1-4.22,3.84l6.33,9.29H212.88Zm4.05-13.8a4.57,4.57,0,0,0-3.1-.92H205v7.06h3.71a4.52,4.52,0,0,0,3.1-.93,3.81,3.81,0,0,0,0-5.21Z"/><path d="M239.18,90.12l-2.28,2.54v7.44h-10V70h10V80.91L246.8,70h11.06L245.81,83.23l12.65,16.87H246.71Z"/><path d="M284.89,92.44v7.66H259.84V70h24.49v7.66h-14.5v3.53h12.74v7.32H269.83v4Z"/><path d="M295.35,77.85h-8.83V70h27.81v7.88h-8.82V100.1H295.35Z"/><path class="cls-1" d="M41.07,121.22v1H33.15v-11.2h7.68v1H34.34v4h5.79v1H34.34v4.16Z"/><path class="cls-1" d="M53.66,111.05v11.2h-1l-7.2-9.09v9.09H44.3v-11.2h1l7.22,9.09v-9.09Z"/><path class="cls-1" d="M59.62,121.61a5.33,5.33,0,0,1-2.09-2,6,6,0,0,1,0-5.84,5.35,5.35,0,0,1,2.1-2,6.5,6.5,0,0,1,5.31-.32,4.81,4.81,0,0,1,1.8,1.21l-.76.76A4.42,4.42,0,0,0,62.67,112a4.8,4.8,0,0,0-2.41.61,4.4,4.4,0,0,0-1.71,1.66,4.6,4.6,0,0,0-.61,2.37,4.65,4.65,0,0,0,.61,2.37,4.47,4.47,0,0,0,1.71,1.66,4.8,4.8,0,0,0,2.41.61A4.37,4.37,0,0,0,66,119.94l.76.76a4.83,4.83,0,0,1-1.8,1.22,6.26,6.26,0,0,1-2.32.42A6.11,6.11,0,0,1,59.62,121.61Z"/><path class="cls-1" d="M71.35,121.6a5.52,5.52,0,0,1-2.11-2,6,6,0,0,1,0-5.82,5.38,5.38,0,0,1,2.11-2,6.45,6.45,0,0,1,6,0,5.42,5.42,0,0,1,2.1,2,5.92,5.92,0,0,1,0,5.84,5.42,5.42,0,0,1-2.1,2,6.53,6.53,0,0,1-6,0Zm5.42-.91A4.42,4.42,0,0,0,78.45,119a4.93,4.93,0,0,0,0-4.75,4.39,4.39,0,0,0-1.68-1.66,5.12,5.12,0,0,0-4.81,0,4.38,4.38,0,0,0-1.7,1.66,4.93,4.93,0,0,0,0,4.75,4.4,4.4,0,0,0,1.7,1.67,5.12,5.12,0,0,0,4.81,0Z"/><path class="cls-1" d="M92.7,111.05v11.2h-1l-7.2-9.09v9.09H83.34v-11.2h1l7.22,9.09v-9.09Z"/><path class="cls-1" d="M99,112.07H95v-1h9.06v1h-3.94v10.18H99Z"/><path class="cls-1" d="M114.08,122.25l-2.56-3.6a8.72,8.72,0,0,1-.9,0h-3v3.55h-1.19v-11.2h4.19a5.07,5.07,0,0,1,3.36,1,3.5,3.5,0,0,1,1.22,2.82,3.64,3.64,0,0,1-.66,2.21,3.71,3.71,0,0,1-1.9,1.31l2.74,3.84Zm-.94-5.3a2.89,2.89,0,0,0,0-4.15,3.9,3.9,0,0,0-2.55-.73h-3v5.62h3A3.9,3.9,0,0,0,113.14,117Z"/><path class="cls-1" d="M125.47,119.26h-6.24l-1.34,3h-1.23l5.12-11.2h1.16l5.12,11.2h-1.24Zm-.43-1-2.69-6-2.69,6Z"/><path class="cls-1" d="M130.37,111.05h1.18v10.17h6.27v1h-7.45Z"/><path class="cls-1" d="M141.9,121.6a5.48,5.48,0,0,1-2.12-2,6,6,0,0,1,0-5.82,5.34,5.34,0,0,1,2.12-2,6.43,6.43,0,0,1,6,0,5.51,5.51,0,0,1,2.11,2,6,6,0,0,1,0,5.84,5.51,5.51,0,0,1-2.11,2,6.51,6.51,0,0,1-6,0Zm5.41-.91A4.28,4.28,0,0,0,149,119a4.93,4.93,0,0,0,0-4.75,4.26,4.26,0,0,0-1.68-1.66,4.8,4.8,0,0,0-2.4-.6,4.9,4.9,0,0,0-2.41.6,4.35,4.35,0,0,0-1.69,1.66,4.86,4.86,0,0,0,0,4.75,4.37,4.37,0,0,0,1.69,1.67,4.9,4.9,0,0,0,2.41.6A4.8,4.8,0,0,0,147.31,120.69Z"/><path class="cls-1" d="M165.33,120.07h-4.74l-.88,2.18h-3.23l4.94-11.2h3.12l5,11.2h-3.29Zm-.93-2.33L163,114.15l-1.44,3.59Z"/><path class="cls-1" d="M181,122.25l0-5.94-2.88,4.83h-1.41l-2.87-4.67v5.78h-2.92v-11.2h2.6l3.94,6.46,3.84-6.46h2.61l0,11.2Z"/><path class="cls-1" d="M194.06,120.07h-4.73l-.88,2.18h-3.23l4.94-11.2h3.12l5,11.2h-3.3Zm-.92-2.33-1.44-3.59-1.44,3.59Z"/><path class="cls-1" d="M199.58,111.05h3.17v8.69h5.34v2.51h-8.51Z"/><path class="cls-1" d="M212.07,121.72a5.73,5.73,0,0,1,0-10.14,7.07,7.07,0,0,1,6.38,0,5.72,5.72,0,0,1,0,10.14,7.16,7.16,0,0,1-6.38,0Zm4.73-2.27a2.89,2.89,0,0,0,1.09-1.13,3.69,3.69,0,0,0,0-3.34,2.89,2.89,0,0,0-1.09-1.13,3.15,3.15,0,0,0-3.07,0,2.89,2.89,0,0,0-1.09,1.13,3.69,3.69,0,0,0,0,3.34,2.89,2.89,0,0,0,1.09,1.13,3.15,3.15,0,0,0,3.07,0Z"/><path class="cls-1" d="M230.81,121.61a5.42,5.42,0,0,1-2.1-2,6,6,0,0,1,0-5.84,5.38,5.38,0,0,1,2.11-2,6.12,6.12,0,0,1,3-.74,6.2,6.2,0,0,1,2.31.42,4.85,4.85,0,0,1,1.79,1.21l-.75.76a4.45,4.45,0,0,0-3.31-1.33,4.81,4.81,0,0,0-2.42.61,4.38,4.38,0,0,0-1.7,1.66,4.51,4.51,0,0,0-.62,2.37,4.56,4.56,0,0,0,.62,2.37,4.45,4.45,0,0,0,1.7,1.66,4.81,4.81,0,0,0,2.42.61,4.4,4.4,0,0,0,3.31-1.35l.75.76a4.83,4.83,0,0,1-1.8,1.22,6.24,6.24,0,0,1-2.31.42A6.11,6.11,0,0,1,230.81,121.61Z"/><path class="cls-1" d="M242.53,121.6a5.52,5.52,0,0,1-2.11-2,6,6,0,0,1,0-5.82,5.38,5.38,0,0,1,2.11-2,6.45,6.45,0,0,1,6,0,5.51,5.51,0,0,1,2.11,2,6,6,0,0,1,0,5.84,5.51,5.51,0,0,1-2.11,2,6.53,6.53,0,0,1-6,0Zm5.42-.91a4.28,4.28,0,0,0,1.68-1.67,4.93,4.93,0,0,0,0-4.75,4.26,4.26,0,0,0-1.68-1.66,4.8,4.8,0,0,0-2.4-.6,4.9,4.9,0,0,0-2.41.6,4.35,4.35,0,0,0-1.69,1.66,4.86,4.86,0,0,0,0,4.75,4.37,4.37,0,0,0,1.69,1.67,4.9,4.9,0,0,0,2.41.6A4.8,4.8,0,0,0,248,120.69Z"/><path class="cls-1" d="M266.16,111.05v11.2H265v-9l-4.4,7.53h-.56l-4.4-7.48v8.91h-1.13v-11.2h1l4.87,8.3,4.81-8.3Z"/><path class="cls-1" d="M277.81,112.07a3.88,3.88,0,0,1,0,5.63,5.12,5.12,0,0,1-3.36,1h-3v3.54h-1.19v-11.2h4.2A5.07,5.07,0,0,1,277.81,112.07Zm-.85,4.87a2.53,2.53,0,0,0,.88-2,2.58,2.58,0,0,0-.88-2.09,3.9,3.9,0,0,0-2.55-.73h-3v5.6h3A3.9,3.9,0,0,0,277,116.94Z"/><path class="cls-1" d="M289.68,122.25l-2.56-3.6a8.72,8.72,0,0,1-.9,0h-3v3.55H282v-11.2h4.19a5.07,5.07,0,0,1,3.36,1,3.5,3.5,0,0,1,1.22,2.82,3.58,3.58,0,0,1-.67,2.21,3.64,3.64,0,0,1-1.89,1.31l2.73,3.84Zm-.95-5.3a2.89,2.89,0,0,0,0-4.15,3.85,3.85,0,0,0-2.54-.73h-3v5.62h3A3.85,3.85,0,0,0,288.73,117Z"/><path class="cls-1" d="M301.07,119.26h-6.24l-1.34,3h-1.24l5.12-11.2h1.17l5.12,11.2h-1.25Zm-.43-1-2.69-6-2.69,6Z"/><path class="cls-1" d="M306,111.05h1.18v10.17h6.27v1H306Z"/><path class="cls-1" d="M317.49,121.6a5.52,5.52,0,0,1-2.11-2,6,6,0,0,1,0-5.82,5.38,5.38,0,0,1,2.11-2,6.45,6.45,0,0,1,6,0,5.42,5.42,0,0,1,2.1,2,5.92,5.92,0,0,1,0,5.84,5.42,5.42,0,0,1-2.1,2,6.53,6.53,0,0,1-6,0Zm5.42-.91a4.42,4.42,0,0,0,1.68-1.67,4.93,4.93,0,0,0,0-4.75,4.39,4.39,0,0,0-1.68-1.66,4.8,4.8,0,0,0-2.4-.6,4.87,4.87,0,0,0-2.41.6,4.35,4.35,0,0,0-1.69,1.66,4.86,4.86,0,0,0,0,4.75,4.37,4.37,0,0,0,1.69,1.67,4.87,4.87,0,0,0,2.41.6A4.8,4.8,0,0,0,322.91,120.69Z"/><path d="M122,62.42a10.13,10.13,0,0,1-3.82-3.53l1.49-1.63a9.9,9.9,0,0,0,3.29,3.14,8.24,8.24,0,0,0,4.15,1.08,6.26,6.26,0,0,0,5-1.94q1.65-1.95,1.65-6V32.06H121.36V29.85h14.83V53.56q0,5-2.3,7.58t-6.82,2.55A10.75,10.75,0,0,1,122,62.42Z"/><path d="M162.45,40.58q2.49,2.37,2.49,7V63.45h-2.3V59a8.32,8.32,0,0,1-3.51,3.44,11.66,11.66,0,0,1-5.52,1.22,10.2,10.2,0,0,1-6.6-2,6.81,6.81,0,0,1-.19-10.25q2.24-1.94,7.13-1.94h8.59v-2a7,7,0,0,0-1.89-5.32,7.71,7.71,0,0,0-5.55-1.83,13.23,13.23,0,0,0-4.77.87,11.94,11.94,0,0,0-3.87,2.3l-1.2-1.73a13.27,13.27,0,0,1,4.51-2.61,16.25,16.25,0,0,1,5.52-.94C158.4,38.2,160.78,39,162.45,40.58Zm-3.2,19.65a8.7,8.7,0,0,0,3.29-4.17V51.35H154q-3.7,0-5.35,1.35A4.46,4.46,0,0,0,147,56.39a4.66,4.66,0,0,0,1.82,3.87A8.25,8.25,0,0,0,154,61.67,9.39,9.39,0,0,0,159.25,60.23Z"/><path d="M197.58,32.85a10.24,10.24,0,0,1,3.6,8.33,10.2,10.2,0,0,1-3.6,8.28q-3.6,3-9.93,3h-9.6v11H175.6V29.85h12.05Q194,29.85,197.58,32.85Zm-1.73,15a8.25,8.25,0,0,0,2.84-6.72,8.32,8.32,0,0,0-2.84-6.75c-1.88-1.58-4.62-2.37-8.2-2.37h-9.6V50.25h9.6C191.23,50.25,194,49.46,195.85,47.9Z"/><path class="cls-2" d="M106.6,40.41h-4.1V27.65h4.1A1.31,1.31,0,0,1,107.91,29V39.1A1.31,1.31,0,0,1,106.6,40.41Z"/><path class="cls-2" d="M56.26,53.54H61V27.65h-4.7c-.73,0-.72.59-.72,1.31V52.22C55.54,53,55.53,53.54,56.26,53.54Z"/><path class="cls-3" d="M100,99.59H63.45a4.21,4.21,0,0,1-4.22-4.21V23.73a4.22,4.22,0,0,1,4.22-4.22H100a4.22,4.22,0,0,1,4.22,4.22V95.38A4.21,4.21,0,0,1,100,99.59Z"/><path class="cls-4" d="M59.23,29.45h45V89.66h-45Z"/><path class="cls-5" d="M104.22,29.45V52.34a8.84,8.84,0,0,1-5.39-2.06,8.88,8.88,0,0,1-11.4,0,8.88,8.88,0,0,1-11.4,0,8.88,8.88,0,0,1-11.4,0,8.87,8.87,0,0,1-5.4,2.06V29.45Z"/><path class="cls-6" d="M64.63,38.92H53.23l6-9.47h9Z"/><path class="cls-7" d="M76,38.92H64.63l3.6-9.47h9Z"/><path class="cls-6" d="M87.43,38.92H76l1.2-9.47h9Z"/><path class="cls-7" d="M98.83,38.92H87.43l-1.2-9.47h9Z"/><path class="cls-6" d="M110.23,38.92H98.83l-3.6-9.47h9Z"/><path class="cls-7" d="M58.93,49.14a5.71,5.71,0,0,1-5.71-5.7V38.92H64.63v4.52A5.7,5.7,0,0,1,58.93,49.14Z"/><path class="cls-6" d="M70.33,49.14a5.7,5.7,0,0,1-5.7-5.7V38.92H76v4.52A5.7,5.7,0,0,1,70.33,49.14Z"/><path class="cls-7" d="M81.73,49.14a5.7,5.7,0,0,1-5.7-5.7V38.92h11.4v4.52a5.7,5.7,0,0,1-5.7,5.7Z"/><path class="cls-6" d="M93.13,49.14a5.7,5.7,0,0,1-5.7-5.7V38.92h11.4v4.52A5.7,5.7,0,0,1,93.13,49.14Z"/><path class="cls-7" d="M104.53,49.14a5.7,5.7,0,0,1-5.7-5.7V38.92h11.4v4.52A5.7,5.7,0,0,1,104.53,49.14Z"/><path class="cls-1" d="M111.18,38.9a.93.93,0,0,0-.14-.49L108.87,35V29a2.27,2.27,0,0,0-2.27-2.26h-1.42v-3A5.18,5.18,0,0,0,100,18.56H63.45a5.18,5.18,0,0,0-5.17,5.17v3h-2a1.54,1.54,0,0,0-1.52,1,3.52,3.52,0,0,0-.15,1.25V35l-2.17,3.42a1,1,0,0,0-.15.51v4.52a6.62,6.62,0,0,0,2.32,5v3.78a3.52,3.52,0,0,0,.15,1.25,1.55,1.55,0,0,0,1.52,1h2V95.38a5.18,5.18,0,0,0,5.17,5.17H100a5.18,5.18,0,0,0,5.17-5.17V89.66h0V63.84h-1.91V88.7H60.18V50a6.7,6.7,0,0,0,4.45-3.11,6.64,6.64,0,0,0,11.4,0,6.64,6.64,0,0,0,11.4,0,6.64,6.64,0,0,0,11.4,0,6.65,6.65,0,0,0,12.35-3.43V38.9Zm-6-10.3h1.42A.36.36,0,0,1,107,29v3l-1.78-2.8Zm-1.48,1.81L108.5,38h-9l-2.88-7.55Zm-27.55,0-1,7.55H66l2.88-7.55Zm1.92,0h7.32l1,7.55H77.11ZM88.27,38l-1-7.55h7.26L97.45,38ZM56.5,28.6h1.78v.58L56.5,32ZM60,30a.94.94,0,0,0,.14-.51V23.73a3.27,3.27,0,0,1,3.27-3.26H100a3.26,3.26,0,0,1,3.26,3.26V28.5H65.71a1,1,0,0,0,0,1.91h1.14L64,38H55ZM56.5,52.58V49.64a6.61,6.61,0,0,0,1.78.42v2.52Zm46.77,38v4.77A3.26,3.26,0,0,1,100,98.64H63.45a3.27,3.27,0,0,1-3.27-3.26V90.61ZM58.93,48.19a4.75,4.75,0,0,1-4.75-4.75V39.87h9.49v3.57A4.75,4.75,0,0,1,58.93,48.19Zm11.4,0a4.75,4.75,0,0,1-4.75-4.75V39.87h9.49v3.57A4.75,4.75,0,0,1,70.33,48.19Zm11.4,0A4.75,4.75,0,0,1,77,43.44V39.87h9.5v3.57a4.75,4.75,0,0,1-4.75,4.75Zm11.4,0a4.75,4.75,0,0,1-4.75-4.75V39.87h9.5v3.57A4.75,4.75,0,0,1,93.13,48.19Zm16.15-4.75a4.75,4.75,0,0,1-9.5,0V39.87h9.5v3.57Z"/><path class="cls-7" d="M85.59,25.42H77.87a1,1,0,1,1,0-1.9h7.72a1,1,0,1,1,0,1.9Z"/><path class="cls-7" d="M77.85,93.3v2.42a1,1,0,0,0,1,1h5.85a1,1,0,0,0,1-1V93.3a1,1,0,0,0-1-1H78.8A1,1,0,0,0,77.85,93.3Z"/><path class="cls-7" d="M96.79,95.46H93.64a1,1,0,1,1,0-1.9h3.15a1,1,0,1,1,0,1.9Z"/><path class="cls-7" d="M69.81,95.46H66.66a1,1,0,1,1,0-1.9h3.15a1,1,0,1,1,0,1.9Z"/><circle class="cls-8" cx="81.73" cy="63.23" r="13.05"/><circle class="cls-4" cx="81.73" cy="63.23" r="8.92"/><path class="cls-7" d="M86.37,51a8.87,8.87,0,0,1-9.28,0,13.09,13.09,0,0,1,9.28,0Z"/><path class="cls-7" d="M83,68.26H79.42a1,1,0,1,1,0-1.91H83a1.08,1.08,0,0,0,0-2.16H80.41a3,3,0,0,1,0-6H84a1,1,0,0,1,0,1.91H80.41a1.08,1.08,0,0,0,0,2.16H83a3,3,0,0,1,0,6Z"/><path class="cls-7" d="M81.73,69.77a1,1,0,0,1-1-1V57.65a1,1,0,1,1,1.91,0V68.82A1,1,0,0,1,81.73,69.77Z"/><path class="cls-9" d="M89.78,80.2H73.67a1,1,0,0,1,0-1.91H89.78a1,1,0,1,1,0,1.91Z"/><path class="cls-9" d="M89.78,84H73.67a1,1,0,0,1,0-1.91H89.78a1,1,0,1,1,0,1.91Z"/><path class="cls-10" d="M97.41,59.53a1,1,0,0,1-1-1v-4a1,1,0,1,1,1.9,0v4A1,1,0,0,1,97.41,59.53Z"/><path class="cls-10" d="M66.05,71.78a1,1,0,0,1-1-1v-4a1,1,0,1,1,1.91,0v4A1,1,0,0,1,66.05,71.78Z"/><path class="cls-8" d="M48.1,43.52a.92.92,0,0,1-.67-.28L46.19,42,45,43.24a1,1,0,0,1-1.35-1.35L45.52,40a1,1,0,0,1,1.35,0l1.9,1.9a.94.94,0,0,1,0,1.35A.92.92,0,0,1,48.1,43.52Z"/><path class="cls-2" d="M54,88.89a.94.94,0,0,1-.68-.28l-1.23-1.23-1.23,1.23a1,1,0,1,1-1.35-1.35l1.91-1.9a1,1,0,0,1,1.35,0l1.9,1.9a1,1,0,0,1,0,1.35A.92.92,0,0,1,54,88.89Z"/></g></svg>