<svg xmlns="http://www.w3.org/2000/svg" viewBox="0 0 337.6 87.39"><defs><style>.cls-1{fill:#636363;}.cls-2{fill:#393;}</style></defs><title>logo_japmarket</title><g id="OBJECTS"><path class="cls-1" d="M15.76,45.42l1.49-1.63A8.77,8.77,0,0,0,24.69,48c4.47,0,6.67-2.54,6.67-7.92V18.59H19V16.38H33.81V40.09c0,6.77-3.12,10.13-9.12,10.13A10.5,10.5,0,0,1,15.76,45.42Z"/><path class="cls-1" d="M62.56,34.09V50h-2.3V45.52c-1.58,2.88-4.66,4.65-9,4.65-5.62,0-9-2.88-9-7.15,0-3.79,2.4-7,9.36-7h8.59V34c0-4.65-2.54-7.15-7.44-7.15A13,13,0,0,0,44.08,30l-1.2-1.73a15.3,15.3,0,0,1,10-3.55C59.11,24.73,62.56,27.9,62.56,34.09Zm-2.4,8.5V37.88H51.62c-5.19,0-7,2.16-7,5,0,3.27,2.55,5.28,7,5.28C55.8,48.2,58.72,46.19,60.16,42.59Z"/><path class="cls-1" d="M98.8,27.71c0,7-5.08,11.28-13.53,11.28h-9.6V50H73.22V16.38h12C93.72,16.38,98.8,20.6,98.8,27.71Zm-2.49,0c0-5.81-3.84-9.12-11-9.12h-9.6V36.78h9.6C92.47,36.78,96.31,33.47,96.31,27.71Z"/><path class="cls-1" d="M134.42,50l-.1-15.31L127,47h-5L114.74,35.2V50H104.42V16.38h9.31l11,17.9,10.65-17.9h9.32l.09,33.6Z"/><path class="cls-1" d="M173.11,44.12H160.34L158.08,50H146.56l14.69-33.6h11.14L187.08,50H175.36ZM170,36l-3.27-8.45L163.46,36Z"/><path class="cls-1" d="M203.3,41.53h-3.07V50H188.9V16.38h16.18c9.36,0,15.31,4.89,15.31,12.67a11.25,11.25,0,0,1-6.34,10.56L221.11,50H209Zm1.06-16.42h-4.13V33h4.13c3.12,0,4.6-1.49,4.6-3.94S207.48,25.11,204.36,25.11Z"/><path class="cls-1" d="M238.34,38.84l-2.55,2.84V50H224.66V16.38h11.13V28.57l11.05-12.19h12.33L245.73,31.16,259.84,50h-13.1Z"/><path class="cls-1" d="M289.32,41.44V50H261.38V16.38h27.31v8.54H272.51v3.94h14.21V37H272.51v4.42Z"/><path class="cls-1" d="M301,25.16h-9.84V16.38h31v8.78h-9.84V50H301Z"/><path class="cls-2" d="M23,72.32v1H15.11V62.14h7.68v1h-6.5v4h5.79v1H16.29v4.17Z"/><path class="cls-2" d="M36.37,62.14v11.2h-1l-7.21-9.09v9.09H27V62.14h1l7.21,9.09V62.14Z"/><path class="cls-2" d="M40.23,67.74A5.62,5.62,0,0,1,46.1,62a5.44,5.44,0,0,1,4.1,1.63l-.75.75a4.49,4.49,0,0,0-3.32-1.32,4.64,4.64,0,1,0,0,9.28A4.41,4.41,0,0,0,49.45,71l.75.76a5.47,5.47,0,0,1-4.12,1.65A5.62,5.62,0,0,1,40.23,67.74Z"/><path class="cls-2" d="M52.69,67.74a5.88,5.88,0,1,1,5.89,5.7A5.64,5.64,0,0,1,52.69,67.74Zm10.58,0a4.71,4.71,0,1,0-4.69,4.64A4.53,4.53,0,0,0,63.27,67.74Z"/><path class="cls-2" d="M77.67,62.14v11.2h-1l-7.2-9.09v9.09H68.3V62.14h1l7.22,9.09V62.14Z"/><path class="cls-2" d="M84.69,63.16H80.75v-1h9.06v1H85.87V73.34H84.69Z"/><path class="cls-2" d="M100.55,73.34,98,69.74a8.57,8.57,0,0,1-.9.05h-3v3.55H92.9V62.14h4.19c2.85,0,4.58,1.44,4.58,3.84a3.48,3.48,0,0,1-2.56,3.52l2.73,3.84ZM100.48,66c0-1.8-1.18-2.82-3.42-2.82h-3v5.62h3C99.3,68.78,100.48,67.74,100.48,66Z"/><path class="cls-2" d="M112.69,70.35h-6.24l-1.35,3h-1.23L109,62.14h1.17l5.12,11.2H114Zm-.43-1-2.69-6-2.69,6Z"/><path class="cls-2" d="M118.34,62.14h1.18V72.32h6.28v1h-7.46Z"/><path class="cls-2" d="M127.74,67.74a5.89,5.89,0,1,1,5.89,5.7A5.64,5.64,0,0,1,127.74,67.74Zm10.58,0a4.71,4.71,0,1,0-4.69,4.64A4.53,4.53,0,0,0,138.32,67.74Z"/><path class="cls-2" d="M155.78,70.35h-6.24l-1.35,3H147l5.12-11.2h1.17l5.12,11.2h-1.25Zm-.43-1-2.69-6-2.69,6Z"/><path class="cls-2" d="M173.06,62.14v11.2h-1.14v-9l-4.4,7.53H167l-4.4-7.49v8.92h-1.14V62.14h1l4.87,8.3,4.81-8.3Z"/><path class="cls-2" d="M184.93,70.35h-6.24l-1.35,3h-1.23l5.12-11.2h1.17l5.12,11.2h-1.24Zm-.43-1-2.69-6-2.69,6Z"/><path class="cls-2" d="M190.58,62.14h1.18V72.32H198v1h-7.45Z"/><path class="cls-2" d="M200,67.74a5.89,5.89,0,1,1,5.89,5.7A5.64,5.64,0,0,1,200,67.74Zm10.58,0a4.71,4.71,0,1,0-4.69,4.64A4.53,4.53,0,0,0,210.56,67.74Z"/><path class="cls-2" d="M220,67.74a5.63,5.63,0,0,1,5.87-5.7,5.41,5.41,0,0,1,4.1,1.63l-.75.75a4.45,4.45,0,0,0-3.31-1.32,4.64,4.64,0,1,0,0,9.28A4.37,4.37,0,0,0,229.22,71l.75.76a5.43,5.43,0,0,1-4.11,1.65A5.63,5.63,0,0,1,220,67.74Z"/><path class="cls-2" d="M232.46,67.74a5.89,5.89,0,1,1,5.89,5.7A5.64,5.64,0,0,1,232.46,67.74Zm10.58,0a4.71,4.71,0,1,0-4.69,4.64A4.53,4.53,0,0,0,243,67.74Z"/><path class="cls-2" d="M259.72,62.14v11.2h-1.14v-9l-4.4,7.53h-.56l-4.4-7.49v8.92h-1.14V62.14h1l4.86,8.3,4.82-8.3Z"/><path class="cls-2" d="M273.33,66c0,2.38-1.73,3.82-4.58,3.82h-3v3.54h-1.18V62.14h4.19C271.6,62.14,273.33,63.58,273.33,66Zm-1.18,0c0-1.8-1.19-2.82-3.43-2.82h-3v5.6h3C271,68.76,272.15,67.74,272.15,66Z"/><path class="cls-2" d="M284.74,73.34l-2.56-3.6a8.57,8.57,0,0,1-.9.05h-3v3.55h-1.18V62.14h4.19c2.85,0,4.58,1.44,4.58,3.84a3.48,3.48,0,0,1-2.56,3.52L286,73.34ZM284.67,66c0-1.8-1.18-2.82-3.42-2.82h-3v5.62h3C283.49,68.78,284.67,67.74,284.67,66Z"/><path class="cls-2" d="M296.88,70.35h-6.24l-1.35,3h-1.23l5.12-11.2h1.17l5.12,11.2h-1.24Zm-.43-1-2.69-6-2.69,6Z"/><path class="cls-2" d="M302.53,62.14h1.18V72.32H310v1h-7.46Z"/><path class="cls-2" d="M311.93,67.74a5.89,5.89,0,1,1,5.89,5.7A5.64,5.64,0,0,1,311.93,67.74Zm10.59,0a4.71,4.71,0,1,0-4.7,4.64A4.54,4.54,0,0,0,322.52,67.74Z"/></g></svg>