<svg xmlns="http://www.w3.org/2000/svg" viewBox="0 0 253.12 213.25"><defs><style>.cls-1,.cls-3{fill:#393;stroke:#393;}.cls-1,.cls-2,.cls-3,.cls-4{stroke-miterlimit:10;}.cls-1,.cls-2{stroke-width:2px;}.cls-2,.cls-4{fill:#727272;stroke:#727272;}.cls-3,.cls-4{stroke-width:3px;}</style></defs><title>logo_japmarket</title><g id="OBJECTS"><path class="cls-1" d="M98.67,115H103l-3.6-10.31a2,2,0,0,0-1.88-1.35,2,2,0,0,0-1.64.82,1.87,1.87,0,0,0-.24,1.69Z"/><path class="cls-1" d="M74.93,117.33l5.73-11.46a1.87,1.87,0,0,0-.23-1.69,2,2,0,0,0-1.65-.82,2,2,0,0,0-1.88,1.35L70.83,117Z"/><path class="cls-1" d="M90.82,183.06H80.65l-4.81-7.57H87.19l-1.88-3.93h-12l-5.12-8.06H81.44l-1.88-3.93H65.72l-5.26-8.27H75.59l-1.89-3.93H58L53.29,140H70.18l.72-3.93H65.54l2.24-4.47-2.11-4.17-4.27,8.64H30.87a2,2,0,0,0-1.71,1,1.91,1.91,0,0,0,0,2l24.54,40.48c.27.43.59,1.11.93,1.81,1,2.09,2.15,4.45,3.69,5.36a5.79,5.79,0,0,0,2.94.58c1,0,2-.1,2.94-.19.68-.06,1.31-.12,1.73-.12H92.71ZM34.36,140H48.63l4.67,7.35H38.81Zm6.83,11.28H55.8l5.27,8.27H46.21Zm12.28,20.26-4.88-8.06h15l5.11,8.06Zm7,11.5-4.59-7.57H71.18L76,183.06Z"/><path class="cls-2" d="M216.72,72.42h-23.8a1.89,1.89,0,0,0-1.79,1.36l-20.25,61.81h-11.2l5.76-18.23a1.59,1.59,0,0,0-.44-1.75,1.7,1.7,0,0,0-1.34-.59H60.72a1.87,1.87,0,0,0-1.59,2.78l31.95,68.29a1.81,1.81,0,0,0,1.59.92h8.62a8.7,8.7,0,1,0,13.3,0h17.58a8.7,8.7,0,1,0,13.3,0h11.11a1.88,1.88,0,0,0,1.78-1.36q18-54.77,35.9-109.53h22.46A1.85,1.85,0,0,0,216.72,72.42Zm-90.54,46.3h35l-5.34,16.87H126.18Zm0,20.57h28.46l-6.75,21.36H126.18ZM63.62,118.72h20q2.67,8.43,5.33,16.87H71.51Zm9.62,20.57H90.15l6.75,21.36H83.24Q78.25,150,73.24,139.29Zm20.6,44q-4.43-9.48-8.87-19h13.1q3,9.48,6,19H93.84Zm28.64,0H107.94q-3-9.48-6-19h20.53Zm0-22.66h-21.7L94,139.29h28.45Zm0-25.06H92.86q-2.67-8.43-5.33-16.87h35Zm3.7,28.76h20.54q-3,9.48-6,19H126.18Zm29.06,19H144.6q3-9.48,6-19h10.87Q158.35,173.83,155.24,183.31Zm7.43-22.66H151.76l6.75-21.36h11.16Q166.18,150,162.67,160.65Z"/><path class="cls-1" d="M153.93,90.57H117.48c.17,7.31,4.38,11.27,13.24,11.27,5.24,0,10.06-1.72,13.24-4.73l4.47,7.48c-4.81,4.3-11.78,6.36-18.83,6.36C115.76,111,107,103,107,90.74c0-15.56,11.09-26.82,26.48-26.82,12.73,0,21.15,7.56,21.15,20.12A31.07,31.07,0,0,1,153.93,90.57Zm-35.51-7.13h26.31c.09-7-4.64-10.92-11.78-10.92C125.65,72.52,120.4,76.73,118.42,83.44Z"/><path class="cls-3" d="M125.29,9.18A118.14,118.14,0,0,1,228,70.46c22.8,41.49,16.62,93.61-13,130-1.34,1.64-3.65-.7-2.32-2.33A114.74,114.74,0,0,0,224.31,70.6c-19.7-35.85-58.41-57.81-99-58.13-2.11,0-2.12-3.31,0-3.29Z"/><path class="cls-4" d="M126.36,12.47a114.8,114.8,0,0,0-99,58.13C4.41,110.91,10,162.44,39.05,198.09c1.32,1.63-1,4-2.33,2.33a118.15,118.15,0,0,1-13-130C43.65,32.77,84,9.51,126.36,9.18a1.65,1.65,0,0,1,0,3.29Z"/></g></svg>