<svg xmlns="http://www.w3.org/2000/svg" viewBox="0 0 337.6 90.39"><defs><style>.cls-1{fill:#393;}</style></defs><title>logo_japmarket</title><g id="OBJECTS"><path d="M146.39,53.05l-.09-13.73-6.54,11h-4.48l-6.54-10.55V53.05h-9.26V22.92h8.35l9.82,16,9.55-16h8.35l.09,30.13Z"/><path d="M181.08,47.8H169.63l-2,5.25H157.27l13.17-30.13h10L193.6,53.05H183.1Zm-2.8-7.32-2.93-7.57-2.93,7.57Z"/><path d="M208.15,45.47h-2.76v7.58H195.24V22.92h14.5c8.4,0,13.73,4.39,13.73,11.36a10.08,10.08,0,0,1-5.68,9.47l6.33,9.3H213.27Zm.95-14.72h-3.71v7.06h3.71c2.79,0,4.13-1.33,4.13-3.53S211.89,30.75,209.1,30.75Z"/><path d="M239.57,43.06l-2.28,2.54v7.45h-10V22.92h10V33.85l9.9-10.93h11.06L246.2,36.18l12.65,16.87H247.1Z"/><path d="M285.28,45.39v7.66h-25V22.92h24.49v7.66h-14.5v3.53H283v7.32H270.22v4Z"/><path d="M295.74,30.8h-8.83V22.92h27.81V30.8H305.9V53.05H295.74Z"/><path class="cls-1" d="M30.47,74.17v1H22.54V64h7.69v1h-6.5v4h5.79v1H23.73v4.16Z"/><path class="cls-1" d="M43.06,64V75.2h-1l-7.2-9.09V75.2H33.69V64h1l7.22,9.09V64Z"/><path class="cls-1" d="M46.16,69.6A5.62,5.62,0,0,1,52,63.9a5.42,5.42,0,0,1,4.1,1.63l-.75.75A4.46,4.46,0,0,0,52.06,65a4.65,4.65,0,1,0,0,9.29,4.41,4.41,0,0,0,3.32-1.35l.75.75A5.44,5.44,0,0,1,52,75.29,5.61,5.61,0,0,1,46.16,69.6Z"/><path class="cls-1" d="M57.87,69.6a5.88,5.88,0,1,1,5.89,5.69A5.64,5.64,0,0,1,57.87,69.6Zm10.58,0a4.71,4.71,0,1,0-4.69,4.64A4.54,4.54,0,0,0,68.45,69.6Z"/><path class="cls-1" d="M82.1,64V75.2h-1l-7.2-9.09V75.2H72.73V64h1l7.22,9.09V64Z"/><path class="cls-1" d="M88.37,65H84.43V64h9.06v1H89.55V75.2H88.37Z"/><path class="cls-1" d="M103.47,75.2l-2.56-3.6a8.45,8.45,0,0,1-.89,0H97V75.2H95.82V64H100c2.84,0,4.57,1.44,4.57,3.84A3.48,3.48,0,0,1,102,71.36l2.74,3.84Zm-.06-7.37C103.41,66,102.22,65,100,65H97v5.62h3C102.22,70.64,103.41,69.6,103.41,67.83Z"/><path class="cls-1" d="M114.86,72.2h-6.24l-1.34,3H106L111.17,64h1.17l5.12,11.21h-1.25Zm-.43-1-2.69-6-2.69,6Z"/><path class="cls-1" d="M119.76,64h1.18V74.17h6.28v1h-7.46Z"/><path class="cls-1" d="M128.41,69.6a5.89,5.89,0,1,1,5.89,5.69A5.64,5.64,0,0,1,128.41,69.6Zm10.58,0a4.71,4.71,0,1,0-4.69,4.64A4.54,4.54,0,0,0,139,69.6Z"/><path class="cls-1" d="M154.72,73H150l-.88,2.18h-3.23L150.81,64h3.13l5,11.21h-3.3Zm-.93-2.34-1.44-3.58-1.44,3.58Z"/><path class="cls-1" d="M170.35,75.2l0-5.94-2.88,4.83H166l-2.86-4.67V75.2h-2.93V64h2.61l3.93,6.47L170.62,64h2.61l0,11.21Z"/><path class="cls-1" d="M183.46,73h-4.74l-.88,2.18H174.6l5-11.21h3.12l5,11.21h-3.29Zm-.93-2.34-1.44-3.58-1.44,3.58Z"/><path class="cls-1" d="M189,64h3.17v8.69h5.35V75.2H189Z"/><path class="cls-1" d="M198.43,69.6c0-3.37,2.64-5.83,6.22-5.83s6.23,2.46,6.23,5.83-2.64,5.82-6.23,5.82S198.43,73,198.43,69.6Zm9.25,0a3,3,0,1,0-3,3.2A3,3,0,0,0,207.68,69.6Z"/><path class="cls-1" d="M217.34,69.6a5.62,5.62,0,0,1,5.87-5.7,5.41,5.41,0,0,1,4.1,1.63l-.75.75A4.43,4.43,0,0,0,223.25,65a4.65,4.65,0,1,0,0,9.29,4.37,4.37,0,0,0,3.31-1.35l.75.75a5.43,5.43,0,0,1-4.11,1.65A5.62,5.62,0,0,1,217.34,69.6Z"/><path class="cls-1" d="M229.05,69.6a5.89,5.89,0,1,1,5.89,5.69A5.64,5.64,0,0,1,229.05,69.6Zm10.58,0a4.71,4.71,0,1,0-4.69,4.64A4.54,4.54,0,0,0,239.63,69.6Z"/><path class="cls-1" d="M255.55,64V75.2h-1.13v-9L250,73.77h-.56l-4.4-7.49V75.2h-1.13V64h1l4.87,8.31L254.58,64Z"/><path class="cls-1" d="M268.42,67.83c0,2.39-1.73,3.83-4.58,3.83h-3V75.2h-1.19V64h4.2C266.69,64,268.42,65.43,268.42,67.83Zm-1.19,0c0-1.79-1.18-2.81-3.42-2.81h-3v5.6h3C266.05,70.62,267.23,69.6,267.23,67.83Z"/><path class="cls-1" d="M279.07,75.2l-2.56-3.6a8.64,8.64,0,0,1-.9,0h-3V75.2h-1.18V64h4.19c2.85,0,4.58,1.44,4.58,3.84a3.48,3.48,0,0,1-2.56,3.53l2.74,3.84ZM279,67.83C279,66,277.82,65,275.58,65h-3v5.62h3C277.82,70.64,279,69.6,279,67.83Z"/><path class="cls-1" d="M290.46,72.2h-6.24l-1.35,3h-1.23L286.76,64h1.17l5.12,11.21h-1.24Zm-.43-1-2.69-6-2.69,6Z"/><path class="cls-1" d="M295.36,64h1.18V74.17h6.27v1h-7.45Z"/><path class="cls-1" d="M304,69.6a5.89,5.89,0,1,1,5.89,5.69A5.64,5.64,0,0,1,304,69.6Zm10.58,0a4.71,4.71,0,1,0-4.69,4.64A4.54,4.54,0,0,0,314.59,69.6Z"/><path d="M23,48l1.61-1.77a9.5,9.5,0,0,0,8.07,4.58c4.85,0,7.24-2.76,7.24-8.59V18.93H26.49v-2.4H42.58V42.26c0,7.34-3.39,11-9.9,11A11.38,11.38,0,0,1,23,48Z"/><path d="M73.77,35.75V53h-2.5V48.14c-1.72,3.13-5,5.06-9.79,5.06-6.1,0-9.79-3.13-9.79-7.76,0-4.12,2.6-7.61,10.15-7.61h9.32V35.65c0-5-2.76-7.76-8.07-7.76a14.1,14.1,0,0,0-9.37,3.43l-1.3-1.87A16.52,16.52,0,0,1,63.3,25.6C70,25.6,73.77,29,73.77,35.75ZM71.16,45V39.86H61.89c-5.62,0-7.6,2.35-7.6,5.47,0,3.54,2.76,5.73,7.55,5.73C66.43,51.06,69.6,48.87,71.16,45Z"/><path d="M113.08,28.82c0,7.66-5.52,12.24-14.68,12.24H88V53H85.33V16.53H98.4C107.56,16.53,113.08,21.12,113.08,28.82Zm-2.7,0c0-6.3-4.17-9.89-12-9.89H88V38.67H98.4C106.21,38.67,110.38,35.07,110.38,28.82Z"/></g></svg>