<?xml version="1.0" encoding="utf-8"?>
<!-- Generator: Adobe Illustrator 24.0.0, SVG Export Plug-In . SVG Version: 6.00 Build 0)  -->
<svg version="1.1" id="Layer_1" xmlns="http://www.w3.org/2000/svg" xmlns:xlink="http://www.w3.org/1999/xlink" x="0px" y="0px"
	 viewBox="0 0 337.6 90.4" style="enable-background:new 0 0 337.6 90.4;" xml:space="preserve">
<style type="text/css">
	.st0{fill:#FFFFFF;}
</style>
<title>logo_japmarket</title>
<path class="st0" d="M146.4,53l-0.1-13.7l-6.5,11h-4.5l-6.5-10.5V53h-9.3V22.9h8.3l9.8,16l9.6-16h8.4l0.1,30.1L146.4,53z"/>
<path class="st0" d="M181.1,47.8h-11.4l-2,5.3h-10.4l13.2-30.1h10L193.6,53h-10.5L181.1,47.8z M178.3,40.5l-2.9-7.6l-2.9,7.6H178.3z
	"/>
<path class="st0" d="M208.1,45.5h-2.8v7.6h-10.1V22.9h14.5c8.4,0,13.7,4.4,13.7,11.4c0.2,4-2.1,7.7-5.7,9.5l6.3,9.3h-10.9
	L208.1,45.5z M209.1,30.8h-3.7v7.1h3.7c2.8,0,4.1-1.3,4.1-3.5S211.9,30.8,209.1,30.8L209.1,30.8z"/>
<path class="st0" d="M239.6,43.1l-2.3,2.5v7.5h-10V22.9h10v10.9l9.9-10.9h11.1l-12.1,13.3l12.7,16.9h-11.8L239.6,43.1z"/>
<path class="st0" d="M285.3,45.4V53h-25V22.9h24.5v7.7h-14.5v3.5H283v7.3h-12.8v4L285.3,45.4z"/>
<path class="st0" d="M295.7,30.8h-8.8v-7.9h27.8v7.9h-8.8V53h-10.2V30.8z"/>
<path class="st0" d="M30.5,74.2v1h-7.9V64h7.7v1h-6.5v4h5.8v1h-5.8v4.2L30.5,74.2z"/>
<path class="st0" d="M43.1,64v11.2h-1l-7.2-9.1v9.1h-1.2V64h1l7.2,9.1V64H43.1z"/>
<path class="st0" d="M46.2,69.6c0-3.1,2.4-5.7,5.5-5.7c0.1,0,0.2,0,0.3,0c1.5-0.1,3,0.5,4.1,1.6l-0.8,0.8c-0.9-0.9-2.1-1.3-3.3-1.3
	c-2.6-0.1-4.7,1.9-4.9,4.4c-0.1,2.6,1.9,4.7,4.4,4.9c0.1,0,0.3,0,0.4,0c1.2,0,2.5-0.5,3.3-1.3l0.8,0.8c-1.1,1.1-2.6,1.7-4.1,1.6
	c-3.1,0.1-5.7-2.3-5.8-5.4C46.2,69.8,46.2,69.7,46.2,69.6z"/>
<path class="st0" d="M57.9,69.6c-0.1-3.2,2.4-6,5.7-6.1c3.2-0.1,6,2.4,6.1,5.7c0.1,3.2-2.4,6-5.7,6.1c-0.1,0-0.1,0-0.2,0
	c-3.1,0.1-5.7-2.3-5.9-5.4C57.9,69.8,57.9,69.7,57.9,69.6z M68.4,69.6c0-2.6-2-4.7-4.6-4.8s-4.7,2-4.8,4.6s2,4.7,4.6,4.8
	c0,0,0.1,0,0.1,0c2.5,0.1,4.6-1.9,4.7-4.4C68.5,69.8,68.5,69.7,68.4,69.6z"/>
<path class="st0" d="M82.1,64v11.2h-1l-7.2-9.1v9.1h-1.2V64h1l7.2,9.1V64H82.1z"/>
<path class="st0" d="M88.4,65h-3.9v-1h9.1v1h-3.9v10.2h-1.2V65z"/>
<path class="st0" d="M103.5,75.2l-2.6-3.6c-0.3,0-0.6,0-0.9,0h-3v3.6h-1.2V64h4.2c2.8,0,4.6,1.4,4.6,3.8c0.1,1.6-1,3.1-2.6,3.5
	l2.7,3.8H103.5z M103.4,67.8c0-1.8-1.2-2.8-3.4-2.8h-3v5.6h3C102.2,70.6,103.4,69.6,103.4,67.8z"/>
<path class="st0" d="M114.9,72.2h-6.2l-1.3,3H106l5.2-11.2h1.2l5.1,11.2h-1.3L114.9,72.2z M114.4,71.2l-2.7-6l-2.7,6H114.4z"/>
<path class="st0" d="M119.8,64h1.2v10.2h6.3v1h-7.5V64z"/>
<path class="st0" d="M128.4,69.6c-0.1-3.3,2.4-6,5.7-6.1c3.3-0.1,6,2.4,6.1,5.7s-2.4,6-5.7,6.1c-0.1,0-0.1,0-0.2,0
	c-3.1,0.1-5.7-2.3-5.9-5.4C128.4,69.8,128.4,69.7,128.4,69.6z M139,69.6c0-2.6-2-4.7-4.6-4.8c-2.6,0-4.7,2-4.8,4.6s2,4.7,4.6,4.8
	c0,0,0.1,0,0.1,0c2.5,0.1,4.6-1.9,4.7-4.4C139,69.8,139,69.7,139,69.6L139,69.6z"/>
<path class="st0" d="M154.7,73H150l-0.9,2.2h-3.2l4.9-11.2h3.1l5,11.2h-3.3L154.7,73z M153.8,70.7l-1.4-3.6l-1.4,3.6H153.8z"/>
<path class="st0" d="M170.4,75.2v-5.9l-2.9,4.8H166l-2.9-4.7v5.8h-2.9V64h2.6l3.9,6.5l3.9-6.5h2.6v11.2L170.4,75.2z"/>
<path class="st0" d="M183.5,73h-4.7l-0.9,2.2h-3.2l5-11.2h3.1l5,11.2h-3.3L183.5,73z M182.5,70.7l-1.4-3.6l-1.4,3.6H182.5z"/>
<path class="st0" d="M189,64h3.2v8.7h5.4v2.5H189V64z"/>
<path class="st0" d="M198.4,69.6c0-3.4,2.6-5.8,6.2-5.8s6.2,2.5,6.2,5.8s-2.6,5.8-6.2,5.8S198.4,73,198.4,69.6z M207.7,69.6
	c-0.1-1.7-1.5-2.9-3.2-2.8s-2.9,1.5-2.8,3.2c0.1,1.6,1.4,2.8,3,2.8c1.7,0,3-1.3,3-3C207.7,69.7,207.7,69.7,207.7,69.6z"/>
<path class="st0" d="M217.3,69.6c0-3.1,2.4-5.7,5.5-5.7c0.1,0,0.2,0,0.3,0c1.5-0.1,3,0.5,4.1,1.6l-0.8,0.8c-0.9-0.9-2.1-1.3-3.3-1.3
	c-2.6-0.1-4.7,1.9-4.9,4.4c-0.1,2.6,1.9,4.7,4.4,4.9c0.1,0,0.3,0,0.4,0c1.2,0,2.4-0.4,3.3-1.3l0.8,0.8c-1.1,1.1-2.6,1.7-4.1,1.7
	c-3.1,0.1-5.7-2.3-5.9-5.4C217.3,69.8,217.3,69.7,217.3,69.6z"/>
<path class="st0" d="M229.1,69.6c-0.1-3.3,2.4-6,5.7-6.1c3.3-0.1,6,2.4,6.1,5.7s-2.4,6-5.7,6.1c-0.1,0-0.1,0-0.2,0
	c-3.1,0.1-5.7-2.3-5.9-5.4C229.1,69.8,229,69.7,229.1,69.6z M239.6,69.6c0-2.6-2-4.7-4.6-4.8c-2.6,0-4.7,2-4.8,4.6s2,4.7,4.6,4.8
	c0,0,0.1,0,0.1,0c2.5,0.1,4.6-1.9,4.7-4.4C239.6,69.8,239.6,69.7,239.6,69.6z"/>
<path class="st0" d="M255.6,64v11.2h-1.1v-9l-4.4,7.6h-0.6l-4.4-7.5v8.9h-1.1V64h1l4.9,8.3l4.8-8.3H255.6z"/>
<path class="st0" d="M268.4,67.8c0,2.4-1.7,3.8-4.6,3.8h-3v3.5h-1.2V64h4.2C266.7,64,268.4,65.4,268.4,67.8z M267.2,67.8
	c0-1.8-1.2-2.8-3.4-2.8h-3v5.6h3C266,70.6,267.2,69.6,267.2,67.8z"/>
<path class="st0" d="M279.1,75.2l-2.6-3.6c-0.3,0-0.6,0-0.9,0h-3v3.6h-1.2V64h4.2c2.9,0,4.6,1.4,4.6,3.8c0.1,1.6-1,3.1-2.6,3.5
	l2.7,3.8L279.1,75.2z M279,67.8c0-1.8-1.2-2.8-3.4-2.8h-3v5.6h3C277.8,70.6,279,69.6,279,67.8z"/>
<path class="st0" d="M290.5,72.2h-6.2l-1.4,3h-1.2l5.1-11.2h1.2l5.1,11.2h-1.2L290.5,72.2z M290,71.2l-2.7-6l-2.7,6H290z"/>
<path class="st0" d="M295.4,64h1.2v10.2h6.3v1h-7.5L295.4,64z"/>
<path class="st0" d="M304,69.6c-0.1-3.3,2.4-6,5.7-6.1c3.3-0.1,6,2.4,6.1,5.7c0.1,3.3-2.4,6-5.7,6.1c-0.1,0-0.1,0-0.2,0
	c-3.1,0.1-5.7-2.3-5.9-5.4C304,69.8,304,69.7,304,69.6z M314.6,69.6c0-2.6-2-4.7-4.6-4.8s-4.7,2-4.8,4.6c0,2.6,2,4.7,4.6,4.8
	c0,0,0.1,0,0.1,0c2.5,0.1,4.6-1.9,4.7-4.4C314.6,69.8,314.6,69.7,314.6,69.6L314.6,69.6z"/>
<path class="st0" d="M23,48l1.6-1.8c1.7,2.8,4.8,4.6,8.1,4.6c4.8,0,7.2-2.8,7.2-8.6V18.9H26.5v-2.4h16.1v25.7c0,7.3-3.4,11-9.9,11
	C28.8,53.3,25.1,51.3,23,48z"/>
<path class="st0" d="M73.8,35.8V53h-2.5v-4.9c-1.7,3.1-5,5.1-9.8,5.1c-6.1,0-9.8-3.1-9.8-7.8c0-4.1,2.6-7.6,10.2-7.6h9.3v-2.2
	c0-5-2.8-7.8-8.1-7.8c-3.4,0-6.8,1.2-9.4,3.4l-1.3-1.9c3-2.5,6.9-3.9,10.9-3.9C70,25.6,73.8,29,73.8,35.8z M71.2,45v-5.1h-9.3
	c-5.6,0-7.6,2.3-7.6,5.5c0,3.5,2.8,5.7,7.5,5.7C66.4,51.1,69.6,48.9,71.2,45z"/>
<path class="st0" d="M113.1,28.8c0,7.7-5.5,12.2-14.7,12.2H88V53h-2.7V16.5h13.1C107.6,16.5,113.1,21.1,113.1,28.8z M110.4,28.8
	c0-6.3-4.2-9.9-12-9.9H88v19.7h10.4C106.2,38.7,110.4,35.1,110.4,28.8z"/>
</svg>
